{"glyphs":{":":{"x_min":0,"x_max":235,"ha":235,"o":"m 188 287 l 180 278 l 180 274 l 175 274 l 170 270 l 170 257 l 163 252 l 131 252 l 128 248 l 124 248 l 111 257 l 111 265 l 98 274 l 96 278 l 98 283 l 102 283 l 116 299 l 116 308 l 111 312 l 111 317 l 116 317 l 124 321 l 128 321 l 136 334 l 141 330 l 158 334 l 163 330 l 175 330 l 183 321 l 180 304 l 188 299 z m 120 47 l 116 34 l 111 30 l 111 18 l 102 18 l 94 5 l 84 13 l 68 13 l 63 8 l 63 0 l 55 0 l 42 18 l 37 18 l 34 25 l 34 42 l 29 47 l 51 64 l 55 81 l 63 90 l 84 90 l 84 81 l 89 77 l 94 77 l 98 81 l 111 72 l 111 55 z"},"$":{"x_min":0,"x_max":438,"ha":438,"o":"m 421 474 l 416 462 l 401 448 l 394 445 l 367 445 l 358 460 l 358 471 l 367 477 q 372 485 370 496 q 359 500 348 499 q 342 460 342 462 q 335 449 325 425 l 327 420 q 324 413 325 405 l 316 399 l 310 364 q 316 356 329 324 q 339 295 351 288 q 354 270 365 237 l 370 234 q 374 229 379 225 q 377 217 382 208 l 379 200 l 390 189 l 394 177 l 390 157 l 396 139 l 385 120 l 382 100 l 370 88 l 370 80 l 367 80 l 362 68 l 348 57 q 345 51 339 45 l 339 43 l 336 43 l 334 34 l 319 25 q 316 21 311 12 q 291 1 268 3 q 239 -6 225 -18 q 208 -9 194 -12 l 182 -21 l 176 -34 l 173 -34 l 170 -40 l 173 -57 l 167 -61 q 163 -71 165 -83 l 159 -85 l 154 -103 l 148 -100 l 142 -100 l 136 -106 l 120 -109 l 120 -97 l 123 -92 l 131 -85 l 133 -80 l 133 -68 l 145 -54 q 149 -42 148 -34 l 159 -18 l 159 -9 l 148 0 q 118 4 102 3 l 84 12 l 76 12 q 66 17 45 22 l 45 25 q 27 33 21 40 q 21 41 21 44 q 20 48 20 49 q 20 56 21 65 l 28 68 q 26 76 16 94 l 17 112 l 30 128 l 28 134 l 45 151 l 45 157 q 54 165 68 183 q 82 201 91 208 l 96 208 l 108 217 l 114 217 l 117 222 l 117 225 l 127 237 q 143 242 170 240 l 182 234 l 190 234 l 197 240 l 219 234 l 219 231 l 230 222 l 233 211 l 237 211 q 235 225 239 240 q 246 244 248 249 q 243 261 245 274 l 252 285 q 255 301 250 312 l 252 317 q 226 354 216 382 l 205 391 l 205 394 l 202 397 l 202 402 l 199 408 l 199 411 l 190 413 l 188 429 l 182 431 q 176 437 176 454 l 184 478 l 202 482 l 205 491 l 216 496 l 219 499 l 230 502 q 238 506 252 519 q 271 524 282 531 q 298 534 331 535 q 328 549 336 568 l 345 577 l 345 597 q 356 596 370 599 l 374 605 l 382 602 q 380 596 376 585 q 372 574 370 568 l 358 557 l 354 526 q 367 521 382 523 l 413 502 l 421 487 z m 327 514 l 313 514 q 302 514 276 499 q 250 484 242 474 q 243 458 248 445 l 256 442 l 261 434 l 268 431 l 268 429 l 270 429 l 270 425 l 276 417 l 276 413 q 282 401 286 380 q 288 413 301 434 l 301 456 l 304 456 l 311 468 l 311 474 q 329 506 327 514 z m 316 143 l 316 160 q 316 164 315 174 q 313 184 313 190 q 300 201 292 222 l 297 229 q 292 242 282 267 l 270 237 l 264 231 l 264 217 l 268 208 l 259 194 l 250 189 l 252 182 l 250 174 q 253 155 252 151 q 249 147 237 128 l 237 115 l 230 103 q 225 100 213 94 q 205 70 208 54 q 201 47 199 34 l 219 31 q 224 35 251 49 q 265 56 284 87 q 289 93 295 110 l 308 122 l 308 134 z m 197 109 q 181 102 166 96 q 148 88 131 88 q 107 88 96 94 l 93 109 l 88 112 l 84 120 l 73 128 l 73 131 l 84 149 l 100 151 l 105 157 l 111 160 q 124 153 127 146 l 127 131 q 127 129 126 124 q 124 119 125 117 l 131 112 l 159 115 q 159 115 179 124 l 179 131 l 163 137 l 159 146 l 159 157 l 163 160 l 163 182 l 170 194 l 182 200 l 185 206 l 173 220 q 167 222 163 222 l 145 222 q 139 217 127 208 l 117 206 l 108 194 l 102 191 l 102 189 l 96 186 q 94 181 91 174 l 91 171 l 79 171 l 76 166 l 68 160 l 68 155 l 64 155 q 63 152 61 147 q 58 143 57 140 l 53 140 q 50 123 42 88 q 48 62 60 43 l 64 43 l 70 37 q 81 32 93 34 q 104 25 127 25 l 133 34 l 142 37 l 159 34 l 170 25 l 173 28 l 173 34 q 180 36 182 40 q 179 55 179 57 q 179 59 182 85 l 190 100 l 194 100 z"},"?":{"x_min":0,"x_max":505,"ha":505,"o":"m 554 558 q 537 535 537 516 l 525 509 q 519 494 500 481 q 485 471 470 461 l 467 447 l 450 441 l 446 435 l 445 428 l 437 418 q 431 419 424 416 l 423 412 l 420 412 l 412 391 q 393 379 384 372 l 376 360 l 377 340 l 368 341 q 355 317 355 289 l 329 250 l 331 239 l 326 224 l 330 224 l 329 208 l 322 199 l 311 192 l 309 175 l 304 172 l 304 169 l 295 163 l 294 157 l 292 154 q 290 142 290 137 l 277 137 l 263 144 l 259 154 l 260 163 l 257 167 q 262 218 286 249 l 282 259 q 282 276 293 299 q 306 325 321 330 l 320 344 l 316 346 l 316 359 q 323 364 335 375 q 336 379 337 388 q 339 396 340 400 l 358 429 l 382 442 l 379 445 l 382 458 l 386 461 l 387 468 l 394 475 l 401 475 l 402 480 q 417 497 425 503 l 427 513 q 453 533 462 554 l 459 568 l 461 581 q 460 586 456 603 l 438 610 l 437 621 l 396 632 l 383 625 q 376 626 361 622 q 345 619 337 619 l 329 611 l 316 613 l 313 601 q 293 588 258 558 l 262 548 l 257 520 q 244 504 232 500 l 216 503 q 210 512 202 513 l 202 526 l 199 529 q 199 547 207 558 l 209 558 l 210 564 l 227 583 l 241 583 l 264 613 l 266 623 q 268 623 288 634 l 289 642 l 296 644 l 297 651 l 299 651 q 310 656 349 665 q 389 675 397 673 l 406 667 l 425 667 q 438 671 442 673 l 451 669 l 464 669 l 467 667 l 473 667 l 484 658 l 490 658 l 508 648 l 511 644 l 521 642 q 541 614 554 603 q 554 603 554 578 z m 293 31 l 292 21 q 283 12 276 0 l 267 -4 l 260 -4 l 258 -10 l 247 -10 l 240 -14 l 223 -14 l 212 -4 l 206 -4 l 202 12 l 200 12 q 202 21 202 39 q 208 47 216 61 l 224 61 q 235 71 247 80 l 268 76 l 276 69 l 283 69 l 280 57 l 283 51 l 289 47 z"},"<":{"x_min":0,"x_max":245,"ha":245,"o":"m 256 334 l 243 321 l 230 321 l 226 317 q 224 298 212 285 q 190 280 172 268 l 163 268 l 159 272 l 150 263 l 150 258 l 154 254 l 137 236 l 132 236 l 127 233 l 114 233 l 105 219 l 96 219 l 88 209 l 91 192 q 103 183 110 161 l 110 138 l 119 125 l 127 125 l 137 112 l 137 84 l 140 76 l 176 35 l 181 14 q 175 9 166 0 l 143 5 l 125 27 l 125 32 l 130 35 l 130 54 l 98 76 l 93 89 l 93 103 l 81 130 l 81 143 l 62 157 l 62 179 l 58 179 l 58 187 q 52 194 49 223 q 72 239 93 263 l 103 258 l 107 263 l 117 258 l 121 258 l 133 272 l 133 290 l 143 298 l 152 298 l 161 312 l 169 312 l 192 331 l 214 334 l 228 357 l 241 361 l 245 357 z"},"'":{"x_min":0,"x_max":167,"ha":167,"o":"m 203 620 q 201 607 198 600 l 172 562 l 168 539 l 163 515 l 150 480 l 136 439 l 125 413 l 110 413 l 113 439 l 118 475 l 126 512 l 125 550 l 116 573 l 120 600 q 120 606 122 619 q 126 625 133 638 q 133 643 135 651 q 140 653 150 658 q 165 667 171 667 q 178 667 192 651 q 207 636 203 620 z"},"=":{"x_min":0,"x_max":489,"ha":489,"o":"m 459 264 l 457 250 l 453 248 q 453 245 453 240 q 453 236 453 233 l 446 233 l 442 230 q 420 234 396 233 l 371 219 l 368 219 l 364 222 l 364 230 l 347 230 q 343 228 321 219 l 320 222 l 310 222 q 295 226 285 236 l 273 230 l 249 230 l 245 226 l 223 230 q 212 225 206 226 l 203 230 l 195 230 l 184 237 q 171 227 152 227 l 131 233 l 124 240 l 117 237 l 110 237 l 111 226 l 100 226 l 93 233 l 78 233 l 75 237 l 75 248 l 73 260 l 77 264 l 84 264 l 84 267 l 88 271 l 129 275 l 140 282 l 151 282 l 168 271 l 175 275 l 175 271 l 186 271 l 197 264 l 205 267 l 229 267 l 236 275 l 244 275 l 250 264 l 257 264 l 268 271 l 288 273 q 302 264 318 264 l 327 271 l 342 264 l 352 264 l 359 267 l 370 267 l 370 264 l 375 267 l 384 265 l 398 267 l 405 264 l 405 267 l 412 267 l 420 275 l 448 275 z m 420 150 l 416 146 l 414 126 l 407 126 l 403 123 q 384 128 357 126 l 332 112 l 329 112 l 325 116 l 325 123 l 308 123 l 299 116 l 282 112 l 281 116 l 270 116 l 259 123 l 246 119 q 233 125 209 123 l 206 120 l 173 120 l 167 116 l 163 123 q 156 121 145 126 q 131 120 106 123 l 108 126 l 100 129 l 93 126 l 86 126 l 71 120 l 61 120 l 54 123 l 39 123 l 36 126 l 36 137 l 34 150 l 38 157 l 45 154 l 45 161 l 49 165 q 72 167 73 167 q 82 167 104 166 q 125 164 136 165 l 136 161 l 147 161 l 158 154 l 165 157 l 190 157 l 197 165 l 205 165 l 211 157 l 218 157 l 229 165 l 257 161 l 261 157 q 279 155 292 150 l 301 154 l 312 154 l 320 157 q 327 156 340 159 q 353 162 359 161 l 366 157 l 366 161 l 373 161 l 381 167 l 409 167 l 420 154 z"},"a":{"x_min":0,"x_max":360,"ha":360,"o":"m 380 260 l 376 253 l 369 250 l 369 246 l 341 243 l 337 235 l 337 225 l 334 221 l 334 210 l 330 210 l 330 207 l 324 200 l 322 191 l 314 185 l 317 178 q 313 170 305 143 l 291 125 l 294 125 l 294 122 q 278 111 269 100 l 267 94 l 269 89 l 265 57 l 262 57 l 262 50 l 255 39 l 258 32 l 269 29 q 282 43 309 54 l 314 43 l 305 24 q 284 11 269 -11 q 240 -19 230 -18 l 230 -15 l 219 -15 q 210 -3 198 4 q 199 15 195 35 l 187 43 l 184 43 q 162 24 159 15 l 141 11 l 134 0 l 114 -8 l 102 -4 l 90 -6 q 72 5 59 7 l 45 18 q 30 51 30 65 q 30 73 34 85 l 37 85 q 40 92 44 110 l 41 118 l 41 122 q 41 126 47 136 q 53 145 54 150 q 83 170 89 210 q 99 217 105 225 q 123 231 130 235 l 134 235 q 145 248 159 256 l 163 264 l 195 275 l 223 271 l 234 264 l 248 264 l 262 278 l 276 278 l 294 271 l 309 275 l 316 271 l 319 264 l 345 267 l 355 275 l 362 271 l 373 275 q 377 271 380 260 z m 269 246 l 248 253 q 228 248 212 250 l 187 239 l 173 225 q 172 217 156 178 q 140 139 137 137 l 135 126 l 125 118 l 124 111 l 125 104 l 115 89 l 115 76 l 109 70 l 109 61 l 105 54 l 105 50 l 95 46 l 95 32 l 98 28 l 113 21 q 125 25 148 43 l 152 43 l 163 50 q 168 58 180 71 l 180 74 l 187 78 q 198 98 219 135 l 219 139 l 230 150 q 231 166 243 185 q 242 188 246 204 l 253 207 l 253 210 l 251 214 q 254 221 262 235 l 265 235 z"},"L":{"x_min":0,"x_max":707,"ha":707,"o":"m 707 21 l 696 4 l 674 -11 l 660 -11 l 653 -3 l 643 -10 q 638 -16 627 -28 q 613 -36 585 -57 q 565 -67 546 -63 q 542 -61 532 -57 q 499 -48 460 -35 q 451 -30 432 -21 q 413 -16 395 -10 q 373 -3 360 8 l 336 11 l 325 19 l 317 19 l 317 21 l 282 41 q 271 37 252 18 q 233 -2 221 -7 l 213 -23 q 199 -37 176 -49 l 157 -51 l 139 -42 q 116 -44 104 -44 q 97 -44 84 -42 q 72 -40 67 -39 q 67 -39 18 -39 q 8 -37 7 -35 l 0 -24 l 7 19 q 19 41 60 57 q 96 72 125 72 q 117 72 171 64 l 178 71 q 182 88 189 100 l 210 115 q 219 133 233 147 q 240 165 241 179 q 241 203 243 210 q 248 229 256 264 q 259 266 271 290 l 271 292 q 282 304 285 318 q 287 331 289 343 q 292 353 299 374 q 301 398 311 446 q 317 460 325 492 l 337 505 l 354 550 l 360 557 l 367 592 q 376 597 394 618 q 411 639 421 642 q 401 647 386 646 l 382 650 q 340 646 325 653 l 317 661 l 299 653 l 286 653 q 251 673 227 673 q 223 673 188 670 q 154 667 154 667 q 127 633 122 611 l 122 592 l 128 589 l 132 582 l 143 579 l 175 582 l 186 589 l 193 607 l 207 622 l 221 628 l 243 628 l 256 622 l 260 607 l 253 592 l 239 579 q 215 568 207 571 q 184 555 149 555 q 124 555 100 564 l 96 579 l 82 592 q 74 626 75 639 q 97 664 139 688 q 147 689 171 694 q 191 699 202 699 q 208 699 220 697 q 232 696 239 696 q 240 696 254 698 q 267 700 275 700 q 279 700 287 698 q 295 697 299 697 q 301 697 321 700 q 338 692 356 689 l 360 678 q 375 673 389 674 l 421 661 l 442 661 l 449 657 q 470 658 492 674 l 503 674 l 510 681 l 525 681 l 542 689 l 560 689 l 571 700 l 596 696 l 599 692 l 614 689 l 621 681 l 618 674 l 614 674 l 607 667 l 599 667 l 592 657 l 549 657 l 542 653 l 525 653 l 517 657 l 507 650 l 488 646 l 481 639 l 514 635 l 525 622 l 553 618 l 560 622 l 578 622 l 585 618 l 599 618 l 610 603 q 636 600 638 600 q 639 600 646 602 q 652 603 653 603 q 667 624 667 635 l 646 661 l 627 667 l 627 678 l 631 681 l 638 681 l 657 671 l 670 671 q 678 661 692 639 l 685 631 l 685 611 l 674 600 l 667 582 l 649 571 q 630 572 592 568 q 565 581 533 585 l 503 607 l 460 618 l 446 603 l 428 600 l 425 592 q 430 579 428 557 l 432 557 l 432 550 l 425 542 l 417 542 l 414 529 l 410 529 l 409 513 l 399 507 l 396 500 l 399 492 l 393 475 l 386 468 q 391 451 403 425 l 399 414 l 407 400 l 403 382 l 399 382 l 399 360 l 396 357 l 396 351 l 386 343 l 386 329 l 375 314 l 375 308 l 364 299 l 364 296 l 360 292 q 357 269 357 268 q 357 266 359 259 q 361 253 360 250 q 359 237 357 226 q 354 211 347 204 l 343 189 l 331 180 q 324 166 314 132 l 289 115 l 292 108 l 286 97 l 286 86 q 321 86 321 86 q 333 84 395 63 q 458 42 468 36 q 479 28 503 12 q 516 6 539 -7 q 548 -15 571 -28 l 578 0 l 588 8 l 610 8 l 621 -3 l 635 8 l 653 43 l 664 47 l 674 58 l 696 54 l 707 43 z m 159 23 l 146 32 q 115 36 120 36 q 82 36 61 21 q 45 2 35 -7 l 35 -18 l 57 -21 q 74 -12 98 -8 q 136 -1 139 0 z"},"3":{"x_min":0,"x_max":349,"ha":349,"o":"m 324 250 q 321 248 311 233 q 297 229 252 197 l 252 183 l 256 175 l 267 168 l 263 155 l 267 144 q 282 137 311 119 l 320 94 l 320 86 l 313 68 l 313 58 l 308 49 q 299 42 278 33 l 260 19 q 256 6 256 5 l 250 1 l 246 -10 q 233 -21 167 -21 q 164 -21 155 -23 q 147 -25 142 -24 q 136 -31 120 -35 q 108 -39 96 -42 q 84 -47 73 -52 q 62 -58 46 -56 l 31 -66 q 22 -67 -5 -81 q -35 -95 -47 -99 l -64 -114 l -64 -117 q -67 -119 -71 -125 q -82 -130 -86 -135 l -90 -135 l -93 -142 l -93 -153 l -86 -164 l -86 -170 l -104 -181 l -132 -174 l -147 -164 l -147 -146 l -143 -146 l -143 -142 l -125 -135 q -124 -132 -120 -126 q -116 -120 -115 -117 l -112 -117 q -89 -93 -62 -81 l -62 -74 q -48 -66 -21 -53 q -10 -50 14 -38 l 24 -38 q 29 -35 35 -31 l 85 -17 q 89 -14 96 -10 q 140 8 146 8 l 150 12 l 189 22 l 189 25 l 207 25 q 210 30 217 36 q 223 53 218 66 l 222 82 l 220 97 q 205 104 174 116 l 167 108 q 154 103 131 105 q 124 111 121 119 l 99 125 l 99 151 l 110 162 l 139 172 l 139 175 q 150 185 178 197 l 178 201 l 207 201 l 220 208 l 224 215 l 224 218 l 228 218 l 235 236 q 223 243 192 240 q 188 244 181 257 l 174 261 l 153 261 q 144 259 142 257 q 133 260 121 276 q 120 276 117 275 q 115 275 114 275 q 112 275 108 275 q 105 276 103 276 l 89 265 q 81 251 78 244 l 67 236 l 67 229 l 63 229 l 57 218 l 53 218 l 53 208 l 42 201 l 28 201 q 19 205 14 211 l 18 226 l 24 233 l 24 236 q 30 240 35 250 l 60 257 q 71 269 78 272 l 78 286 l 99 308 l 103 326 l 110 329 q 120 341 131 347 l 148 349 l 150 354 l 157 354 q 163 354 174 351 l 181 344 l 189 326 q 202 316 228 312 l 231 304 l 242 296 l 252 279 l 252 276 q 271 271 285 272 l 292 276 l 306 268 l 320 250 z"},";":{"x_min":0,"x_max":235,"ha":235,"o":"m 188 283 l 180 278 l 180 270 l 175 270 l 171 265 l 171 257 l 164 248 q 136 251 125 245 l 112 257 l 112 260 l 99 270 l 99 278 l 94 283 l 102 283 l 116 294 l 116 304 l 112 308 l 112 312 l 116 312 l 125 321 l 128 321 l 137 330 l 141 325 l 159 330 l 164 325 l 175 325 l 180 317 l 180 304 l 188 299 z m 116 34 l 112 25 l 112 18 l 102 18 l 99 13 l 99 5 l 94 5 l 86 -5 l 86 -18 l 72 -21 l 72 -25 l 55 -25 q 45 -38 42 -55 l 34 -64 l 18 -68 l 8 -77 l 0 -72 l 0 -64 l 8 -60 l 13 -42 l 21 -34 l 25 -21 l 42 -8 q 40 11 34 18 l 39 42 l 34 47 l 52 64 l 55 81 l 64 86 l 81 86 l 81 81 l 90 77 l 94 77 l 99 81 l 112 68 l 112 52 l 116 47 z"},"J":{"x_min":0,"x_max":634,"ha":634,"o":"m 862 709 q 862 703 858 687 q 854 673 855 664 l 848 657 l 812 653 q 806 661 797 682 q 788 703 780 713 q 753 703 748 696 l 748 692 l 737 688 q 732 681 720 674 l 720 660 q 720 657 723 642 l 716 618 l 712 618 l 712 607 l 695 585 l 687 582 l 684 568 l 676 560 l 676 546 l 673 546 q 668 522 669 514 l 663 510 l 663 492 l 658 481 l 641 471 l 637 464 l 638 450 q 634 443 630 436 q 628 420 624 389 q 617 371 607 335 q 594 317 570 282 q 563 267 548 239 l 547 230 q 531 205 531 192 q 525 185 516 171 l 520 171 l 520 167 q 516 153 516 154 l 509 150 l 505 128 l 509 118 q 499 107 491 67 l 487 67 l 487 57 q 465 37 452 -4 l 444 -11 l 438 -28 l 427 -35 l 427 -39 l 424 -39 q 393 -83 367 -103 l 363 -128 l 353 -146 l 353 -150 l 349 -150 l 342 -171 l 331 -175 l 334 -182 l 342 -186 q 368 -201 424 -225 l 431 -232 l 452 -232 q 468 -224 484 -216 q 508 -204 516 -207 l 559 -186 l 563 -178 q 595 -175 595 -175 q 595 -175 630 -178 l 655 -196 l 655 -204 l 663 -214 l 663 -232 l 655 -236 l 652 -253 l 637 -271 l 637 -282 l 602 -296 q 594 -296 579 -297 q 562 -299 555 -299 q 553 -299 548 -298 q 543 -296 542 -296 q 541 -296 494 -299 q 469 -290 448 -275 l 424 -275 l 402 -286 l 392 -286 l 384 -292 l 384 -296 l 363 -299 l 331 -321 l 313 -325 l 313 -332 q 249 -341 223 -367 q 217 -365 160 -386 l 131 -382 l 113 -360 l 99 -354 l 92 -332 l 84 -328 l 84 -325 l 70 -317 l 27 -317 l 17 -311 l -8 -311 l -22 -303 q -61 -306 -62 -306 q -87 -306 -101 -292 l -105 -278 q -125 -251 -166 -243 q -194 -199 -194 -166 q -194 -161 -194 -157 l -176 -135 l -162 -135 l -153 -124 l -129 -122 l -114 -114 q -98 -119 -65 -121 q -33 -122 -18 -127 q -3 -125 34 -111 q 63 -101 99 -101 q 114 -101 144 -110 q 173 -119 184 -128 l 199 -128 l 203 -135 l 238 -143 l 252 -154 q 267 -129 292 -100 q 300 -79 313 -61 l 313 -46 q 321 -33 338 -7 l 338 4 l 345 7 l 349 15 l 363 25 l 363 28 l 370 43 l 378 50 q 395 96 438 182 q 438 185 459 200 q 464 212 475 228 l 471 232 q 478 242 482 260 q 488 286 489 290 q 497 312 516 339 l 516 350 l 527 364 l 527 371 l 538 399 l 547 409 l 551 430 l 544 446 l 546 460 l 559 475 q 572 533 603 548 q 625 586 634 638 l 626 653 q 599 621 566 599 l 566 592 l 555 585 l 552 582 q 549 581 520 560 l 513 549 l 487 536 l 474 518 l 470 518 q 445 500 405 457 l 384 446 l 382 431 l 377 422 l 379 402 l 381 399 q 384 364 384 364 q 384 355 379 338 q 375 319 374 311 l 377 311 q 382 296 381 289 l 384 286 l 381 260 l 394 256 q 402 265 413 271 l 420 289 l 441 292 l 452 289 l 459 278 l 450 258 q 427 240 402 236 l 381 239 l 370 236 l 353 239 l 345 264 q 334 277 316 303 l 305 311 q 295 351 295 351 q 295 356 296 360 l 288 382 l 290 403 q 298 423 310 438 q 325 451 341 462 q 358 475 377 478 l 388 488 l 392 488 l 402 507 q 416 512 434 531 q 456 555 463 560 q 470 565 507 584 q 531 595 548 618 l 555 621 q 574 642 602 664 l 605 674 l 624 688 l 645 688 q 666 701 708 725 q 720 728 741 735 q 766 747 798 764 l 812 764 q 810 764 837 760 q 860 741 862 731 z m 605 -246 l 605 -228 l 602 -228 l 598 -214 l 595 -210 q 583 -215 552 -217 l 548 -221 q 524 -232 474 -250 l 474 -253 l 491 -264 l 524 -267 l 531 -260 q 554 -249 595 -253 z m 374 -267 l 374 -260 q 351 -252 294 -246 q 264 -253 234 -278 l 234 -282 l 220 -282 q 200 -293 184 -296 l 184 -299 l 153 -317 l 124 -321 l 121 -328 l 131 -339 l 142 -339 l 142 -336 l 173 -347 l 199 -339 l 206 -328 q 238 -318 310 -303 l 313 -296 q 323 -291 344 -282 q 364 -272 374 -267 z m 249 -217 l 249 -210 l 227 -186 l 227 -178 l 220 -167 q 207 -163 184 -161 l 156 -143 q 130 -140 103 -132 q 90 -137 68 -139 q 42 -141 34 -143 q 23 -148 2 -157 q -14 -161 -66 -163 q -109 -165 -133 -178 q -151 -202 -151 -217 q -146 -226 -119 -243 l -94 -246 l -76 -267 q -57 -282 -19 -287 q 31 -294 43 -298 l 62 -296 l 66 -289 l 56 -278 q 31 -274 14 -264 l -1 -250 l -5 -250 l -29 -228 l -29 -221 l -16 -189 l 2 -186 l 34 -196 q 38 -198 42 -207 q 57 -213 62 -221 l 66 -246 l 73 -253 q 73 -273 92 -296 l 113 -296 q 113 -296 145 -286 q 164 -273 170 -260 l 184 -256 l 184 -253 l 223 -243 z"},"V":{"x_min":0,"x_max":854,"ha":854,"o":"m 1022 542 l 1019 536 l 1000 525 l 987 503 l 983 479 l 976 468 l 972 449 l 965 442 l 961 425 l 951 414 l 951 407 l 937 399 l 933 393 l 922 389 l 919 382 q 910 373 894 371 l 890 368 l 890 364 q 874 364 850 354 q 831 345 812 336 l 766 336 l 751 357 l 748 357 l 751 375 l 744 403 q 750 409 770 416 q 791 423 798 421 l 805 410 l 802 388 l 809 364 l 818 364 q 842 375 866 386 q 903 404 908 418 l 911 418 q 920 440 942 483 q 942 507 938 552 q 919 568 891 570 l 851 564 l 844 560 l 840 553 q 816 547 798 521 l 790 518 l 790 514 q 768 497 762 475 l 744 468 q 733 459 711 442 q 705 434 690 418 l 633 357 q 624 345 605 325 l 583 325 l 569 318 l 562 299 l 566 289 l 551 282 q 545 265 529 250 q 515 238 501 225 q 493 209 466 182 l 458 182 q 438 156 416 125 l 394 121 l 380 108 l 369 82 q 362 76 352 61 q 341 45 334 39 l 330 28 l 326 28 l 323 18 l 309 7 l 301 -24 q 295 -28 258 -28 q 249 -26 248 -24 l 258 -7 l 258 4 q 247 9 230 25 l 230 39 q 260 57 280 57 q 293 65 297 82 l 297 89 q 319 142 319 158 q 319 159 316 200 l 326 221 q 329 242 330 275 l 337 278 q 350 305 352 325 l 348 347 l 337 357 q 350 384 354 417 l 371 438 l 387 446 q 384 467 384 468 q 384 471 387 485 l 403 502 l 412 526 l 437 542 l 430 560 l 427 560 l 427 589 q 431 603 437 621 q 407 616 362 603 l 362 599 l 341 592 l 305 596 q 286 588 278 588 q 230 588 206 596 l 198 592 l 159 592 q 141 592 109 610 l 98 634 l 101 667 q 113 683 145 696 l 148 700 q 184 712 223 713 l 230 721 q 257 709 284 709 q 289 709 298 711 q 307 712 312 712 q 316 712 352 707 l 369 716 q 384 703 437 700 l 447 692 q 461 695 483 685 l 505 664 q 520 666 537 674 q 565 688 566 689 q 581 695 606 698 q 641 701 648 703 q 658 707 679 713 q 678 713 698 718 q 704 718 716 716 q 730 714 733 713 l 748 703 l 762 670 l 755 657 q 720 661 726 661 q 733 661 698 657 l 676 674 q 661 676 652 676 q 646 676 629 673 q 613 669 605 670 l 601 667 q 563 656 519 650 l 519 642 q 519 630 530 611 q 540 592 541 582 q 532 570 505 540 q 485 487 487 449 q 477 434 466 410 l 473 396 l 473 368 l 466 354 l 466 350 l 462 350 q 455 327 444 314 l 447 292 l 444 289 l 444 275 l 434 253 l 430 253 q 401 192 377 158 l 373 139 q 378 146 387 158 l 408 167 l 408 171 q 419 178 429 190 q 447 210 447 210 q 454 215 466 225 q 475 240 497 260 q 514 279 516 292 l 519 292 q 525 306 556 329 q 590 354 597 364 q 603 365 609 372 q 618 382 619 382 q 629 389 639 396 q 651 404 655 414 l 662 418 l 668 432 q 674 435 683 442 l 716 475 l 719 485 q 723 489 733 496 q 744 503 748 507 l 755 507 l 769 514 l 776 542 l 790 549 l 790 553 q 813 577 844 588 q 858 593 905 602 q 911 604 922 607 q 939 606 972 610 l 990 603 l 1019 568 l 1019 549 z m 437 642 l 434 657 l 423 667 q 386 681 362 681 l 355 678 q 338 681 337 681 q 331 681 317 680 q 304 678 297 678 q 283 678 252 684 q 221 690 206 690 q 193 684 159 670 l 139 653 l 152 631 l 163 628 l 169 621 q 193 618 195 618 q 198 618 206 619 q 213 621 216 621 q 222 621 232 619 q 242 618 248 618 l 284 618 q 289 618 299 619 q 309 621 312 621 q 353 623 365 625 q 390 629 416 642 z"},"\"":{"x_min":0,"x_max":324,"ha":324,"o":"m 365 618 q 364 611 361 598 l 349 576 l 340 540 l 317 431 l 301 413 l 301 443 l 279 413 l 284 438 l 288 470 l 297 487 l 293 507 l 299 534 l 279 555 l 295 575 l 294 596 q 294 606 295 615 q 297 629 298 644 q 301 667 306 667 q 308 667 314 658 q 321 649 325 648 q 328 647 330 656 q 332 666 335 666 q 343 666 347 657 q 350 651 354 644 q 367 627 365 618 z m 211 673 q 213 670 206 660 q 197 646 196 639 q 203 630 208 618 q 208 613 204 598 l 190 580 l 198 561 l 178 528 l 180 502 l 184 476 l 164 430 l 145 413 l 129 413 l 127 432 l 131 524 l 134 554 l 130 572 l 138 596 q 138 603 139 616 q 141 624 151 631 q 167 642 168 643 q 169 644 177 656 q 181 664 189 664 q 196 664 202 670 q 208 676 209 676 q 210 675 211 673 z"},"7":{"x_min":0,"x_max":378,"ha":378,"o":"m 396 292 q 396 286 393 274 l 364 270 l 354 274 l 328 270 l 328 266 l 317 259 l 321 227 q 312 224 299 216 l 299 213 l 292 213 l 282 206 l 286 203 l 278 192 l 278 181 q 275 179 265 155 l 261 152 q 262 146 262 142 q 262 125 236 102 l 232 84 q 214 66 217 45 q 210 39 207 31 q 191 25 178 14 l 178 -1 l 171 -12 l 175 -16 l 171 -22 l 150 -36 l 139 -36 l 132 -65 l 122 -79 l 118 -94 l 107 -101 l 96 -119 l 93 -119 l 85 -126 q 33 -146 24 -144 l 4 -155 l 0 -155 l -15 -162 l -43 -162 q -43 -162 -54 -151 l -57 -140 l -61 -136 l -57 -129 q -41 -125 -18 -129 q -12 -124 4 -119 q 20 -114 28 -116 l 32 -112 l 50 -108 l 64 -94 l 71 -58 l 75 -55 l 75 -33 l 78 -29 l 78 -19 l 85 -5 q 93 0 104 10 l 122 14 l 128 21 l 128 24 l 135 27 q 141 49 139 81 l 143 88 q 155 94 161 103 q 165 119 174 151 l 170 159 q 172 165 180 179 q 188 192 188 201 l 195 208 l 195 219 l 203 222 q 205 227 210 237 q 216 247 218 251 q 230 254 235 260 l 246 260 l 243 266 l 232 274 l 214 277 l 207 285 l 200 288 l 193 298 l 167 302 q 159 299 139 295 l 135 288 q 119 284 96 266 l 67 259 l 64 255 l 64 252 l 50 246 l 43 238 l 28 238 l 24 255 l 33 272 l 43 281 q 42 286 48 305 l 46 313 l 78 310 l 96 316 l 104 324 l 125 320 q 195 332 204 331 l 210 327 l 221 327 l 253 310 l 253 305 q 273 295 292 298 l 292 302 q 315 314 360 335 l 378 335 l 378 320 l 375 316 l 360 313 l 356 310 l 356 298 l 364 295 l 378 295 q 380 295 386 297 q 393 299 396 298 z"},"S":{"x_min":0,"x_max":714,"ha":714,"o":"m 697 583 l 687 550 q 665 530 630 517 l 612 527 q 608 527 601 526 q 593 526 589 526 q 566 526 516 542 l 516 539 l 520 536 l 531 517 l 535 517 l 538 510 q 560 494 578 458 q 595 425 598 396 l 611 382 l 613 367 l 620 360 q 624 347 625 332 q 632 315 656 282 q 656 268 662 243 q 669 219 669 207 q 660 150 659 154 l 663 154 l 659 125 l 645 111 l 645 100 l 641 100 l 634 85 l 620 78 q 602 42 581 32 l 577 25 q 562 15 544 11 q 519 6 513 4 q 499 -1 448 -28 q 405 -32 413 -32 q 383 -32 335 -17 q 288 -1 263 18 l 263 21 q 245 28 209 46 q 188 74 188 112 l 197 153 q 233 210 248 224 q 263 238 324 275 l 327 286 l 342 296 q 349 297 378 302 q 402 306 413 306 q 421 306 435 304 l 456 292 l 456 289 q 465 275 484 250 l 487 228 l 480 214 l 480 204 l 474 193 l 456 182 l 448 154 q 414 126 384 118 q 361 111 313 111 q 288 120 274 161 l 274 165 l 288 189 q 304 201 320 200 l 337 192 l 342 165 q 336 151 338 143 q 355 140 358 140 q 360 140 381 143 q 382 145 405 154 l 405 167 l 385 171 l 381 182 q 382 201 388 236 l 402 250 l 405 260 l 402 275 q 384 279 363 278 l 346 267 l 342 260 l 327 256 q 322 247 310 237 q 292 223 290 219 l 274 214 q 267 209 252 186 l 242 178 q 240 159 220 126 l 223 97 l 242 61 q 264 56 281 43 q 306 40 353 29 l 370 32 q 391 25 417 25 q 418 25 425 27 q 425 27 466 39 q 481 47 491 64 l 491 71 l 506 82 q 519 108 527 115 q 530 129 545 150 q 545 160 549 176 q 556 200 556 202 q 552 229 552 225 q 552 229 554 237 q 555 246 555 250 q 555 253 555 262 q 554 270 554 274 q 542 296 509 382 l 498 389 l 498 396 q 494 401 487 410 q 483 421 474 442 q 472 446 459 464 q 458 465 458 467 q 457 470 456 471 l 438 488 l 435 507 q 425 531 402 546 q 361 521 307 502 q 247 481 206 481 q 192 481 164 493 q 138 503 124 502 l 115 511 q 98 515 82 520 q 66 524 53 537 q 58 562 62 570 q 69 584 88 596 q 93 613 110 618 l 110 621 q 128 630 177 630 q 221 630 245 625 l 252 618 l 259 603 l 259 592 l 235 588 l 216 571 l 195 568 l 181 578 l 188 596 l 174 599 q 161 588 121 588 l 103 575 l 108 552 q 126 541 159 527 q 198 512 213 514 q 243 518 301 529 q 349 549 405 571 q 408 581 423 595 q 438 609 441 618 q 458 625 470 627 l 474 635 l 487 638 l 498 649 q 515 652 535 664 q 543 663 558 665 q 574 667 581 667 q 573 667 624 660 q 642 644 659 642 l 659 638 l 673 635 l 676 627 l 695 610 q 694 605 697 583 z m 663 596 l 656 610 l 637 625 q 615 629 598 642 l 556 640 q 535 631 509 614 l 495 610 l 495 607 l 476 578 q 501 574 552 564 l 556 560 q 563 561 581 558 q 603 554 606 553 l 634 560 q 655 577 663 596 z"},"}":{"x_min":0,"x_max":392,"ha":392,"o":"m 428 578 l 424 564 q 413 553 398 543 l 401 521 l 394 513 l 394 499 l 398 491 l 389 486 l 385 479 l 367 474 l 367 461 l 354 452 l 359 444 l 352 432 q 354 416 347 393 l 338 393 q 333 377 334 367 l 329 367 l 329 351 l 338 328 l 342 328 l 347 325 l 354 325 l 367 308 l 359 302 l 347 302 l 325 293 l 320 286 l 312 291 l 304 281 l 304 273 l 282 251 l 282 247 q 275 241 244 196 l 244 187 l 235 182 q 229 164 231 149 q 215 133 208 110 l 208 93 l 196 59 l 167 37 q 161 20 136 -10 l 128 -14 q 122 -26 100 -44 q 78 -61 63 -65 l 21 -61 l 3 -70 l -13 -70 q -20 -70 -34 -65 l -39 -53 l -34 -31 l -26 -23 q -15 -16 13 -19 q 24 -21 38 -31 l 60 -35 l 72 -23 l 89 -23 l 89 -10 l 99 -1 l 112 -6 l 115 8 l 112 25 l 120 37 l 120 46 l 128 59 l 128 85 q 135 92 154 106 l 154 123 q 161 137 175 167 l 184 174 l 188 182 l 206 196 q 210 208 208 217 q 222 235 240 251 l 235 255 l 248 264 l 260 264 l 269 273 l 269 281 l 282 281 l 299 308 l 299 312 l 287 325 l 287 338 q 276 344 273 354 l 269 380 l 273 388 l 273 393 l 287 401 l 287 410 l 294 423 l 312 432 q 312 437 312 442 q 312 466 324 493 q 337 521 354 534 l 354 568 q 357 577 364 593 q 373 604 385 632 q 382 648 377 671 l 359 679 l 352 679 q 356 679 325 675 l 317 679 l 304 671 l 273 671 l 265 679 l 265 692 q 269 697 278 705 l 299 705 q 311 711 334 723 q 358 706 385 705 q 400 688 414 684 l 414 645 l 419 645 l 424 616 q 418 608 414 590 z"},"Z":{"x_min":0,"x_max":869,"ha":869,"o":"m 913 603 l 905 585 q 899 583 895 578 q 870 566 823 549 q 792 549 728 539 q 725 525 717 510 l 721 503 l 706 488 l 699 464 l 681 453 l 677 446 l 660 438 q 652 412 641 376 q 626 360 603 327 l 581 311 l 577 296 l 563 286 l 559 271 q 533 241 481 210 l 478 193 l 460 175 l 445 171 l 441 161 l 432 161 l 413 139 l 406 136 l 396 104 l 374 89 l 374 85 q 410 70 449 75 l 452 71 l 467 78 l 481 71 l 488 75 q 524 62 652 43 q 664 44 688 39 q 739 44 771 59 l 783 76 l 784 93 l 781 100 l 773 107 l 756 107 l 734 118 l 728 136 l 731 154 q 742 160 763 168 q 782 174 813 171 l 831 157 q 835 136 834 115 l 831 115 l 823 104 l 817 70 q 806 59 791 29 l 756 7 l 738 4 l 734 7 q 678 5 634 15 q 621 19 595 25 q 568 25 517 35 l 513 32 q 475 41 456 39 l 445 46 l 435 43 l 402 54 l 381 50 l 353 61 l 321 50 l 295 21 l 246 0 l 235 0 l 231 -7 l 203 -11 l 192 -18 q 165 -20 150 -25 l 128 -18 q 97 -33 63 -28 l 63 -21 l 53 -18 l 42 -7 q 28 17 28 43 l 43 76 l 63 96 q 83 97 121 104 l 128 111 l 146 111 l 157 104 l 192 107 l 210 100 l 242 100 q 257 113 270 132 l 281 136 l 292 154 l 311 165 l 313 171 l 328 175 q 360 222 402 253 q 418 263 447 285 q 468 301 512 354 q 557 408 568 429 q 572 440 582 464 l 595 478 l 599 488 l 602 488 l 610 517 q 617 523 624 539 l 621 542 l 606 546 l 602 549 l 592 549 l 584 557 l 549 557 l 535 564 l 535 568 l 524 568 l 524 571 l 510 568 l 495 575 l 495 578 q 478 575 464 580 q 444 585 441 585 q 412 586 353 588 l 342 575 l 342 568 q 332 559 315 528 q 300 501 285 492 l 281 485 q 260 478 224 460 l 207 464 l 178 460 l 170 467 l 146 460 l 118 471 l 114 488 l 125 503 l 125 521 q 133 532 167 553 l 174 564 l 200 575 q 206 583 217 596 q 250 611 270 607 q 290 621 311 621 l 321 638 l 335 642 q 353 662 371 674 q 391 677 421 688 q 438 685 462 696 q 477 688 495 685 l 503 653 l 481 635 l 463 642 l 456 657 l 424 667 l 399 660 l 376 621 q 441 621 441 621 q 455 617 481 610 q 502 609 542 603 q 546 602 582 585 q 587 586 594 586 q 609 586 635 580 q 665 572 677 571 l 717 599 q 724 603 734 610 q 796 640 852 640 q 863 640 873 638 q 882 636 895 627 z m 849 596 l 849 607 q 825 610 823 610 q 820 610 803 607 l 771 584 l 803 578 l 816 582 l 823 588 q 842 598 849 596 z m 306 571 l 302 585 l 285 588 q 270 586 246 574 q 220 560 207 557 l 207 553 l 167 525 l 164 514 l 157 510 l 157 507 l 146 503 l 146 492 l 167 485 q 179 490 197 490 q 227 490 228 490 q 246 491 260 499 q 301 534 306 571 z m 217 71 l 213 75 q 111 82 125 82 q 93 82 65 61 q 62 50 62 26 l 78 7 q 81 7 85 6 q 89 6 92 6 q 98 6 122 12 q 141 28 164 32 l 178 46 q 186 47 198 57 q 213 69 217 71 z"},"x":{"x_min":0,"x_max":437,"ha":437,"o":"m 423 56 q 423 23 393 -4 q 387 -6 376 -10 q 365 -14 359 -16 l 349 -16 l 334 -10 l 327 -10 l 321 -5 l 321 2 q 319 3 290 23 l 282 40 l 274 47 l 268 58 l 256 64 l 256 67 q 235 94 235 110 l 220 131 l 209 131 q 202 125 189 120 q 184 113 173 99 l 168 96 q 159 83 150 61 q 137 49 127 37 l 116 36 q 99 19 83 12 l 83 8 l 80 1 q 74 -1 63 -6 q 52 -11 46 -14 q 25 -4 16 9 l 13 21 q 8 23 6 30 l 14 45 l 12 56 l 16 70 l 21 76 q 21 89 29 112 q 40 121 47 122 l 66 120 l 68 106 l 76 101 q 78 91 78 86 q 78 84 78 81 q 77 77 77 75 l 69 69 l 59 66 l 59 62 l 48 63 l 42 49 l 42 36 l 50 29 q 58 31 72 40 q 86 49 94 52 q 101 62 117 74 l 117 84 q 127 90 134 103 q 139 113 145 124 q 152 132 167 149 l 169 158 q 181 167 196 193 l 196 213 q 192 221 186 238 q 167 251 156 257 q 136 252 129 246 l 120 247 l 104 230 l 104 226 l 100 226 l 96 215 l 87 209 l 87 202 l 84 199 l 80 199 l 75 192 l 72 192 l 56 201 l 52 208 q 56 215 70 224 l 76 242 q 81 244 108 266 q 126 281 143 284 q 158 300 179 300 q 189 300 212 292 q 216 287 235 273 q 239 259 254 233 q 266 241 281 264 q 296 288 309 296 q 313 297 325 300 q 335 303 341 303 q 358 303 374 297 l 386 278 l 390 277 l 396 262 l 396 259 l 390 245 q 387 245 382 244 q 376 244 374 244 q 368 244 356 248 l 346 264 l 328 265 q 309 255 301 248 q 295 235 291 223 l 284 225 q 280 215 271 208 l 273 203 l 273 197 q 270 186 270 186 q 276 171 277 161 q 303 132 305 101 l 316 88 l 322 69 l 331 66 q 335 51 354 31 l 365 31 l 373 26 l 391 25 q 396 29 400 43 q 405 57 404 63 l 400 67 l 390 68 l 384 75 l 384 82 l 396 93 l 409 92 l 417 87 l 423 73 z"},")":{"x_min":0,"x_max":392,"ha":392,"o":"m 429 571 q 429 564 427 550 l 418 535 l 418 530 q 411 517 402 505 l 402 469 l 412 459 l 412 435 l 423 420 l 423 404 l 412 384 l 412 375 l 402 359 l 402 350 q 387 348 371 332 q 352 312 348 311 l 348 294 l 343 290 l 343 280 l 354 274 l 357 265 l 357 245 l 354 235 l 343 229 l 343 201 l 338 195 l 333 174 q 310 161 288 135 l 288 110 l 272 95 l 262 95 l 262 85 q 256 71 238 55 l 238 50 q 221 44 203 34 l 193 34 l 187 30 l 187 10 q 184 8 168 0 l 172 -11 l 138 -45 l 132 -45 q 120 -60 93 -72 q 65 -84 57 -94 l 48 -94 l 38 -110 l 38 -125 l 18 -130 l 14 -135 q -4 -133 -17 -139 l -57 -135 l -57 -115 l -53 -110 l -53 -105 l -41 -100 l -37 -94 l -17 -90 l 18 -60 l 38 -60 l 77 -29 l 87 -29 l 98 -21 l 98 -11 l 87 -5 q 90 2 118 30 q 131 35 132 34 l 138 40 l 163 50 l 172 80 l 178 85 l 178 95 l 193 120 q 215 128 233 150 l 242 150 l 242 156 l 248 156 q 270 218 288 229 l 288 245 l 282 250 l 278 250 l 278 270 q 288 290 302 320 l 302 335 l 312 335 l 312 365 l 317 369 l 323 390 q 334 395 354 414 l 343 425 l 343 440 l 338 440 l 338 469 l 357 489 l 357 499 l 378 540 l 363 550 l 357 581 l 367 589 l 367 635 l 363 635 q 354 667 357 694 l 348 705 l 348 729 l 343 735 l 333 735 l 333 745 l 323 745 l 302 764 l 302 784 l 309 794 l 338 794 l 338 790 l 354 790 l 357 784 l 367 784 l 372 779 l 378 779 q 388 732 408 714 l 408 690 q 408 686 402 654 l 408 639 l 423 629 q 423 622 426 600 q 429 581 429 571 z"},"&":{"x_min":0,"x_max":582,"ha":582,"o":"m 596 309 l 591 296 l 579 288 q 562 292 549 289 l 539 297 l 532 293 l 521 293 l 517 290 l 510 290 l 506 283 l 495 287 l 484 279 l 474 276 l 467 268 l 471 261 l 467 257 l 467 250 l 481 229 l 484 211 l 488 208 q 495 180 493 167 l 484 151 l 481 151 l 474 144 l 474 140 l 467 137 q 468 131 462 113 q 449 99 427 67 q 393 58 358 7 l 359 -6 l 353 -17 l 356 -24 l 356 -38 l 353 -45 l 356 -49 l 351 -56 l 357 -60 q 354 -67 354 -83 q 353 -99 350 -107 l 362 -116 q 412 -130 417 -127 l 421 -131 l 432 -131 l 435 -135 l 461 -135 l 472 -131 q 487 -129 517 -122 l 523 -116 l 521 -106 l 524 -95 l 529 -88 l 536 -85 q 546 -86 556 -95 l 563 -95 l 567 -99 l 571 -113 l 567 -135 l 559 -144 q 548 -150 527 -155 q 506 -160 499 -164 q 486 -160 460 -156 q 451 -156 435 -156 q 424 -152 404 -146 q 394 -144 389 -145 l 378 -138 q 360 -137 344 -132 l 339 -142 l 335 -145 q 333 -158 327 -168 q 317 -180 294 -201 l 281 -206 q 277 -211 267 -221 l 250 -227 l 245 -233 l 235 -231 l 215 -242 l 192 -242 q 183 -239 181 -238 l 171 -242 l 167 -242 l 164 -238 q 144 -238 135 -239 q 125 -232 107 -235 l 103 -231 q 96 -230 82 -223 q 67 -215 59 -215 l 44 -201 l 42 -181 l 39 -177 l 39 -167 l 35 -164 l 35 -141 q 35 -124 54 -103 l 57 -92 l 70 -74 l 81 -74 l 85 -70 l 98 -64 l 118 -66 l 121 -63 l 142 -60 l 146 -63 l 161 -63 l 164 -66 q 169 -69 200 -69 q 203 -69 208 -70 q 214 -70 217 -70 l 231 -77 q 234 -77 241 -77 q 247 -76 250 -76 q 253 -76 259 -77 q 264 -77 267 -77 l 289 -92 l 306 -95 l 306 -63 l 313 -45 l 313 -34 q 313 -31 312 -23 q 310 -15 311 -10 l 302 -6 l 302 5 l 299 8 l 292 8 l 281 1 q 267 0 241 -4 l 217 1 l 203 12 l 200 12 l 189 5 l 171 5 l 167 8 q 140 5 114 22 l 103 36 l 96 40 q 92 50 80 58 l 76 68 l 69 68 q 61 87 63 101 q 59 108 59 121 q 59 128 61 133 l 57 137 l 61 140 q 74 181 98 207 q 101 215 100 222 l 103 229 l 115 241 l 121 254 q 142 269 164 287 l 164 293 l 185 303 q 198 314 217 340 l 217 348 l 207 365 q 207 367 206 370 q 206 374 206 375 q 206 376 206 379 q 207 381 207 383 l 210 387 l 210 397 l 201 412 q 201 425 207 450 q 199 464 199 474 q 199 475 199 478 q 200 481 200 482 l 207 493 l 207 508 q 213 516 217 529 l 225 537 l 228 547 l 231 550 l 239 550 l 250 558 l 260 561 l 267 572 l 274 572 q 285 569 285 569 l 289 563 l 285 558 l 278 558 l 263 543 q 260 527 250 508 l 249 491 l 244 480 q 246 466 253 435 l 252 422 q 257 416 261 401 q 264 384 267 378 q 283 389 302 397 l 306 404 q 315 402 329 412 q 341 420 347 429 q 358 431 382 449 l 396 473 q 400 493 399 504 l 396 508 q 396 512 396 522 l 392 529 l 391 549 q 384 566 367 583 l 360 586 q 346 584 335 589 l 328 583 q 320 581 306 576 l 301 583 q 303 587 328 604 q 353 612 369 609 q 380 607 400 588 q 419 569 423 558 q 428 546 437 524 q 433 514 436 493 q 431 475 413 439 q 396 434 389 422 l 378 422 l 371 415 l 363 415 l 360 408 l 353 400 l 353 397 l 339 387 l 321 383 l 306 371 l 289 372 l 281 368 l 276 355 l 278 340 l 274 340 l 274 329 l 292 315 l 295 300 l 299 297 l 299 287 l 306 272 l 306 257 l 313 244 l 313 211 l 317 208 l 317 190 l 324 183 l 324 179 q 327 173 332 162 q 336 151 339 145 l 339 133 q 352 125 362 67 l 374 79 l 378 90 l 389 90 l 396 105 l 403 106 q 403 107 416 123 q 427 137 428 162 l 432 166 q 431 171 438 189 q 436 195 433 208 q 429 220 428 226 l 417 237 q 410 239 396 250 l 392 265 l 399 272 l 382 272 q 368 280 350 284 q 344 291 335 304 l 335 312 l 346 322 l 350 322 l 356 315 q 374 312 389 304 l 409 309 l 424 304 l 428 300 l 438 300 l 442 297 l 456 297 l 460 293 l 471 293 l 478 300 q 500 311 524 308 l 539 318 l 545 318 l 545 329 l 549 333 l 563 333 l 582 344 l 584 340 l 582 333 l 588 329 z m 311 36 q 307 63 299 68 l 299 72 l 295 76 l 295 94 q 281 104 274 126 l 274 133 q 274 138 276 149 q 278 160 278 166 l 271 179 l 274 183 q 268 196 260 201 l 260 211 l 267 222 q 261 229 252 255 q 244 280 244 290 l 239 299 l 239 308 l 235 312 q 224 306 217 308 q 210 302 203 293 l 192 288 l 189 276 l 185 276 l 185 268 q 173 253 164 250 l 164 247 l 161 247 l 153 237 l 153 233 q 143 226 135 208 l 135 197 l 125 183 q 113 136 113 125 q 113 117 117 101 q 121 85 121 76 q 130 64 131 58 l 142 55 l 150 44 l 165 38 q 167 38 171 39 q 175 39 177 39 l 198 39 q 202 39 212 35 q 222 31 228 32 l 238 27 q 251 31 263 29 l 281 22 l 289 22 q 294 25 311 36 z m 302 -114 l 299 -114 l 285 -106 l 278 -106 l 274 -103 l 267 -103 l 263 -99 l 250 -99 l 246 -95 q 234 -92 210 -88 q 202 -88 185 -88 q 184 -88 178 -86 q 173 -84 171 -84 q 102 -84 81 -121 l 81 -125 l 70 -131 l 67 -145 q 77 -183 100 -203 l 111 -206 l 118 -212 q 118 -212 141 -212 q 157 -212 180 -220 l 200 -216 l 210 -209 l 217 -209 l 228 -199 l 252 -188 l 256 -181 q 268 -169 293 -148 q 301 -127 302 -114 z"},"_":{"x_min":0,"x_max":489,"ha":489,"o":"m 499 -143 l 489 -166 l 464 -157 l 433 -168 l 353 -172 l 297 -161 l 264 -167 l 194 -172 l 135 -178 l 51 -174 l 0 -166 l 6 -149 l 0 -130 l 88 -139 l 155 -133 l 347 -137 l 437 -135 l 470 -120 l 489 -130 z"},"v":{"x_min":0,"x_max":368,"ha":368,"o":"m 419 254 l 409 249 l 409 242 l 402 242 l 399 228 l 393 224 l 389 228 l 389 234 l 380 232 l 376 228 l 365 228 l 362 221 q 349 214 336 198 q 323 183 314 177 l 314 167 q 308 160 304 150 l 301 150 l 297 140 l 291 133 l 288 123 q 271 107 264 100 q 253 86 250 71 l 240 62 q 239 58 226 24 l 223 24 l 223 18 l 219 18 l 219 11 q 219 10 207 1 l 207 -3 l 203 -3 l 196 -6 l 193 -20 l 186 -26 q 176 -21 159 -23 l 156 -29 l 154 -26 q 128 -14 120 19 l 121 32 l 113 37 q 110 45 106 62 q 95 132 98 153 l 91 174 l 87 174 l 87 180 q 83 195 73 208 l 54 197 q 50 197 42 196 q 33 196 29 196 q 28 196 14 199 q -1 203 -4 204 l -8 213 l -1 224 q 16 228 51 235 q 60 241 80 251 l 84 258 l 84 269 l 81 275 l 81 286 l 92 293 l 99 293 l 103 297 l 123 303 q 139 302 154 293 q 155 285 164 274 q 164 262 159 249 l 166 234 l 161 216 q 177 145 177 140 q 177 134 169 103 q 176 93 186 82 l 189 75 l 193 75 l 193 65 l 199 62 l 203 62 l 209 68 l 209 75 l 216 85 l 216 92 l 219 96 l 219 100 l 234 122 l 245 127 l 245 131 l 249 131 q 267 147 270 157 l 274 160 l 281 174 l 291 180 l 291 184 l 293 184 q 296 203 304 211 l 318 217 q 330 233 331 245 l 345 249 l 349 254 l 352 254 q 358 267 365 279 q 383 282 386 282 q 389 282 409 279 l 409 275 l 419 261 z"},"O":{"x_min":0,"x_max":791,"ha":791,"o":"m 809 350 l 806 350 l 799 335 q 782 331 773 317 l 770 299 l 763 292 l 770 276 l 759 239 l 756 239 l 730 207 q 727 184 701 144 q 675 102 656 93 l 652 85 l 648 85 q 640 74 620 67 l 602 67 l 581 54 l 577 43 l 563 28 q 523 11 513 0 l 502 0 l 495 -7 q 487 -5 477 -8 q 468 -12 459 -15 q 432 -19 377 -35 q 337 -29 316 -10 l 299 -12 q 281 -4 249 18 q 231 19 203 35 l 203 39 q 185 54 174 78 l 174 85 l 170 85 q 165 104 157 116 q 158 132 114 186 l 110 200 l 95 217 q 94 223 88 262 q 82 295 82 303 q 82 348 99 393 l 110 403 l 131 453 q 116 462 88 464 l 84 475 l 73 481 l 63 496 l 63 503 l 56 510 l 56 532 l 63 542 l 63 549 l 73 560 l 81 560 l 92 571 l 121 582 l 145 582 l 160 571 l 160 557 l 153 553 l 145 514 l 149 507 l 153 507 l 153 499 l 170 496 q 188 516 218 547 q 296 622 402 653 q 475 674 491 674 q 502 674 531 670 q 556 667 570 667 l 570 660 l 584 660 q 610 646 626 627 l 630 614 l 641 599 l 641 596 l 637 564 l 630 560 q 626 548 624 542 q 598 517 584 510 l 581 496 q 555 485 524 488 l 513 499 l 502 499 l 502 503 l 491 503 l 484 514 l 480 514 l 474 525 l 466 525 l 455 532 l 441 525 l 431 525 l 431 521 l 420 517 l 395 521 l 363 510 l 355 514 l 355 528 q 344 523 291 496 q 246 472 231 471 l 231 467 l 203 453 l 203 438 l 195 436 q 197 405 184 386 l 184 364 l 188 360 q 173 328 177 303 l 184 296 l 188 296 q 190 293 199 289 l 206 271 l 220 260 l 224 246 l 220 232 l 199 210 l 199 204 l 220 186 q 222 182 234 161 q 232 150 242 124 q 251 99 259 89 l 292 67 l 324 67 l 331 64 l 331 57 l 345 57 l 353 53 l 355 46 q 378 43 423 37 l 435 43 q 445 42 485 48 q 524 55 535 61 q 535 61 564 79 q 582 90 598 93 l 624 115 l 645 122 l 663 136 l 663 143 l 669 150 l 669 189 q 677 195 685 208 q 692 221 698 225 l 702 239 l 712 246 l 712 267 l 706 267 q 714 296 714 336 q 709 352 707 357 l 712 377 q 706 397 706 436 l 673 467 q 669 486 656 496 l 652 528 q 658 542 676 553 l 695 553 l 717 542 l 734 517 l 734 510 l 748 475 q 747 461 750 436 q 753 410 752 396 l 764 390 l 777 403 q 794 396 806 382 q 806 380 805 376 q 805 372 805 370 q 805 373 809 350 z m 587 599 l 574 614 q 557 621 533 623 q 492 627 491 627 l 480 618 l 452 614 l 441 618 l 413 614 q 403 616 398 621 l 370 607 l 366 607 q 366 606 335 582 l 324 582 q 267 553 245 525 l 249 517 l 245 514 l 252 510 q 291 530 342 549 l 345 553 q 351 554 384 563 q 415 571 416 571 q 442 571 459 568 q 468 566 501 556 q 526 548 543 548 q 549 548 555 549 l 574 557 q 587 581 587 599 z"},"(":{"x_min":0,"x_max":392,"ha":392,"o":"m 629 773 l 625 766 l 626 759 q 618 756 606 748 l 585 743 l 551 713 l 531 713 l 491 683 l 485 683 l 476 673 l 476 663 l 481 659 l 481 653 l 461 626 l 446 618 l 437 618 l 437 613 l 412 604 l 402 574 q 392 557 376 534 q 354 524 337 503 l 327 503 l 327 498 l 321 498 l 306 453 l 282 423 l 282 407 l 287 403 l 291 403 l 291 383 q 291 371 281 351 q 268 325 266 318 l 256 318 l 256 289 l 251 283 l 248 263 l 217 238 l 227 228 l 227 213 l 232 213 l 232 188 q 221 156 202 143 l 197 113 l 211 104 l 211 73 l 207 63 l 207 19 q 207 11 211 -16 l 217 -16 l 217 -42 l 221 -52 l 221 -76 l 227 -81 l 242 -81 l 242 -91 l 251 -91 l 272 -112 l 272 -131 l 261 -142 l 236 -142 l 232 -136 l 221 -136 l 211 -131 l 202 -131 l 197 -127 l 191 -127 q 183 -78 163 -61 l 163 -36 q 163 -44 167 -1 l 163 13 l 147 23 l 147 69 l 142 73 l 142 104 l 152 119 l 152 125 l 163 133 q 169 147 167 183 l 157 194 l 157 218 l 147 234 q 159 267 157 279 l 172 293 l 172 303 l 187 310 q 200 325 211 328 q 214 333 221 344 l 221 358 l 227 364 l 227 373 l 211 389 l 211 407 l 217 419 l 227 423 l 227 453 l 232 458 l 236 478 q 252 502 282 513 l 282 543 l 296 558 l 312 558 l 312 568 q 322 588 337 604 l 346 604 l 366 618 l 382 618 q 382 618 387 643 q 393 649 402 653 l 402 663 l 451 713 l 467 713 q 473 722 490 731 q 506 741 512 748 l 522 748 l 531 763 l 531 777 q 533 778 556 785 q 571 790 582 790 q 583 790 626 787 z"},"C":{"x_min":0,"x_max":775,"ha":775,"o":"m 843 604 l 836 593 q 823 584 799 575 q 771 563 761 558 l 714 554 l 689 565 q 628 565 628 565 q 621 567 607 569 q 590 568 557 569 q 552 569 540 573 q 528 576 522 576 q 465 576 454 565 l 450 558 l 429 554 l 415 537 l 400 530 q 399 521 392 506 q 385 492 384 484 l 386 473 l 376 466 l 370 446 l 354 432 l 357 424 l 354 413 l 343 406 l 340 399 l 342 388 l 333 379 l 330 361 l 333 354 l 330 344 l 333 340 l 333 329 l 341 322 l 343 298 l 331 278 l 340 254 l 333 248 l 340 244 l 336 240 l 336 215 q 345 205 352 188 q 361 164 364 159 l 379 148 l 396 118 q 424 91 450 82 l 466 57 l 496 48 l 511 37 q 517 37 540 35 q 557 33 568 33 q 579 36 583 37 l 589 48 l 609 53 q 625 66 658 92 l 669 112 l 671 135 q 677 143 687 161 l 682 172 l 696 190 l 693 205 q 669 216 646 219 l 628 211 l 617 190 l 596 183 l 579 211 l 557 219 l 554 233 l 557 250 l 572 258 q 595 261 596 261 q 589 261 661 254 l 667 244 l 710 233 q 729 214 736 179 q 726 119 717 104 q 710 93 679 70 q 652 49 644 23 q 627 12 611 -6 l 572 -13 l 557 -10 l 550 -17 l 543 -10 l 507 -6 l 500 1 l 489 1 l 485 9 q 477 13 445 18 q 418 22 397 35 l 386 49 q 373 55 343 64 l 333 76 l 322 76 l 308 90 l 296 94 l 296 98 l 279 109 l 261 137 l 261 148 q 261 151 264 166 l 258 176 q 261 187 251 208 l 248 211 l 254 222 l 254 229 l 240 248 l 236 265 l 240 276 l 231 283 l 231 290 q 235 307 238 312 l 245 319 l 234 330 q 241 343 241 388 q 254 410 272 458 l 283 465 q 290 487 308 503 q 365 554 379 561 q 379 561 422 583 l 425 590 l 422 593 q 411 598 394 597 q 355 595 365 595 q 355 595 336 597 l 333 593 q 313 604 279 604 q 264 598 222 586 l 208 576 l 183 576 q 172 578 168 580 l 154 569 q 165 555 183 543 l 197 522 q 201 486 201 476 l 194 465 l 179 461 l 165 469 l 168 490 l 154 508 l 136 508 l 123 500 l 108 504 l 90 519 l 90 522 l 79 526 l 68 541 l 79 569 q 86 577 108 585 q 129 592 140 590 l 144 601 l 154 597 q 189 607 197 615 q 305 631 336 631 q 385 631 418 622 l 436 625 l 465 615 l 479 615 l 485 611 l 500 611 l 533 629 l 533 632 q 554 640 593 651 q 615 652 657 658 l 665 665 l 678 665 q 680 665 690 661 q 701 658 704 658 q 712 658 729 658 q 741 654 765 647 l 775 647 l 793 640 q 815 642 828 636 q 838 626 843 604 z m 811 611 l 804 622 l 782 629 q 716 622 729 622 q 712 622 682 627 q 652 632 636 632 q 635 632 605 626 q 574 619 572 619 l 568 611 l 579 602 q 594 595 625 595 q 649 595 674 595 q 702 593 718 583 q 737 585 768 594 q 804 604 811 611 z"},"W":{"x_min":0,"x_max":1056,"ha":1056,"o":"m 1254 586 q 1244 574 1230 533 q 1217 493 1193 469 l 1190 454 l 1154 419 l 1141 415 l 1115 419 l 1083 408 l 1062 412 q 1047 420 1037 437 l 1026 440 l 1015 451 q 1017 466 1013 484 q 1018 491 1026 515 q 1034 539 1033 544 l 1054 562 l 1090 573 l 1108 565 l 1115 547 l 1112 526 l 1104 515 l 1097 490 l 1090 486 l 1080 486 l 1076 497 l 1065 501 l 1054 490 l 1054 483 l 1051 479 l 1047 465 l 1051 458 l 1076 440 q 1095 441 1134 447 l 1151 458 q 1178 489 1193 534 l 1193 541 l 1212 583 l 1212 597 q 1212 602 1204 633 l 1190 651 l 1162 651 q 1149 644 1072 617 q 1054 596 1023 576 l 1019 562 l 991 534 l 991 530 l 976 515 l 969 497 l 955 493 l 948 486 q 940 471 930 440 q 919 433 904 407 q 889 382 876 373 l 869 354 l 858 352 l 854 344 l 841 333 q 839 321 829 308 q 812 288 812 287 q 783 241 775 206 l 752 191 l 752 172 l 744 163 l 730 155 l 727 144 l 698 126 l 691 113 l 691 91 l 672 69 l 672 52 l 666 48 l 666 41 l 651 30 l 648 -2 l 644 -9 l 616 -23 l 583 -23 q 574 -21 573 -20 l 573 9 q 578 26 583 48 l 590 52 q 588 60 601 94 l 616 109 q 617 110 626 185 l 620 188 q 623 197 630 214 l 626 236 l 633 249 l 637 324 l 641 328 l 630 362 l 633 394 l 630 394 q 631 399 626 412 q 616 404 583 358 l 583 352 l 587 348 q 562 310 562 291 l 551 276 l 551 273 q 537 246 501 215 l 498 205 l 477 191 l 462 159 l 451 155 l 438 130 l 423 123 q 413 96 384 72 l 370 16 q 359 -2 345 -9 l 345 -13 l 334 -23 l 334 -27 l 312 -41 l 288 -45 q 283 -42 277 -34 l 273 -17 l 291 -2 l 294 5 l 305 12 l 316 33 l 310 41 l 312 55 l 310 72 l 301 80 l 301 83 l 308 116 l 331 147 q 335 171 334 183 q 339 191 352 205 l 352 212 l 361 239 q 359 263 369 302 l 365 324 l 369 342 l 365 342 l 365 367 q 376 379 384 415 q 390 444 390 467 q 390 470 388 478 q 387 485 387 488 q 387 489 390 542 l 394 542 l 397 552 l 411 563 l 419 588 l 415 599 q 386 584 372 584 l 369 582 l 351 578 l 312 552 l 269 545 q 255 532 226 516 q 190 497 179 488 l 179 484 l 166 474 q 152 455 133 413 l 119 399 l 123 385 l 116 374 l 116 353 q 116 352 123 317 l 144 320 q 159 338 190 346 l 190 353 l 205 370 l 209 396 q 204 420 205 431 l 215 441 q 228 443 237 449 l 237 452 l 250 456 l 250 460 q 264 462 290 467 l 300 452 l 304 452 l 304 435 l 293 413 l 283 406 l 276 389 l 272 389 l 265 374 l 258 370 q 248 345 229 331 l 229 328 q 180 297 159 299 l 148 292 q 137 286 119 289 l 89 306 q 83 326 83 389 q 85 398 87 399 l 90 399 q 95 410 94 417 l 98 417 l 105 435 q 120 444 140 497 q 150 504 179 529 q 187 530 197 533 q 204 538 218 546 q 225 550 240 555 q 254 560 261 563 l 272 578 l 279 582 q 293 582 320 592 q 346 603 361 602 q 381 614 436 634 q 440 642 463 653 l 486 649 q 500 640 515 621 q 510 591 505 571 q 500 557 496 543 q 491 527 491 514 l 494 510 q 491 505 488 486 q 484 468 476 457 l 475 429 l 467 425 q 464 390 464 390 q 464 389 465 382 q 467 376 467 375 q 460 365 458 344 q 453 312 452 311 l 455 303 l 452 299 q 451 284 454 265 q 432 174 432 173 q 452 190 455 202 l 459 205 l 459 208 l 477 230 l 480 244 l 498 265 l 509 269 l 516 291 q 525 299 535 316 q 547 339 551 344 l 551 352 q 558 354 572 380 q 584 404 587 415 q 599 423 624 454 q 648 483 655 497 q 661 514 672 545 l 679 548 l 690 620 q 707 626 733 624 l 744 606 l 755 598 l 766 602 l 772 609 q 792 611 801 620 l 815 620 l 825 602 l 825 587 l 794 581 l 794 578 l 790 578 l 747 548 l 711 486 l 711 458 l 720 443 l 720 440 l 727 423 l 727 384 l 730 384 l 730 369 q 730 363 728 349 q 726 335 726 329 q 726 321 730 287 q 729 276 726 256 l 723 251 l 716 215 l 744 230 q 750 250 771 274 q 788 295 805 315 l 809 319 l 812 330 l 830 348 l 833 369 q 857 381 937 508 l 937 515 q 942 521 972 551 q 982 560 999 579 q 1007 595 1031 625 l 1054 631 l 1073 647 q 1093 651 1134 662 q 1149 670 1183 681 q 1203 677 1215 679 q 1227 678 1247 658 l 1254 640 z"},"A":{"x_min":0,"x_max":844,"ha":844,"o":"m 959 666 q 949 650 938 629 q 904 611 866 605 l 853 594 l 855 587 l 853 587 l 853 577 q 845 561 810 519 l 810 505 q 797 499 773 487 l 767 479 l 763 458 l 767 458 l 771 438 q 764 414 756 395 l 745 388 l 728 341 l 738 334 l 781 334 q 812 343 823 348 l 829 362 l 823 377 l 816 380 l 813 395 l 855 405 l 873 398 l 892 380 l 892 358 q 888 344 888 345 l 863 341 l 855 334 l 849 319 q 726 296 692 280 l 684 262 q 687 251 695 237 l 684 223 l 681 167 q 664 151 667 137 q 645 104 645 54 l 645 41 l 649 37 l 645 30 l 649 26 l 652 2 q 667 7 702 29 q 734 48 753 52 q 753 53 795 84 l 795 87 l 803 95 l 810 117 l 823 134 l 838 130 l 853 141 l 873 120 q 873 103 863 87 l 834 87 l 816 69 l 810 66 l 803 48 q 788 39 760 20 q 722 -8 681 -30 l 681 -34 q 655 -34 627 -48 l 591 -36 l 571 -20 l 567 17 q 552 23 532 37 l 532 52 l 524 66 q 535 141 574 163 l 578 169 q 578 198 595 212 l 588 230 l 595 262 l 621 284 l 621 301 l 610 309 q 583 313 555 318 q 523 324 502 334 l 491 334 q 473 313 450 277 q 417 225 413 219 q 405 210 392 191 q 387 189 339 141 l 339 134 l 328 127 l 321 113 l 302 98 l 295 98 q 279 71 242 48 q 230 44 213 34 q 197 32 178 20 l 167 6 l 142 -9 l 107 -2 q 92 11 70 20 l 67 23 l 31 37 l 31 56 l 24 62 q 22 76 22 82 q 22 119 57 187 l 70 195 l 85 212 l 85 227 l 110 248 l 114 248 l 131 266 l 142 269 l 146 277 q 164 286 200 305 l 213 301 q 241 263 241 221 q 241 213 239 198 l 231 187 l 228 159 l 220 148 l 200 145 l 189 156 l 181 184 l 164 191 q 166 201 166 219 q 166 232 161 251 l 146 248 l 114 223 l 107 212 l 107 198 l 92 191 l 92 173 q 81 165 70 146 q 62 132 53 117 l 50 95 l 63 56 l 85 37 l 125 26 q 138 36 167 52 l 167 56 q 203 71 263 127 q 271 136 289 152 q 297 156 315 167 q 328 174 378 227 l 385 245 l 399 255 l 417 294 l 435 305 q 441 320 456 338 l 452 345 l 417 345 q 406 334 379 329 q 350 322 340 315 l 339 297 l 346 294 l 378 294 l 385 284 l 381 277 q 362 276 324 269 l 311 273 q 299 286 292 288 l 292 297 l 299 305 l 295 316 l 302 334 l 302 345 q 314 350 335 348 l 346 355 l 360 355 l 399 373 q 405 373 426 371 q 442 369 452 369 q 457 369 465 371 q 475 373 478 373 l 495 401 l 513 412 l 542 458 q 559 463 587 489 q 629 525 631 527 q 659 547 699 562 l 706 562 l 738 583 l 756 583 l 792 601 l 806 601 l 810 612 l 827 616 l 834 623 l 792 616 q 778 621 751 619 l 717 619 l 692 609 l 677 609 q 651 609 602 622 q 553 634 527 634 q 518 634 502 634 q 486 633 478 633 l 474 626 q 460 622 439 605 q 418 588 406 583 l 363 587 l 350 580 l 346 569 l 342 569 l 335 551 l 328 551 q 313 551 290 546 q 259 539 252 538 q 235 543 200 551 l 192 562 l 189 562 q 183 595 183 613 q 183 631 196 659 l 217 662 l 220 672 q 232 680 265 687 q 296 694 313 694 q 357 694 432 676 l 441 669 l 478 669 l 488 676 q 497 696 510 705 l 510 708 l 521 708 l 539 716 l 545 727 l 560 727 q 569 735 588 740 q 609 747 617 751 l 617 755 q 626 760 640 759 l 649 759 l 660 751 l 667 733 l 663 723 l 645 711 q 620 720 618 720 q 600 720 570 706 q 547 694 524 683 l 506 666 l 510 662 q 535 666 532 666 q 535 666 573 658 q 657 640 692 640 q 696 640 704 642 q 714 644 717 644 q 708 643 746 643 q 753 643 762 646 q 773 650 777 651 q 777 651 809 651 q 820 651 879 660 q 940 669 949 672 l 959 669 z m 781 562 q 763 562 724 538 l 712 538 q 676 522 656 501 q 619 491 610 469 l 599 466 l 599 458 q 581 451 561 423 q 540 393 524 384 l 521 373 q 572 369 599 351 l 634 348 l 652 373 l 684 388 l 692 398 q 691 401 691 408 q 691 431 703 466 q 717 483 749 512 q 750 521 763 537 q 778 556 781 562 z m 424 648 l 421 655 l 378 659 l 367 666 l 317 666 q 275 666 242 651 q 231 646 213 623 l 207 619 l 203 609 l 213 590 l 217 587 l 220 580 q 238 577 239 577 q 245 577 260 579 q 273 580 281 580 l 285 587 q 328 596 350 609 q 355 614 367 623 q 389 628 424 648 z"},"f":{"x_min":0,"x_max":311,"ha":311,"o":"m 513 483 l 509 473 q 491 462 474 440 l 459 440 q 443 448 441 451 l 438 451 l 435 466 l 441 473 l 441 498 l 431 512 l 427 512 l 427 520 q 422 524 411 529 q 399 534 395 538 q 378 535 345 527 q 327 509 316 512 l 313 509 l 305 483 l 310 470 l 305 455 l 294 448 l 292 434 l 277 427 q 279 415 274 405 l 270 401 l 270 388 q 265 384 259 373 l 259 362 l 255 362 q 256 346 249 316 l 238 312 q 232 300 224 294 l 217 270 q 231 271 256 268 q 284 263 295 263 q 312 268 317 271 l 317 274 l 321 274 l 324 281 l 342 288 l 353 281 l 356 274 l 353 263 l 342 260 l 329 247 q 309 245 281 236 q 249 249 220 246 l 213 239 l 209 230 l 209 220 l 213 212 q 208 197 209 177 l 203 167 l 203 156 l 199 152 l 199 141 l 192 130 l 192 127 l 188 127 l 188 124 l 184 124 l 177 91 q 158 62 160 49 l 156 49 l 156 45 l 153 45 q 148 41 145 15 q 141 -9 142 -20 l 138 -22 l 138 -26 q 132 -33 124 -48 l 121 -48 l 117 -59 l 110 -62 l 114 -80 l 106 -98 l 92 -109 l 92 -112 q 84 -124 73 -133 l 66 -159 l 60 -159 q 53 -182 44 -196 q 31 -214 27 -222 q 20 -228 3 -237 l 3 -241 q -10 -254 -29 -269 l -33 -276 l -37 -276 l -40 -280 l -47 -283 l -47 -287 l -83 -293 l -98 -291 q -122 -297 -129 -297 q -127 -297 -151 -293 l -151 -291 l -166 -283 l -168 -276 l -176 -272 l -172 -251 l -176 -244 l -183 -244 q -179 -238 -176 -222 q -168 -215 -162 -198 l -148 -187 l -144 -187 q -140 -212 -140 -244 q -143 -255 -144 -258 l -137 -262 l -79 -265 l -72 -262 l -65 -251 q -61 -250 -51 -244 l -47 -237 l -37 -230 l -33 -222 l -22 -215 l -22 -212 l 3 -194 l 13 -172 l 17 -169 l 17 -162 q 23 -150 31 -127 q 40 -101 38 -91 l 42 -91 l 45 -87 l 45 -62 l 53 -48 q 51 -40 56 -31 q 64 -25 66 -19 q 64 -7 64 0 q 64 17 89 77 l 93 77 l 89 102 l 95 110 l 103 113 l 103 124 l 114 138 q 114 154 128 186 q 138 209 149 234 l 153 234 l 153 241 q 133 247 103 245 l 84 238 q 69 242 53 241 l 38 234 l 21 241 l 21 245 l 17 249 q 21 253 31 255 l 38 262 q 43 261 66 270 q 81 264 110 264 q 144 264 160 277 l 167 277 l 170 280 l 173 287 q 177 304 188 338 q 192 345 199 358 q 200 368 203 387 q 208 409 216 440 l 216 444 l 230 458 l 236 474 l 249 487 q 247 496 255 520 l 259 523 q 268 523 273 524 l 277 531 q 306 533 320 544 l 327 555 l 345 559 l 349 562 q 384 568 402 568 q 407 568 420 566 q 431 565 438 566 l 438 559 q 452 555 470 544 l 470 542 l 474 542 l 474 534 q 493 522 505 501 l 509 487 z"},"Q":{"x_min":0,"x_max":950,"ha":950,"o":"m 1265 -114 l 1251 -142 q 1245 -145 1197 -181 q 1170 -192 1151 -192 l 1101 -178 q 1090 -168 1054 -153 q 1036 -146 1019 -139 q 991 -134 980 -135 l 976 -146 l 955 -146 q 944 -152 922 -164 q 884 -174 812 -196 q 777 -210 716 -231 q 690 -234 666 -238 q 633 -244 620 -256 q 615 -255 608 -255 q 581 -255 534 -274 q 523 -280 501 -292 q 467 -306 396 -306 l 357 -296 q 336 -294 296 -286 q 265 -276 229 -250 q 211 -213 202 -196 l 209 -164 l 234 -150 l 245 -131 l 259 -128 l 262 -118 q 268 -113 288 -110 q 292 -106 294 -100 l 327 -100 q 347 -105 352 -107 l 359 -125 q 402 -162 402 -204 q 402 -209 401 -213 l 388 -217 l 377 -213 l 370 -203 l 352 -189 q 350 -183 337 -160 l 317 -148 l 291 -148 l 276 -163 l 262 -164 l 255 -167 q 254 -173 238 -189 l 244 -215 l 276 -242 q 290 -246 316 -252 q 333 -252 370 -260 l 405 -252 l 416 -256 q 444 -249 501 -235 q 520 -235 555 -228 l 555 -224 q 565 -222 570 -217 q 625 -197 676 -200 q 691 -193 701 -185 l 701 -178 q 717 -173 748 -164 q 756 -163 772 -161 q 784 -155 809 -146 q 842 -138 908 -121 q 916 -120 930 -118 l 930 -110 l 958 -107 l 952 -85 l 912 -74 l 901 -60 l 872 -46 q 836 -7 802 15 l 796 35 l 778 47 l 772 61 l 762 57 q 753 46 727 28 l 708 32 q 678 19 652 15 l 623 25 l 590 15 q 564 17 539 19 q 522 21 487 35 q 466 63 444 82 l 420 89 l 405 104 l 384 111 l 370 128 l 362 128 l 355 161 l 344 165 l 347 186 l 335 206 q 333 232 341 250 l 334 278 l 330 282 q 330 356 353 396 q 363 410 380 438 l 395 442 l 398 449 l 399 458 l 414 470 q 417 492 416 496 l 423 510 l 434 514 l 440 521 l 444 532 q 438 540 417 552 q 381 554 359 568 q 349 566 329 560 q 310 566 262 571 q 167 542 124 499 l 120 488 l 124 475 q 138 461 169 457 q 181 463 188 471 l 195 471 l 195 499 q 228 524 245 521 l 269 503 l 273 488 l 269 471 q 260 465 241 457 l 216 432 l 199 425 l 170 425 q 168 425 109 438 l 102 453 q 91 458 73 478 l 73 496 l 80 514 q 96 525 127 542 l 130 546 l 195 568 l 206 578 l 219 582 q 231 594 251 599 l 277 599 q 276 599 330 588 l 366 596 l 384 592 l 420 599 l 438 590 q 454 593 479 584 l 496 570 l 508 570 q 526 583 562 607 q 573 610 594 625 l 620 627 l 626 631 l 630 642 l 680 649 l 680 653 l 755 653 q 761 653 772 649 l 787 653 q 809 643 822 646 l 876 625 l 887 610 l 894 607 l 912 582 l 926 578 l 941 564 l 948 564 l 952 549 l 937 514 q 931 505 912 494 q 894 482 887 475 l 887 471 q 828 442 772 442 q 721 442 676 453 l 659 464 q 638 462 590 471 l 566 488 l 538 485 l 523 478 l 505 453 l 490 446 l 487 428 q 485 427 461 396 l 451 343 l 442 328 l 442 325 l 438 325 l 442 282 q 439 265 429 247 l 438 226 l 437 200 l 454 185 l 460 153 q 474 125 499 104 q 523 86 546 67 l 564 67 q 604 50 643 50 q 648 50 660 54 q 691 58 730 67 l 746 82 l 731 88 l 729 103 q 720 115 698 125 l 680 125 q 637 110 616 85 l 598 85 l 594 93 l 601 111 q 609 121 626 139 q 646 145 669 161 l 669 165 q 679 163 691 167 q 708 171 711 171 q 711 171 752 171 l 770 161 l 772 154 l 783 154 l 798 136 q 805 142 809 150 l 815 154 l 833 186 q 843 199 857 217 l 857 225 l 872 246 l 865 250 l 872 264 l 876 267 l 887 292 q 885 319 891 339 q 886 353 872 378 l 872 386 l 883 396 l 901 399 q 917 381 919 364 q 913 350 913 327 q 913 292 912 289 q 912 292 909 282 q 908 274 904 260 q 897 243 890 207 l 865 193 l 865 182 l 854 167 q 854 154 830 125 l 830 118 l 822 100 l 848 93 l 848 89 l 869 62 l 887 53 q 910 31 922 -9 q 948 -26 963 -53 l 962 -60 q 986 -60 1013 -80 q 1085 -44 1166 -33 q 1181 -41 1204 -38 l 1229 -53 l 1245 -54 q 1252 -72 1262 -85 z m 912 560 l 876 575 l 869 596 q 854 605 822 621 l 812 621 q 764 614 766 614 q 760 614 748 616 q 736 618 730 618 q 742 618 687 614 q 654 597 626 585 l 620 578 l 612 575 q 606 569 595 558 q 584 546 579 541 l 590 523 q 605 517 659 503 l 683 485 l 711 488 l 730 481 q 734 482 739 482 q 749 482 769 476 q 789 470 799 470 q 804 470 809 471 q 869 504 872 506 q 908 531 912 560 z m 1232 -103 l 1226 -85 l 1192 -67 l 1151 -64 q 1128 -74 1106 -83 q 1080 -94 1063 -107 q 1065 -108 1104 -133 q 1135 -153 1141 -153 l 1169 -153 q 1190 -143 1226 -118 z"},"w":{"x_min":0,"x_max":504,"ha":504,"o":"m 544 281 l 541 263 l 538 263 q 533 240 534 238 l 527 238 l 523 231 l 516 227 l 501 227 l 494 234 l 491 257 l 477 259 l 477 255 l 462 242 q 458 232 448 216 q 436 202 412 173 q 409 166 401 153 l 401 149 q 395 140 380 124 l 380 121 l 377 121 l 373 110 l 362 103 l 355 92 q 353 70 349 62 l 330 56 q 332 40 332 31 q 332 19 327 6 l 320 -1 l 320 -8 l 301 -16 l 298 -16 l 273 -5 l 273 10 q 256 47 259 60 l 251 66 l 245 92 l 241 95 l 238 95 l 223 88 l 219 81 l 212 77 l 212 73 l 199 66 q 191 56 177 34 l 177 27 l 169 21 l 167 21 l 167 10 l 152 -8 l 152 -12 l 149 -16 l 141 -16 l 138 -19 l 113 -22 l 91 -16 q 76 2 73 13 l 69 13 l 69 23 l 73 31 l 84 38 q 86 83 84 95 q 90 105 94 121 l 105 134 q 111 156 113 167 l 123 177 l 122 184 l 125 199 l 134 209 l 127 216 l 120 216 q 108 213 109 213 l 106 209 l 106 206 q 87 201 80 192 q 78 192 75 192 q 67 192 52 187 q 36 181 31 181 q 29 181 27 181 l 23 188 l 27 195 l 27 203 l 49 209 l 59 220 l 62 220 l 66 227 q 87 240 113 242 l 113 245 l 124 252 l 124 255 l 130 255 l 141 277 l 163 277 l 177 284 l 184 284 l 199 270 l 202 270 l 209 249 l 206 245 l 206 242 l 203 238 l 195 238 l 188 231 l 188 227 l 180 213 l 180 209 q 172 198 162 132 q 168 105 167 97 l 175 93 q 201 107 205 109 q 220 119 230 131 l 230 134 l 234 134 l 241 149 q 241 176 251 213 l 262 231 l 266 277 l 280 281 q 287 289 305 294 l 312 302 l 333 301 l 349 293 l 354 286 l 355 259 q 332 249 320 227 l 320 216 l 316 213 q 318 202 314 188 l 320 169 l 315 154 q 326 126 325 122 l 334 127 l 341 124 l 355 134 l 366 160 q 380 171 386 184 q 396 203 398 206 l 401 206 l 409 209 l 416 227 l 423 231 l 427 245 l 448 252 l 448 255 q 462 273 462 288 q 479 316 509 324 l 520 324 l 534 313 z"},"-":{"x_min":0,"x_max":301,"ha":301,"o":"m 252 164 l 250 141 l 247 135 l 236 135 l 225 141 l 214 141 l 211 135 l 190 128 l 183 122 q 166 129 158 135 l 143 135 l 136 128 l 123 128 l 119 122 q 108 125 93 128 l 68 128 l 62 122 l 54 122 l 47 135 l 59 149 l 49 164 q 49 164 53 175 l 92 167 l 95 164 l 121 156 l 121 164 l 142 164 l 149 167 q 150 167 151 167 q 153 167 154 167 q 155 167 159 167 q 162 167 164 167 l 170 164 l 181 164 l 192 175 q 224 178 224 178 q 225 178 249 175 l 249 167 z"},"E":{"x_min":0,"x_max":752,"ha":752,"o":"m 788 588 q 782 565 773 525 l 767 521 l 767 517 l 760 517 q 749 520 745 521 q 737 536 731 549 l 724 549 q 704 540 674 538 q 686 539 624 539 q 612 536 613 536 l 610 528 q 604 528 590 528 q 577 529 571 529 q 532 529 542 528 q 531 531 510 536 q 471 543 446 546 l 428 539 l 424 539 l 428 528 q 424 512 417 502 l 417 499 q 429 464 429 457 q 429 453 428 449 l 413 438 q 413 439 405 403 l 409 396 q 446 382 488 382 q 486 382 510 386 l 521 393 l 552 399 l 567 396 l 584 399 l 602 396 l 613 410 l 642 406 q 642 401 643 392 q 645 382 645 378 q 645 377 642 356 q 607 331 592 314 l 606 299 q 608 297 613 243 l 599 243 q 587 251 567 271 l 567 278 l 545 292 l 542 303 l 535 311 l 532 321 l 521 332 q 518 333 452 350 l 445 360 l 424 364 l 410 360 l 402 354 l 392 350 l 392 339 l 385 328 q 383 304 377 274 q 374 264 369 243 l 365 243 l 367 228 l 354 208 q 353 190 336 165 l 317 150 l 321 146 l 311 132 l 313 125 q 348 125 389 111 q 406 104 424 96 q 442 89 463 89 l 471 82 l 484 82 q 521 65 535 35 l 567 28 q 582 11 599 7 l 606 24 l 621 32 l 642 32 l 663 46 q 677 62 677 82 l 688 82 l 699 93 l 717 93 l 734 78 l 734 61 l 728 46 q 713 41 677 32 l 663 21 l 656 7 l 642 0 l 631 0 q 610 -20 592 -28 l 571 -28 l 563 -18 l 535 -15 q 529 -10 474 4 l 460 14 q 419 16 402 24 l 389 43 q 375 45 350 54 l 350 57 q 346 56 311 67 l 285 93 q 279 82 281 71 l 278 67 l 274 53 q 274 53 250 28 q 247 24 242 18 q 222 0 203 -4 q 193 -7 159 -7 q 154 -7 144 -5 q 133 -4 128 -4 q 119 -4 100 -6 q 80 -9 70 -9 q 42 -9 35 0 l 24 14 l 24 21 q 29 40 42 67 l 60 74 l 63 78 q 80 82 104 97 q 120 107 161 107 q 161 107 196 104 l 196 107 l 219 107 l 234 135 l 235 150 l 250 163 q 251 180 259 193 q 259 196 268 238 q 276 278 278 285 q 283 293 292 311 q 298 323 306 336 q 314 353 313 364 l 302 378 l 281 375 q 251 352 235 354 l 220 341 l 200 339 l 181 346 l 185 360 q 192 366 207 375 l 210 382 l 224 386 l 228 393 q 241 397 271 400 q 299 402 314 410 q 316 434 330 449 q 335 465 332 479 l 339 488 l 335 510 l 346 517 l 346 525 q 350 529 365 533 l 376 543 l 378 556 l 374 567 l 353 578 l 324 578 q 313 586 306 588 l 292 603 q 270 610 239 610 q 202 610 178 603 q 174 600 167 592 l 142 578 l 135 564 l 135 549 l 146 546 q 160 550 189 556 l 207 549 q 212 539 210 532 q 188 521 157 521 q 141 521 128 532 q 110 533 96 542 l 100 560 l 103 560 q 107 571 131 592 q 133 599 139 610 q 162 618 207 631 l 210 638 l 233 643 l 252 638 l 274 642 q 285 638 317 638 q 327 641 328 642 q 330 642 366 627 q 391 617 403 618 q 425 644 426 652 q 458 683 489 683 q 493 683 497 682 q 521 701 573 707 l 576 708 q 580 716 586 727 q 615 736 633 737 l 647 727 l 647 712 l 654 702 l 647 687 q 648 680 644 669 l 636 663 l 612 655 q 596 655 569 663 l 569 669 l 554 674 l 551 678 l 541 678 l 537 671 q 511 669 497 662 l 490 651 l 493 651 l 476 633 l 454 630 l 451 623 l 456 614 l 456 606 l 460 603 l 467 585 l 478 585 l 481 582 l 513 575 l 524 567 q 565 557 591 557 q 626 557 660 560 q 692 580 712 582 l 717 588 q 731 594 745 610 l 767 610 l 781 599 z m 596 359 l 594 370 l 576 376 q 559 373 542 365 q 556 353 567 348 l 582 349 z m 201 60 l 183 70 q 158 72 146 72 q 122 72 97 61 q 70 48 60 28 l 60 21 l 67 18 l 92 18 q 139 39 167 35 q 188 44 201 60 z"},"s":{"x_min":0,"x_max":315,"ha":315,"o":"m 330 220 l 327 210 l 318 199 l 301 201 l 292 209 l 288 224 l 291 244 l 280 254 q 272 259 244 259 q 239 259 231 257 q 221 250 215 247 l 208 235 q 212 221 212 211 l 217 203 q 237 190 255 165 q 275 136 275 116 l 269 102 l 260 95 l 258 84 q 246 75 244 55 l 232 48 l 228 38 q 223 35 214 26 l 201 28 q 186 23 168 6 q 150 2 137 -9 q 116 -11 104 -11 q 109 -11 82 -6 q 63 -2 57 0 q 47 3 32 13 q 22 28 8 40 q 4 50 4 69 q 9 90 11 94 l 19 103 l 22 119 l 26 119 l 28 133 l 43 144 l 54 144 q 56 144 70 141 q 93 132 102 101 l 100 89 l 103 75 l 100 62 l 87 44 l 76 44 l 68 59 l 66 73 l 60 82 l 50 82 l 40 76 q 35 58 36 42 l 53 26 q 83 18 100 18 q 104 18 112 18 q 121 19 125 19 q 133 22 145 35 q 157 47 166 51 q 167 54 173 67 l 172 79 l 181 87 l 176 98 l 179 106 l 172 112 l 158 116 q 155 120 149 130 q 143 140 140 144 l 136 144 l 133 147 q 126 168 121 183 q 121 193 124 204 q 131 213 141 230 l 142 244 l 151 250 l 154 261 l 158 261 l 165 268 q 177 271 201 281 q 230 286 237 286 q 250 286 276 282 q 285 276 304 267 q 314 257 327 240 z"},">":{"x_min":0,"x_max":245,"ha":245,"o":"m 204 153 q 179 136 165 113 l 151 117 l 146 113 l 141 117 l 133 117 q 122 105 120 86 l 111 77 l 106 77 l 97 63 l 89 63 l 65 45 l 43 42 l 26 19 l 13 15 l 8 19 l 5 46 l 14 58 l 32 58 q 32 60 37 81 l 49 95 q 70 99 89 112 l 99 112 l 103 108 l 112 117 l 108 121 l 108 125 l 122 144 l 130 144 l 135 152 l 143 147 l 152 161 l 162 161 l 178 167 q 174 177 155 187 q 147 213 150 233 q 150 233 124 259 l 124 282 q 113 298 87 326 q 85 339 74 357 l 79 366 l 115 376 l 133 349 l 133 344 l 125 341 l 128 322 l 155 299 q 162 281 178 246 l 178 238 l 190 219 l 190 202 l 195 197 l 195 189 l 204 180 z"},"l":{"x_min":0,"x_max":238,"ha":238,"o":"m 394 536 l 387 532 l 365 532 q 355 535 355 535 q 345 535 328 527 q 309 519 300 517 q 293 503 279 487 q 279 483 279 476 q 280 468 280 464 q 273 448 261 436 l 258 396 l 250 386 l 250 360 q 235 348 231 335 l 232 320 q 224 301 226 292 q 215 278 210 267 q 209 258 203 229 q 197 204 198 200 q 188 192 182 189 l 187 178 l 179 171 q 176 166 171 148 l 162 136 q 159 107 159 107 l 151 93 q 151 60 126 43 l 112 39 q 100 28 79 11 q 59 3 40 0 q 29 6 9 4 l 1 7 l -17 25 l -17 39 l -2 50 l 5 50 l 12 43 l 29 35 q 39 40 50 51 q 61 62 68 65 q 71 74 76 91 q 76 110 83 146 l 87 146 l 87 154 l 94 167 l 94 186 l 105 200 q 114 247 133 264 q 134 275 154 336 q 155 346 160 364 q 170 379 186 411 l 183 425 l 187 442 l 201 446 l 205 453 l 205 467 l 211 471 l 222 496 q 234 510 259 533 l 271 532 l 280 542 l 287 542 q 296 553 321 559 q 350 566 358 571 q 375 567 383 568 l 394 553 z"},"8":{"x_min":0,"x_max":367,"ha":367,"o":"m 327 127 l 323 118 l 323 114 l 313 103 l 313 96 q 310 93 298 74 l 292 70 q 287 56 288 53 l 273 42 l 273 35 l 255 24 l 255 21 l 242 17 l 238 14 l 231 -4 q 224 -5 203 -19 q 195 -21 191 -21 q 187 -21 179 -19 q 171 -18 167 -18 q 163 -18 153 -19 q 144 -21 139 -21 q 132 -21 121 -19 l 117 -8 l 102 -1 l 99 10 q 92 15 81 17 q 71 33 73 46 q 70 48 62 63 l 62 70 q 43 85 27 103 l 17 138 q 19 151 23 177 l 34 192 q 54 199 58 202 q 69 208 77 217 l 81 217 q 94 227 113 227 q 120 237 142 246 l 149 256 q 137 272 134 298 q 125 306 110 320 l 110 324 q 107 331 99 342 l 99 359 q 108 362 121 378 q 135 382 145 381 l 149 389 l 153 389 q 166 401 181 409 l 184 417 q 214 428 220 438 l 231 441 l 270 435 l 273 431 l 284 428 l 288 420 l 302 417 q 306 402 305 398 l 323 381 l 323 367 l 327 363 l 327 346 q 327 340 323 328 l 313 313 l 294 306 l 292 298 l 273 285 l 273 281 l 266 281 l 232 258 l 232 248 l 242 231 q 275 223 279 223 q 296 214 313 196 l 316 188 l 320 185 q 332 165 327 127 z m 277 338 l 277 349 q 262 351 255 356 q 256 367 252 385 l 245 392 l 227 389 l 216 396 l 184 374 l 184 367 l 192 349 l 203 346 l 203 338 l 206 338 l 216 320 l 216 313 l 220 306 l 227 302 l 252 310 q 260 317 270 331 l 273 331 l 273 335 z m 266 121 l 262 138 q 254 144 252 153 q 237 159 227 160 q 224 162 220 167 l 220 170 l 209 174 q 207 187 192 207 l 188 207 q 183 215 173 231 l 145 224 l 131 209 l 129 201 q 125 200 113 196 q 95 171 98 154 q 104 146 117 131 l 125 111 l 122 94 q 125 74 138 35 l 138 21 l 149 14 l 167 17 l 170 14 l 203 21 q 206 25 215 31 q 224 38 227 42 l 238 46 l 252 66 q 255 75 259 94 q 264 112 266 121 z"},"\\":{"x_min":0,"x_max":382,"ha":382,"o":"m 341 -31 q 339 -33 336 -38 q 333 -42 331 -44 l 329 -53 l 323 -57 l 318 -53 l 300 -53 l 293 -48 l 288 -50 l 269 -48 l 264 -35 q 267 -15 272 25 q 261 57 249 75 l 253 93 l 250 93 l 249 98 q 249 107 261 123 l 261 135 q 246 145 242 158 q 242 178 247 217 l 231 225 l 230 229 l 226 234 l 224 273 l 217 273 l 211 291 l 208 291 q 203 302 205 320 l 197 333 l 194 333 l 192 338 l 192 351 q 195 364 198 372 l 205 380 l 208 410 l 204 419 q 204 423 204 432 q 205 440 205 444 q 205 464 192 483 l 196 495 q 175 552 175 568 q 175 574 176 581 l 172 581 l 170 585 l 172 593 l 164 607 q 161 625 161 627 q 161 635 163 647 q 165 662 166 667 l 158 684 l 159 697 l 182 709 l 196 709 l 212 697 l 213 692 l 211 687 l 219 687 l 217 679 l 220 679 l 220 675 l 224 675 l 223 663 l 227 650 l 226 640 l 237 620 q 236 616 234 606 q 232 595 232 590 q 232 586 234 577 q 236 568 236 564 q 236 556 235 542 q 235 526 235 521 l 242 504 q 233 486 236 474 q 246 466 250 461 l 256 444 l 265 439 l 268 410 q 259 386 259 374 q 259 354 264 331 q 281 312 286 278 q 280 266 285 247 l 278 221 l 283 213 l 280 205 l 285 196 l 283 179 l 298 174 l 306 158 q 304 134 304 122 q 304 118 305 112 q 305 105 305 102 q 311 88 323 62 q 323 47 327 37 l 331 37 l 337 3 l 333 -6 z"},"e":{"x_min":0,"x_max":303,"ha":303,"o":"m 292 202 l 288 198 l 287 187 l 291 177 l 287 166 l 289 151 q 276 125 264 116 q 263 116 257 114 q 250 113 250 113 q 249 113 228 116 l 221 120 q 209 118 169 126 q 128 133 114 139 l 102 133 q 100 131 92 107 q 84 84 84 82 q 84 78 84 69 q 85 61 85 57 l 100 26 q 113 21 116 21 q 117 21 119 22 q 120 22 122 22 l 151 20 q 162 22 176 31 q 194 42 200 45 l 207 46 q 218 54 224 66 l 245 72 l 249 62 q 246 49 198 1 q 182 -7 152 -9 q 120 -12 107 -17 l 85 -13 l 82 -10 l 64 -6 q 40 11 18 51 q 17 62 13 79 q 15 88 20 116 l 23 120 l 21 123 l 28 129 l 32 144 q 41 149 46 166 l 46 198 l 54 201 l 61 226 q 96 268 136 280 q 139 280 144 279 q 148 279 151 279 q 165 283 165 283 l 176 278 q 182 279 193 283 q 200 282 214 277 q 229 272 236 272 l 246 261 l 255 257 l 260 250 l 274 245 l 282 236 q 284 230 287 219 q 289 207 292 202 z m 236 190 l 232 194 q 232 211 231 220 q 225 232 194 256 q 175 256 146 245 l 141 237 l 132 231 l 128 222 l 125 219 l 125 211 l 120 207 q 117 201 115 187 l 111 187 l 110 178 l 113 167 q 143 151 221 147 q 225 162 232 166 z"},"b":{"x_min":0,"x_max":357,"ha":357,"o":"m 472 485 l 461 475 l 450 471 l 433 455 l 409 452 q 383 467 318 475 q 318 475 286 475 q 280 475 268 471 l 261 450 l 257 450 l 253 439 l 243 429 l 247 425 l 240 418 l 240 410 l 247 396 l 243 393 q 244 386 240 373 q 236 359 232 354 l 232 350 q 227 346 216 329 q 205 312 197 308 q 196 294 193 268 l 182 253 q 180 241 179 218 l 204 225 l 208 229 l 211 229 l 240 250 l 240 253 q 258 261 268 260 l 268 268 l 283 268 l 292 275 l 318 279 l 333 275 l 347 264 q 354 252 354 229 l 351 229 l 351 221 l 340 214 l 341 198 q 332 187 322 154 q 313 123 300 111 q 304 86 286 61 l 283 61 l 272 47 q 259 40 243 28 l 243 19 l 232 11 l 232 8 q 218 3 204 -1 q 185 -6 174 -6 l 162 4 q 150 0 143 0 q 103 0 82 15 l 79 19 l 75 15 l 75 11 l 71 11 l 71 8 l 64 4 l 62 -3 l 58 -7 l 54 -7 l 54 -11 l 40 -14 l 36 -18 l 19 -24 l -3 -21 l -7 -7 l -14 -3 l -14 4 l -10 8 l 8 15 q 32 47 32 58 l 29 86 l 40 115 q 47 120 71 154 q 68 168 68 171 q 68 174 71 189 l 75 193 l 75 197 l 79 204 l 79 208 l 82 208 l 82 210 q 91 217 109 232 l 110 238 l 121 252 q 125 264 129 314 l 132 314 q 135 326 142 348 l 140 354 q 156 371 165 390 q 164 393 164 396 q 164 404 170 421 q 176 438 176 443 q 176 445 175 446 l 179 446 q 184 457 182 464 l 186 464 q 201 476 229 500 l 261 510 l 286 507 l 292 510 l 314 510 l 322 514 l 333 507 l 351 507 l 372 496 l 414 496 q 425 496 436 507 l 436 510 l 453 514 l 467 511 q 469 503 472 485 z m 264 207 l 262 221 l 253 232 q 242 227 220 214 l 214 208 q 188 197 168 175 l 165 175 l 162 168 l 154 165 l 154 158 l 151 158 l 143 150 l 138 138 l 125 125 l 125 119 l 119 104 l 119 97 q 112 86 112 78 l 112 36 l 115 32 l 125 28 q 149 34 179 32 q 189 40 208 50 l 208 54 q 210 57 214 64 q 221 81 235 113 q 241 121 250 139 q 254 158 262 194 l 261 198 z"},"%":{"x_min":0,"x_max":445,"ha":445,"o":"m 461 485 l 457 477 l 457 454 l 452 443 l 449 440 l 440 440 q 436 434 414 423 l 406 423 l 400 420 q 376 425 358 435 l 358 437 l 338 445 l 326 457 q 323 452 324 445 l 317 440 l 315 426 q 300 407 281 371 l 281 366 l 269 354 l 269 349 l 263 340 l 254 335 l 254 329 l 241 306 l 244 294 l 241 272 q 226 248 223 237 l 214 237 l 212 232 l 212 226 l 201 203 l 198 203 l 192 192 l 192 186 q 178 181 168 165 q 163 138 156 121 l 147 115 l 147 112 l 141 112 l 141 89 q 134 81 124 55 q 113 27 107 18 l 104 18 l 98 6 l 101 1 l 98 -6 l 86 -8 l 84 -6 l 77 -11 l 63 -8 l 58 -14 l 55 -11 l 55 -2 l 53 -2 l 50 6 l 61 21 l 61 25 q 74 42 75 52 l 81 57 l 84 65 q 93 81 118 104 l 118 129 l 129 146 l 141 146 q 143 155 149 163 l 149 169 l 156 174 q 160 187 161 211 l 175 234 l 192 246 q 198 253 204 268 l 204 297 l 212 317 l 221 323 l 229 335 l 235 335 l 241 340 l 246 352 l 246 360 q 256 369 261 386 l 261 395 q 275 422 275 437 q 282 449 297 472 q 286 473 265 482 q 238 495 232 497 l 229 497 q 228 497 222 496 q 215 494 214 494 q 213 494 187 497 l 169 485 l 164 485 l 164 483 q 156 480 152 472 l 152 468 q 160 464 169 466 l 175 463 l 187 445 l 192 445 l 192 443 l 204 426 l 204 402 q 201 391 201 392 l 195 386 l 192 374 l 187 371 q 179 348 164 331 q 150 324 125 319 q 113 317 101 315 l 95 317 l 86 315 l 63 320 l 53 340 l 53 343 l 55 343 q 51 352 53 360 l 41 378 l 32 383 l 32 405 q 38 419 44 423 q 43 427 46 440 l 55 443 l 69 460 l 98 475 l 116 477 l 121 475 q 127 479 129 491 q 159 511 209 511 q 215 511 226 510 q 238 508 244 508 q 245 508 250 510 q 256 511 257 511 q 288 500 306 485 l 310 485 l 315 497 l 320 499 q 328 514 360 525 l 369 523 q 378 527 381 532 l 409 529 q 419 522 452 515 l 454 508 l 457 508 l 461 499 z m 430 475 l 430 485 q 426 497 418 503 l 412 506 l 409 511 q 380 507 375 508 l 372 503 q 362 497 352 499 l 347 494 l 347 485 l 341 483 l 335 475 q 335 475 355 466 q 358 463 362 458 q 367 454 369 451 l 392 443 l 412 445 l 418 448 z m 187 402 q 182 411 178 429 l 169 440 l 161 440 l 158 448 l 141 448 l 135 454 l 129 454 l 125 448 q 123 449 109 445 l 109 440 l 101 437 l 101 435 l 93 432 l 93 429 l 89 429 l 89 426 l 86 426 l 75 414 l 75 409 l 77 405 l 77 400 l 81 400 l 81 389 l 75 380 l 75 369 l 81 369 q 79 360 84 352 q 92 351 107 347 l 109 340 l 141 352 l 144 347 l 149 343 l 156 343 l 161 354 q 167 356 169 360 l 167 371 l 172 386 l 181 392 z m 369 72 l 366 61 l 360 55 l 358 37 q 353 31 344 29 l 332 3 q 306 -13 286 -11 l 281 -14 l 269 -14 l 263 -17 l 261 -14 l 252 -17 q 236 -15 226 -8 q 223 -1 212 12 l 212 34 q 205 46 198 52 l 195 74 q 200 80 207 92 l 207 98 l 212 109 l 218 112 q 235 131 246 138 q 250 141 261 143 q 265 143 273 143 q 281 142 285 142 l 292 129 l 300 129 l 300 131 l 315 138 q 324 133 335 135 l 341 131 l 350 115 l 358 115 l 355 112 l 363 104 q 366 100 369 72 z m 347 86 l 344 98 l 332 109 l 326 109 l 324 118 l 303 118 l 300 124 l 294 124 l 289 118 q 286 119 275 115 l 275 109 l 263 106 l 263 104 l 257 100 l 257 98 l 254 98 l 252 95 l 250 95 l 241 83 l 241 77 l 244 74 l 244 68 l 246 68 l 246 57 l 238 49 l 239 41 l 244 37 q 242 29 246 21 q 250 18 259 18 q 268 17 272 15 l 275 10 l 306 21 l 306 15 q 315 11 317 12 q 327 21 332 25 q 330 40 335 52 l 333 61 q 334 66 341 83 z"},"m":{"x_min":0,"x_max":541,"ha":541,"o":"m 521 78 q 511 60 505 52 q 494 38 481 32 q 472 17 460 11 l 453 0 l 432 -4 l 410 0 l 403 7 l 403 11 l 393 21 l 393 25 l 389 28 l 382 43 l 382 57 q 382 62 384 67 l 392 74 q 392 76 391 78 q 391 81 391 82 q 391 97 396 115 l 393 115 l 393 122 q 393 125 395 131 q 396 137 396 140 q 404 157 425 189 l 425 207 l 428 214 l 417 214 q 404 205 375 186 l 364 186 l 350 178 l 350 175 q 336 171 328 165 l 328 161 l 325 161 l 325 157 l 321 154 l 321 150 l 303 125 q 304 117 295 104 q 296 101 292 82 l 286 75 l 286 71 l 291 59 l 289 50 l 282 43 q 275 33 275 -4 l 260 -11 l 250 -11 l 243 -7 l 239 0 l 228 4 l 221 15 l 221 18 l 217 21 q 221 35 219 46 l 223 54 l 223 57 q 233 67 236 75 l 236 82 l 246 100 q 243 134 256 154 l 256 165 l 260 167 q 256 190 256 193 q 233 187 221 175 l 214 175 l 200 157 l 196 157 l 196 154 l 189 146 l 178 143 l 171 136 l 171 128 l 167 128 l 167 122 l 161 118 l 157 111 l 143 107 l 136 100 l 136 96 l 132 89 l 132 85 l 125 78 q 127 56 122 43 l 118 46 l 118 43 l 111 32 l 100 25 l 96 18 l 96 15 l 89 15 l 89 11 l 85 7 q 75 6 56 3 q 39 0 25 0 q 16 2 15 4 q 3 16 0 25 l 4 32 l 11 32 l 15 35 l 28 39 l 34 31 l 43 32 l 57 43 l 64 61 l 64 75 l 71 82 l 78 104 l 82 107 q 84 134 93 146 l 100 146 q 105 163 104 178 q 98 186 96 204 q 101 218 100 221 l 96 221 l 85 216 l 67 217 l 55 208 q 51 208 41 206 q 30 204 25 204 q 23 204 18 204 q 13 205 11 205 l 5 222 l 15 232 q 22 232 52 237 q 75 240 89 240 l 101 246 l 111 243 l 122 251 l 137 255 l 150 264 q 169 268 171 267 l 184 262 l 186 253 l 182 243 l 178 239 q 179 230 185 216 q 190 201 191 193 l 204 191 q 218 200 250 214 l 256 225 q 284 238 304 242 l 317 253 l 339 250 l 347 243 l 347 236 l 350 236 q 349 230 354 217 l 360 214 l 367 217 l 375 214 q 382 217 393 225 l 393 228 q 399 229 416 239 q 432 249 436 253 q 446 252 488 259 l 496 256 l 507 246 l 510 239 l 510 210 q 506 208 496 182 q 475 175 471 150 l 467 146 l 467 139 l 464 136 l 464 118 l 467 111 q 466 103 451 60 l 455 46 l 467 50 q 479 59 503 78 l 503 82 l 507 82 q 521 78 521 78 z"},"#":{"x_min":0,"x_max":703,"ha":703,"o":"m 736 411 l 732 407 l 732 396 l 729 390 l 722 390 l 718 386 q 701 384 693 384 q 688 384 682 386 l 678 390 l 665 390 l 661 383 q 658 383 653 382 q 648 382 646 382 q 645 382 641 382 q 638 383 636 383 q 633 387 618 391 q 603 395 597 394 l 589 386 q 576 388 550 394 q 552 384 552 378 q 552 371 550 357 l 543 351 l 540 325 l 543 318 l 543 300 q 543 292 537 286 l 533 286 l 522 275 l 518 261 l 515 257 l 504 250 l 496 236 l 489 236 l 476 204 l 465 208 l 454 201 l 446 201 l 443 194 l 443 186 l 446 185 l 461 186 l 465 190 q 467 190 473 190 q 478 191 480 191 q 502 191 511 186 l 518 194 q 538 198 550 197 l 568 190 l 589 190 l 604 197 l 607 201 l 625 204 l 625 208 l 647 208 l 654 194 l 654 175 l 650 175 l 636 158 l 618 154 l 615 158 l 583 154 l 568 168 l 561 162 l 554 162 l 546 168 l 511 168 q 484 154 437 158 l 437 140 l 429 129 l 415 125 l 411 112 l 418 101 l 418 94 l 415 86 l 411 86 l 411 75 q 394 55 376 29 l 372 12 l 368 8 l 365 -17 l 357 -31 q 354 -31 349 -31 q 344 -30 341 -30 q 339 -30 337 -31 q 334 -31 333 -31 l 326 -35 l 308 -35 l 300 -38 l 296 -35 l 296 -24 l 293 -24 l 290 -14 q 299 2 318 33 l 318 43 l 329 51 l 333 62 q 346 78 376 108 l 376 140 l 390 162 l 386 165 q 381 165 373 165 q 364 166 359 166 q 345 166 309 161 q 275 157 257 158 l 250 165 l 236 162 l 211 175 q 213 167 213 162 q 213 157 211 147 q 203 133 186 129 l 183 119 l 190 104 l 190 97 l 186 94 l 183 94 l 183 79 q 166 64 147 36 l 144 19 l 140 12 l 136 -14 l 129 -24 q 126 -24 120 -24 q 114 -23 111 -23 q 104 -23 97 -27 l 79 -27 l 72 -31 l 68 -27 l 68 -21 l 64 -17 l 62 -10 l 75 12 l 75 19 q 101 54 105 68 q 118 85 147 112 l 147 144 q 154 154 166 168 q 130 167 112 167 q 106 167 95 168 q 84 170 79 170 q 75 170 65 169 q 56 168 51 168 q 40 171 36 172 l 33 175 l 33 194 l 40 201 l 44 201 l 51 208 l 83 208 q 104 203 108 201 l 115 194 l 175 197 q 183 203 196 203 l 194 222 l 201 236 l 201 247 l 218 275 l 240 290 q 256 309 256 342 q 256 351 254 357 l 265 383 l 279 394 l 265 394 l 250 411 q 230 396 194 400 l 186 396 l 162 400 l 140 394 l 136 400 l 136 422 l 147 436 l 151 436 l 158 443 l 172 443 q 187 439 186 439 l 190 436 l 208 436 l 218 425 q 247 438 272 436 l 275 433 l 279 433 l 283 429 q 309 422 308 422 l 308 436 q 315 442 330 481 q 344 521 344 533 q 351 541 361 557 l 361 561 l 368 568 l 372 579 l 376 579 l 376 583 l 379 583 l 379 589 l 386 589 l 386 593 q 389 597 407 607 l 422 607 l 443 596 q 439 582 422 550 l 422 540 q 414 530 400 511 l 400 504 l 396 500 l 394 500 q 392 486 379 461 q 351 442 347 422 l 368 425 l 376 418 q 377 418 381 418 q 384 419 386 419 q 387 419 390 418 q 392 418 394 418 l 396 422 l 407 422 l 454 439 l 472 439 q 479 439 499 432 q 518 424 527 424 q 530 424 533 425 l 546 443 q 556 470 572 526 l 586 546 l 586 554 l 589 554 l 597 561 l 600 572 l 604 572 l 604 579 l 607 579 l 607 583 l 615 583 l 615 585 l 618 589 l 628 593 l 636 600 l 650 600 q 667 596 671 593 l 667 579 q 653 566 650 546 l 650 536 q 635 519 628 504 l 628 500 l 625 496 l 622 496 q 620 472 600 451 q 578 426 576 418 l 589 418 q 587 418 611 422 l 615 415 l 625 415 l 632 422 l 643 422 q 643 422 675 411 q 688 415 710 425 l 718 422 l 729 422 z m 504 383 l 504 390 l 476 390 l 468 404 l 433 407 l 426 404 l 418 396 q 386 399 368 394 l 357 386 l 344 390 l 344 383 l 340 379 l 322 383 l 322 365 l 315 357 l 312 333 l 315 325 l 315 304 l 308 293 l 304 293 l 293 283 l 290 268 l 286 264 l 283 257 l 279 257 l 268 244 l 261 244 l 254 225 l 250 225 q 223 205 211 208 l 211 201 l 215 194 l 233 197 l 236 190 l 257 194 l 261 201 l 315 201 l 322 194 l 376 190 l 383 186 q 399 195 415 197 l 422 208 q 421 211 429 244 l 446 272 l 468 286 q 476 294 482 314 q 482 317 482 324 q 481 330 481 333 q 481 336 482 344 q 482 351 482 354 l 493 368 l 493 375 z"},",":{"x_min":0,"x_max":221,"ha":221,"o":"m 116 34 l 112 25 l 112 18 l 102 18 l 99 13 l 99 5 l 94 5 l 86 -5 l 86 -18 l 72 -21 l 72 -25 l 55 -25 q 45 -38 42 -55 l 34 -64 l 18 -68 l 8 -77 l 0 -72 l 0 -64 l 8 -60 l 13 -42 l 21 -34 l 25 -21 l 42 -8 q 40 11 34 18 l 39 42 l 34 47 l 52 64 l 55 81 l 64 86 l 81 86 l 81 81 l 90 77 l 94 77 l 99 81 l 112 68 l 112 52 l 116 47 z"},"n":{"x_min":0,"x_max":415,"ha":415,"o":"m 382 237 l 379 233 l 379 215 l 375 211 l 367 193 l 370 186 l 366 182 q 365 171 359 151 l 361 146 q 351 133 338 106 q 324 78 324 66 l 317 55 l 319 41 q 340 57 351 72 l 364 77 l 379 73 q 377 63 361 44 q 342 22 337 11 l 330 7 l 330 4 l 306 -11 q 290 -10 269 7 q 267 11 258 18 l 253 29 l 253 40 l 249 47 l 252 55 q 251 66 251 66 q 251 86 272 124 q 292 161 291 190 q 301 208 305 233 l 295 237 l 291 233 l 291 230 l 269 215 l 269 211 l 255 208 l 255 204 q 239 199 233 190 l 233 182 q 227 178 207 175 l 207 168 l 200 168 l 197 164 l 193 164 l 189 157 l 189 149 l 178 146 l 178 139 l 173 128 l 172 111 q 166 102 160 81 q 155 60 149 51 q 140 45 130 30 q 119 12 113 7 q 95 3 59 -5 l 47 0 l 30 -5 l 11 8 l 3 27 l 7 44 l 18 48 q 33 41 43 34 l 61 37 l 73 45 l 76 66 l 80 69 q 80 86 84 100 q 91 114 105 142 q 110 166 127 211 l 124 222 l 127 230 l 120 237 l 109 233 l 109 230 l 94 226 l 84 219 q 62 216 47 211 l 29 219 l 25 230 l 29 237 q 81 236 138 270 l 146 270 l 170 287 l 182 289 l 193 284 q 214 262 211 248 l 204 244 l 204 237 l 197 226 q 198 222 195 212 l 197 204 l 204 200 q 223 207 244 222 l 244 226 l 248 226 l 258 233 l 262 233 l 273 241 l 277 248 l 291 251 l 291 255 q 306 263 317 266 l 320 270 l 328 270 q 343 276 350 284 l 361 284 l 364 277 l 368 277 q 376 267 382 248 z"},"h":{"x_min":0,"x_max":396,"ha":396,"o":"m 545 549 l 539 510 l 524 503 l 514 478 l 507 475 q 503 464 492 453 q 463 446 432 446 q 400 446 350 466 q 344 472 337 484 l 330 486 l 324 496 l 299 499 l 275 485 l 275 481 l 270 481 l 267 460 l 260 457 l 260 446 q 245 407 229 367 l 217 360 q 212 344 214 317 l 208 299 l 208 283 l 200 275 l 200 264 q 188 247 181 239 l 178 217 l 181 207 l 190 214 q 213 218 229 236 l 239 239 l 253 256 l 263 256 l 275 264 l 281 264 l 292 271 l 322 273 l 346 253 l 346 250 l 350 246 l 357 225 l 361 221 l 357 201 q 342 189 336 175 l 331 175 q 326 160 328 132 l 324 128 l 324 115 l 318 111 q 308 71 292 61 l 289 46 l 292 35 l 303 38 q 311 44 336 61 l 340 61 l 340 57 l 336 39 l 328 35 l 328 32 q 321 24 305 9 l 281 -1 q 275 1 250 1 l 229 17 q 217 40 217 57 l 223 62 l 220 71 q 221 77 221 89 l 224 93 l 224 100 q 232 109 244 136 q 256 164 256 175 l 270 200 l 270 207 l 275 207 l 275 214 l 281 217 l 281 221 l 285 221 l 289 228 l 285 243 l 267 243 q 256 238 248 226 l 224 214 l 223 205 l 208 200 l 208 196 l 205 192 q 200 190 191 187 q 183 184 178 182 l 174 175 l 171 175 l 168 167 l 168 165 l 157 161 l 157 152 q 145 125 147 111 l 142 107 l 142 104 q 137 86 128 82 l 128 75 l 121 67 l 114 43 q 102 33 96 15 q 88 7 70 -7 l 70 -11 l 58 -18 q 28 -13 21 -7 l 21 -4 l 15 4 l 19 18 l 21 21 l 24 21 l 24 25 l 36 39 q 40 88 46 122 q 48 126 58 132 l 61 143 l 70 150 l 70 154 l 67 157 l 67 165 l 79 175 l 82 182 q 90 186 96 193 l 96 204 q 114 223 110 253 q 120 271 138 287 l 140 296 l 144 296 l 142 306 l 147 314 l 147 325 l 153 328 l 153 343 l 157 347 l 157 356 l 171 378 l 171 386 l 181 403 l 181 407 l 186 407 l 186 414 l 193 428 l 190 453 l 193 464 l 196 464 l 196 471 l 214 478 l 217 485 l 232 496 l 239 496 l 242 503 l 250 510 q 272 519 281 517 l 299 525 q 307 525 331 524 q 350 523 361 524 l 370 528 l 389 528 q 391 528 418 518 q 446 509 449 507 l 460 496 l 472 492 l 486 494 l 499 502 q 512 521 514 537 l 511 560 l 514 568 l 524 571 l 536 564 z"},"z":{"x_min":0,"x_max":415,"ha":415,"o":"m 414 278 q 406 268 382 250 l 364 249 l 354 231 q 331 212 318 209 l 318 207 l 308 203 l 299 196 l 296 181 l 289 170 l 289 167 l 282 160 l 282 157 q 274 154 264 142 l 250 142 q 241 132 227 109 l 218 103 q 213 69 197 57 l 204 53 l 204 49 l 225 38 q 239 40 246 40 q 250 40 261 39 q 272 38 279 38 l 282 35 l 296 31 l 308 17 l 314 17 l 318 14 l 343 10 l 347 14 l 360 17 l 368 24 l 368 35 l 360 42 l 354 38 l 347 46 l 339 46 l 332 38 l 321 38 l 311 49 q 309 57 309 62 q 309 67 311 77 q 315 83 325 92 q 333 94 339 94 q 344 94 350 92 l 357 85 l 371 85 l 375 77 l 375 70 q 384 67 393 57 l 393 42 l 386 27 l 386 14 l 368 -4 l 360 -4 l 347 -15 l 325 -19 q 317 -15 300 -9 q 283 -3 245 -3 q 242 -3 236 -3 q 231 -4 228 -4 l 215 -10 l 208 -4 q 195 -2 182 7 l 178 14 l 175 14 q 163 21 147 21 q 136 14 125 -1 q 108 -9 90 -17 q 72 -24 52 -24 q 60 -24 21 -21 q 3 -12 0 -8 l -3 -1 l -12 8 l -14 21 l -18 21 q -18 35 -12 45 l -3 53 q 6 56 21 63 l 36 60 q 51 62 53 62 q 54 62 71 60 l 86 66 l 97 66 l 119 85 l 119 99 q 122 100 136 110 l 139 125 l 147 127 q 153 136 165 142 l 165 146 q 191 175 209 185 q 217 196 221 207 l 232 213 l 243 213 l 260 224 l 275 227 l 275 231 q 293 238 321 259 l 318 267 q 310 267 288 263 q 270 259 257 259 q 256 259 238 265 q 219 270 208 270 q 203 270 197 267 l 189 259 l 189 256 l 186 252 l 186 246 l 182 246 l 182 242 l 171 238 l 154 246 l 154 249 q 156 263 165 292 l 178 298 q 192 300 199 300 q 205 300 214 298 l 239 285 l 253 285 l 271 292 l 282 292 l 282 288 l 296 292 l 314 288 l 339 295 l 354 288 l 364 288 l 393 302 l 403 298 q 407 291 414 285 z m 71 30 l 67 39 l 54 44 l 27 41 l 18 31 l 18 24 l 25 14 l 36 7 l 47 7 q 62 12 67 21 z"},"B":{"x_min":0,"x_max":844,"ha":844,"o":"m 873 698 l 858 680 l 834 667 l 802 667 l 788 659 l 773 663 l 741 656 l 702 667 l 680 663 l 645 673 q 634 672 613 667 q 613 645 606 609 l 598 598 l 602 587 l 613 581 l 630 584 q 644 581 684 581 q 703 581 717 570 l 724 545 l 748 538 q 763 527 773 498 l 770 470 l 777 455 q 772 427 773 416 l 770 416 l 759 398 l 745 392 l 738 381 l 780 338 l 788 316 l 784 302 l 788 298 l 784 288 q 789 282 806 270 l 806 263 l 819 242 l 819 231 l 812 224 l 812 203 l 823 195 l 819 188 l 809 181 l 799 164 l 799 142 q 799 141 802 121 q 797 101 780 84 l 777 70 l 759 60 l 759 49 l 767 34 l 763 23 l 752 14 l 738 10 l 730 3 l 728 3 l 724 -12 l 702 -26 q 680 -30 667 -29 l 663 -37 l 637 -51 l 624 -47 l 591 -62 q 592 -62 559 -68 q 539 -64 527 -65 q 491 -53 424 -19 l 406 -16 l 396 -1 l 366 14 l 335 17 q 304 -5 263 -12 l 246 -9 l 235 -12 l 220 -5 q 223 5 235 17 l 242 21 q 256 47 270 56 l 274 73 l 266 92 l 216 110 l 196 127 q 186 134 146 134 q 109 150 106 150 l 81 142 l 66 127 l 66 117 l 56 103 l 55 86 q 56 70 70 56 q 108 50 112 50 q 114 50 131 53 q 144 70 142 99 l 149 103 l 174 99 l 174 92 l 181 84 l 181 73 l 170 56 q 167 53 149 38 q 131 37 110 23 q 73 25 49 34 l 45 42 l 24 56 l 10 84 l 17 121 l 21 125 q 26 132 35 149 l 45 149 l 56 167 q 86 185 117 186 l 135 181 q 145 174 153 156 l 174 153 l 185 156 q 222 149 255 125 l 263 125 l 263 121 l 274 117 l 274 114 l 292 117 l 306 142 q 305 155 315 191 q 324 222 331 238 q 338 248 349 274 q 355 281 366 295 q 370 309 381 334 q 409 389 445 441 q 441 475 441 474 l 448 484 l 491 505 l 495 520 l 491 538 l 498 548 l 495 556 q 459 533 438 531 l 427 520 l 398 509 l 392 513 l 385 527 l 392 538 l 427 563 q 441 568 456 566 l 467 574 q 481 579 509 577 l 517 584 q 517 585 519 591 q 520 597 520 598 q 520 602 519 609 q 517 616 517 620 q 517 622 520 645 q 526 649 545 652 l 574 673 l 578 687 l 563 695 q 528 692 527 692 q 524 692 463 695 q 452 689 431 687 q 408 684 398 680 q 383 663 377 648 l 359 634 l 346 634 l 346 637 l 331 641 l 320 656 l 324 676 q 348 684 359 687 l 363 695 l 431 724 l 448 717 q 463 727 484 727 q 485 727 491 725 q 497 724 498 724 q 504 727 531 727 q 535 727 546 723 q 557 719 563 720 l 591 708 q 609 711 620 706 l 634 708 l 645 717 l 645 720 q 653 721 675 730 q 693 737 706 737 q 709 737 724 734 l 728 737 l 748 734 l 795 748 l 823 745 q 847 725 869 717 z m 838 706 l 835 714 q 819 717 806 717 l 770 717 q 710 717 669 695 l 669 691 q 710 689 738 680 l 745 684 l 770 684 l 788 691 l 802 687 q 813 695 838 706 z m 656 374 l 656 381 l 634 381 l 620 374 q 602 377 581 366 l 578 359 l 584 359 l 591 353 l 598 355 l 609 355 l 617 363 q 630 366 656 374 z m 745 199 l 744 215 l 734 234 l 728 234 l 728 242 q 736 250 738 270 l 724 288 l 734 302 l 730 331 l 720 349 l 706 345 l 698 349 l 684 349 l 669 338 l 652 338 l 645 327 l 624 327 q 612 331 591 342 l 591 349 q 553 338 552 338 l 542 345 l 542 363 l 548 381 l 567 396 q 607 412 652 412 q 656 412 702 398 l 724 413 q 730 421 734 435 l 730 452 l 724 459 l 734 477 l 730 487 l 728 487 l 720 495 l 717 502 l 697 507 l 691 516 l 691 535 l 684 545 l 669 556 q 665 556 648 554 q 635 552 627 552 q 623 552 612 554 q 601 557 595 556 l 584 548 q 587 538 578 513 l 559 498 l 556 491 l 548 487 l 538 459 l 527 452 l 524 441 q 514 434 506 416 l 506 409 l 498 398 l 498 374 q 493 359 484 348 q 472 342 450 312 l 448 288 l 445 288 q 435 272 413 227 l 385 206 l 381 188 l 392 181 q 391 171 381 147 q 372 124 366 121 q 355 101 359 70 l 375 45 l 409 21 l 441 21 q 457 6 480 3 l 495 -10 l 506 -12 l 509 -16 q 530 -31 556 -29 q 569 -23 603 -16 q 633 -8 648 0 q 660 10 673 49 l 684 49 l 695 60 l 695 77 l 691 84 l 695 95 l 706 106 l 708 125 l 728 138 l 730 149 l 741 160 l 738 185 z"},"K":{"x_min":0,"x_max":1044,"ha":1044,"o":"m 1034 33 l 1031 12 l 1020 1 l 1020 -17 q 1022 -26 1024 -27 l 1016 -42 l 977 -49 l 956 -76 q 945 -77 914 -83 q 882 -89 878 -89 q 865 -89 827 -83 q 792 -79 777 -80 q 759 -71 756 -66 l 738 -59 l 728 -45 l 673 -27 l 659 -13 l 624 1 l 617 9 l 595 16 q 580 33 563 37 l 563 48 l 524 62 l 485 96 l 460 103 l 457 114 l 421 142 l 414 174 l 410 174 l 403 192 l 364 199 l 354 227 l 336 246 l 336 249 l 328 256 l 328 259 l 317 263 l 314 277 l 292 298 l 282 298 l 271 288 l 275 274 l 267 263 l 267 259 q 255 252 250 235 l 239 227 l 239 213 l 236 213 l 232 203 l 236 199 l 232 196 l 217 153 l 207 146 l 200 114 l 193 110 l 193 92 l 154 66 l 146 49 l 146 42 l 132 35 l 132 27 l 125 21 l 125 14 q 86 -11 64 -33 l 46 -40 l 18 -33 l 0 -15 l 0 -5 l 7 3 l 28 6 l 39 -8 l 46 -8 l 54 3 l 64 10 l 67 21 l 85 38 q 88 49 110 85 q 132 122 136 125 q 142 150 148 177 q 155 206 171 227 l 182 235 l 182 274 l 165 288 l 128 288 q 117 285 118 285 l 96 295 l 96 320 l 89 335 q 93 348 93 349 l 111 377 q 142 403 194 403 q 203 403 210 402 l 214 417 q 229 434 267 445 q 299 502 314 545 l 314 559 l 321 567 l 336 567 l 331 584 l 336 618 l 351 625 q 365 647 368 661 l 383 671 l 383 678 q 388 689 404 707 l 407 725 l 383 729 l 357 743 l 314 743 l 325 718 l 318 710 l 318 703 l 300 703 l 283 696 l 261 703 q 256 712 253 739 l 264 753 l 264 761 l 296 774 q 333 771 344 778 q 399 777 446 753 q 455 761 472 774 q 511 796 536 800 q 540 804 550 807 l 550 811 l 568 817 l 596 817 q 652 839 729 839 q 732 839 747 836 q 759 834 768 835 l 786 821 l 807 817 l 811 807 l 817 803 l 817 796 q 807 778 782 761 l 765 761 l 750 746 q 718 734 693 732 l 689 725 l 671 718 q 655 720 611 707 q 603 711 578 717 q 553 722 543 722 q 540 722 531 720 q 522 718 518 718 q 524 718 489 722 l 475 713 q 461 677 464 667 l 461 661 l 464 661 q 462 651 446 635 l 443 618 l 429 607 q 428 558 386 509 l 386 502 l 375 491 q 368 472 360 463 l 360 459 l 356 459 q 354 448 347 417 q 340 411 329 397 q 317 383 311 377 l 314 370 l 325 370 q 335 384 375 417 q 411 448 414 456 l 425 459 l 432 477 l 446 484 l 449 495 q 463 518 495 543 q 522 564 549 584 q 574 591 599 598 q 625 598 642 595 q 644 595 665 589 q 677 585 688 587 l 707 578 l 718 563 l 721 548 l 729 542 l 729 528 l 713 517 l 685 517 q 666 534 631 542 q 625 552 627 567 l 592 567 q 569 567 549 552 l 536 531 q 534 530 507 498 l 488 491 l 485 477 l 475 474 l 467 456 l 453 452 l 446 435 l 432 435 l 425 424 l 410 417 l 407 409 q 368 379 350 359 l 354 349 l 367 338 l 371 327 l 393 324 l 399 316 l 399 298 l 410 288 l 432 281 q 453 261 465 252 l 476 232 l 488 238 l 496 231 q 511 193 548 145 l 572 131 l 570 109 q 575 106 584 100 q 593 94 598 91 l 602 76 q 615 66 645 52 l 656 37 l 673 30 l 684 16 l 706 9 l 706 5 l 712 -2 q 744 -7 788 -49 q 830 -62 869 -62 q 892 -53 914 -45 q 942 -35 959 -35 l 966 -27 l 992 -24 l 995 -10 l 1002 1 l 1005 22 l 1002 25 q 960 35 949 33 l 942 22 l 940 10 l 913 4 l 902 12 l 902 15 l 888 22 l 881 40 q 890 45 905 55 q 954 58 953 58 q 962 58 982 52 q 1002 46 1015 46 q 1020 46 1024 47 z m 778 796 l 775 803 l 761 812 q 753 812 739 813 q 725 813 718 813 l 685 813 l 678 811 l 654 813 q 617 800 593 800 l 589 796 l 568 789 l 557 778 l 533 768 l 533 771 l 514 757 l 514 746 q 526 747 563 742 q 599 737 611 732 q 651 732 693 761 q 697 760 702 760 q 739 760 778 796 z m 228 370 l 225 385 l 204 385 q 204 385 171 374 l 165 367 l 154 367 l 143 335 l 154 313 l 204 310 q 225 340 228 370 z"},"R":{"x_min":0,"x_max":870,"ha":870,"o":"m 1188 -128 q 1187 -135 1177 -145 q 1168 -155 1167 -161 l 1175 -178 l 1167 -192 q 1153 -202 1121 -209 q 1072 -220 1071 -220 q 1044 -217 1042 -217 q 1011 -217 989 -224 l 974 -220 l 957 -207 l 939 -203 l 921 -181 l 913 -178 q 902 -160 874 -150 l 856 -131 l 843 -128 q 836 -129 828 -131 q 813 -141 782 -157 q 769 -161 743 -170 q 713 -185 703 -200 l 671 -210 l 657 -224 q 640 -224 571 -250 q 558 -254 510 -256 q 469 -258 453 -270 l 432 -267 l 414 -278 q 399 -278 369 -284 q 338 -291 323 -291 q 275 -291 214 -278 q 208 -277 186 -250 l 175 -246 l 161 -213 l 158 -210 l 176 -168 q 187 -156 208 -144 q 232 -131 248 -131 q 251 -131 253 -131 l 268 -121 q 277 -122 292 -119 q 309 -114 314 -114 q 314 -114 361 -114 q 369 -121 388 -129 q 412 -139 417 -142 q 422 -146 457 -167 l 481 -170 l 489 -178 l 496 -178 l 500 -189 l 489 -203 l 450 -203 q 430 -196 391 -182 q 377 -176 350 -166 q 333 -162 303 -150 q 281 -150 255 -160 q 223 -172 210 -174 l 193 -203 l 193 -210 l 225 -252 q 231 -251 258 -256 q 288 -261 296 -261 q 323 -261 386 -250 q 395 -247 414 -242 q 433 -242 468 -239 q 470 -238 489 -233 q 502 -229 511 -231 l 532 -220 l 546 -224 q 582 -215 606 -198 q 632 -179 658 -160 q 675 -152 710 -135 q 736 -119 802 -88 l 774 -60 l 768 -57 q 762 -45 753 -39 l 737 -7 q 724 5 706 15 q 676 61 663 100 l 648 104 l 648 107 l 641 115 l 637 125 l 634 125 q 621 139 614 173 q 601 187 567 247 q 536 303 531 306 l 516 303 l 509 292 l 474 292 l 441 278 q 434 273 427 256 l 416 256 l 416 253 l 413 253 l 405 243 l 402 214 l 398 207 l 402 200 l 398 193 q 399 180 392 146 l 388 146 l 385 139 l 385 132 l 381 128 l 377 118 l 366 107 l 359 89 q 344 73 310 43 q 291 33 255 11 l 245 11 l 231 0 l 177 0 q 173 0 155 5 q 138 10 131 11 l 121 18 l 118 23 q 102 23 84 32 l 56 64 q 47 81 44 106 q 45 126 66 157 q 101 181 108 194 l 134 197 q 148 215 153 217 l 167 217 l 178 211 l 195 186 l 195 150 l 185 136 l 165 145 l 153 165 l 138 171 q 102 154 81 115 l 77 93 l 95 64 q 142 35 174 35 q 208 35 227 50 q 240 67 266 100 q 268 107 280 142 q 292 177 294 182 l 302 186 l 311 217 q 330 241 346 267 l 355 271 l 353 296 l 366 306 q 377 354 396 414 l 405 421 l 410 436 l 419 441 l 416 453 q 424 463 428 480 q 433 494 437 508 q 449 543 473 594 l 456 599 q 412 595 346 560 q 335 553 310 542 l 302 532 q 297 529 288 525 l 285 525 q 261 494 245 485 l 245 481 l 235 478 l 238 471 l 229 467 l 208 436 l 206 436 q 198 428 192 399 l 194 383 l 211 379 l 238 386 q 250 393 266 410 q 284 429 292 436 l 298 453 l 308 461 q 308 461 324 490 q 334 507 335 521 l 346 532 l 358 532 l 367 515 l 369 491 l 359 459 q 335 445 323 424 l 305 414 l 301 400 q 287 394 278 380 l 263 378 l 261 370 l 251 359 q 232 350 214 350 q 198 350 185 353 q 160 371 156 414 l 153 414 q 153 432 162 453 q 176 466 203 493 q 216 498 259 536 l 263 536 l 270 549 q 280 559 292 564 q 311 572 312 573 q 327 583 357 603 q 371 610 424 620 q 477 629 491 627 l 513 638 l 526 664 q 555 693 575 696 l 589 710 q 605 716 637 729 q 649 735 673 745 q 685 746 708 756 q 722 754 737 764 l 763 764 l 770 760 q 775 750 773 735 l 763 729 l 748 729 l 734 713 q 698 712 671 697 l 650 698 l 618 687 q 608 681 589 667 q 579 656 559 635 l 556 625 q 603 621 626 618 q 635 609 663 599 l 673 585 l 684 582 q 690 575 697 560 q 704 542 702 536 l 706 532 q 712 505 712 465 q 712 438 684 403 l 673 399 l 669 393 l 669 389 q 667 386 624 356 l 609 354 l 626 343 q 649 319 659 292 l 652 282 l 656 264 q 670 253 676 246 l 680 246 l 698 232 l 712 196 l 723 185 l 724 167 q 732 153 746 124 q 755 118 770 104 l 773 85 l 795 61 q 798 47 828 0 q 838 -18 848 -35 q 862 -59 874 -63 l 874 -67 l 882 -67 l 882 -70 l 893 -70 l 917 -60 l 939 -60 q 941 -58 946 -57 q 957 -56 978 -54 q 983 -53 1002 -46 q 1017 -41 1028 -41 q 1114 -41 1149 -67 q 1162 -79 1188 -100 z m 642 438 l 634 471 l 636 465 l 640 484 l 633 503 q 634 516 629 537 q 624 559 625 570 q 600 595 548 590 q 551 570 538 539 l 524 525 l 524 514 l 520 514 l 513 492 l 506 485 l 506 475 l 487 457 l 474 386 l 493 396 l 514 396 l 526 389 l 549 389 l 570 371 l 595 372 q 605 396 631 409 z m 1154 -116 l 1149 -100 q 1083 -68 1037 -68 q 1027 -68 1009 -75 q 988 -82 980 -83 q 973 -83 957 -85 q 919 -93 913 -92 l 910 -96 l 910 -103 l 924 -121 l 932 -125 q 944 -161 960 -173 q 1001 -195 1060 -200 q 1085 -195 1103 -181 l 1106 -164 l 1110 -161 l 1114 -161 l 1117 -153 l 1153 -128 z m 531 328 l 531 336 l 524 343 l 519 354 q 506 360 499 368 q 483 362 469 360 q 452 344 452 325 l 452 306 q 483 321 509 318 l 524 328 z"},"T":{"x_min":0,"x_max":548,"ha":548,"o":"m 816 617 l 812 593 l 802 578 q 792 571 754 561 q 716 550 703 550 q 646 550 605 554 q 593 531 591 510 l 570 499 q 563 488 566 467 l 570 464 l 563 436 l 545 421 l 535 421 l 539 407 l 529 393 l 529 371 q 514 329 502 317 q 501 307 493 291 q 482 271 480 264 l 484 246 q 484 245 463 200 l 456 196 q 453 186 444 167 l 430 155 q 418 120 401 105 l 398 82 q 394 71 375 55 l 353 50 l 320 22 q 288 13 255 2 q 216 -8 188 -11 l 164 -4 l 156 7 q 140 19 106 35 q 101 45 75 80 q 56 107 49 128 l 49 139 l 56 146 l 60 167 l 70 182 l 99 200 l 106 214 l 124 217 l 138 232 l 177 236 q 197 228 208 209 l 208 196 l 195 182 l 170 175 l 160 182 l 156 196 l 145 196 q 141 190 125 178 q 108 165 103 165 q 101 145 92 132 q 96 91 127 57 q 153 37 170 35 l 184 25 l 206 25 q 204 25 242 32 q 259 44 284 67 l 284 71 q 324 108 337 145 q 339 155 345 174 q 353 193 382 229 q 392 258 397 299 l 412 311 l 415 325 l 408 328 q 420 365 439 386 l 439 417 l 449 425 l 449 436 q 457 445 464 460 l 477 468 q 486 490 497 537 l 517 568 q 493 577 442 595 q 419 602 372 618 l 364 625 l 351 625 l 336 632 q 286 635 286 635 q 265 635 237 629 q 204 622 193 611 l 165 603 l 154 589 l 136 579 l 132 564 q 133 560 154 540 l 175 532 l 201 536 l 208 532 l 211 525 q 216 526 222 526 q 232 526 254 520 q 277 513 290 513 q 297 513 303 514 l 322 522 l 322 529 q 295 537 279 553 l 272 568 l 272 585 q 272 585 287 603 q 309 608 336 607 l 343 603 l 343 596 l 347 592 l 343 589 l 351 585 l 351 579 l 364 568 q 377 550 386 518 l 379 503 q 344 491 318 479 l 268 479 q 258 489 217 495 q 172 500 162 507 l 151 507 l 132 514 l 123 536 l 119 536 l 101 550 l 97 581 q 103 599 108 607 l 119 611 q 120 613 162 639 q 181 641 210 650 q 247 662 257 664 q 257 664 290 664 q 291 664 303 660 q 316 657 318 657 q 325 656 364 656 q 402 638 474 619 q 493 616 541 599 q 552 605 581 628 q 600 644 626 650 q 671 661 692 661 q 757 661 795 640 z m 766 611 q 746 615 666 623 q 636 616 615 585 q 623 585 654 583 q 678 582 693 582 q 723 582 750 596 z"},"P":{"x_min":0,"x_max":689,"ha":689,"o":"m 909 790 l 897 772 q 854 774 821 758 q 806 759 774 764 q 770 763 736 752 q 712 745 698 745 q 692 745 687 746 q 678 736 659 717 l 648 717 l 645 712 q 635 708 620 695 q 605 682 595 677 l 595 673 l 584 663 q 667 663 667 663 q 672 662 701 652 q 727 644 734 645 q 752 637 786 617 q 797 594 812 546 q 810 517 801 487 q 792 480 780 455 q 765 427 757 417 q 736 407 698 385 l 698 381 q 685 370 657 360 q 629 351 624 346 l 609 346 l 591 339 l 587 324 l 574 317 l 556 324 q 552 349 538 363 l 538 374 l 556 374 l 570 381 q 591 372 598 374 l 637 385 l 637 389 l 648 392 l 648 396 l 669 406 l 673 420 l 698 429 l 698 456 l 702 459 q 709 473 712 488 q 701 521 707 570 l 695 590 l 695 611 l 680 620 l 680 627 q 658 641 602 641 q 597 641 570 634 q 561 612 542 587 l 542 552 l 535 542 l 531 542 l 527 539 l 531 531 l 531 524 l 519 509 l 519 506 l 515 502 l 519 495 l 519 484 l 504 478 l 500 452 l 504 449 l 510 439 q 506 427 493 417 l 490 417 l 486 413 l 481 379 q 456 348 454 310 l 440 292 l 431 251 q 434 234 434 231 q 434 238 430 199 l 412 179 q 404 151 379 98 l 379 74 q 356 61 327 38 l 319 21 l 294 14 l 294 7 l 270 -8 q 259 -10 237 -15 l 222 -12 q 211 -14 193 -21 l 174 -8 q 165 -9 145 -4 l 142 3 l 125 7 q 117 17 84 31 q 62 62 49 77 q 45 132 45 121 q 45 110 49 157 q 56 167 66 188 l 66 207 l 74 213 l 88 217 l 88 224 l 103 224 q 117 219 134 213 l 153 188 l 156 174 l 149 167 l 145 131 l 138 121 l 125 121 l 103 149 l 84 153 l 77 142 l 77 103 q 77 100 88 67 q 132 46 142 27 l 170 21 l 199 27 l 220 42 l 227 38 l 245 46 l 261 62 q 271 94 309 138 q 315 164 326 204 l 345 208 l 341 223 q 347 246 351 279 l 364 291 q 369 312 367 335 l 371 335 q 376 353 375 367 l 378 367 l 389 399 l 407 417 l 416 443 l 410 452 l 425 478 l 418 484 l 434 508 l 431 528 l 448 539 l 452 545 l 448 567 l 466 584 l 466 595 l 477 602 q 485 624 498 638 l 498 652 l 495 652 q 446 644 427 645 q 399 633 343 611 q 330 607 305 599 q 301 598 288 584 l 266 578 q 255 555 216 535 q 200 502 181 491 l 177 484 l 164 474 l 164 456 l 156 438 l 164 435 q 163 421 167 399 l 188 402 l 203 413 l 228 420 l 255 441 l 263 456 l 274 463 q 279 474 277 488 q 271 501 263 506 l 263 517 q 268 523 288 535 l 288 539 l 298 542 q 315 537 331 517 l 327 495 l 320 484 l 317 456 l 305 433 q 286 417 259 413 q 240 390 195 378 l 156 381 l 131 396 q 128 403 121 409 q 122 415 117 431 q 112 447 114 456 q 127 479 142 488 l 156 517 q 164 527 182 544 q 218 573 241 587 q 251 591 270 601 q 280 610 302 625 q 311 627 326 632 q 340 640 367 653 q 394 663 448 670 q 462 670 491 676 q 509 667 527 670 q 536 674 548 688 q 557 699 566 709 q 583 726 601 737 q 631 752 690 784 q 708 784 752 797 q 795 810 812 820 q 815 820 820 820 q 825 819 827 819 q 832 819 843 821 q 853 823 858 823 q 864 823 878 821 q 893 819 900 819 z"},"|":{"x_min":0,"x_max":489,"ha":489,"o":"m 293 630 l 276 587 l 260 556 l 280 552 l 274 509 l 284 478 l 276 452 l 270 376 l 284 299 l 274 200 l 270 141 l 284 80 l 268 49 l 274 8 l 276 -114 l 270 -184 l 275 -231 l 256 -221 l 239 -241 l 214 -231 l 219 -194 l 227 -153 l 229 -96 l 223 -57 l 225 74 l 217 137 l 223 217 l 237 356 l 247 437 l 241 521 l 237 593 l 219 630 l 209 671 l 219 712 l 214 748 l 233 732 l 249 750 l 275 748 l 260 710 l 270 689 l 264 664 z"},"t":{"x_min":0,"x_max":278,"ha":278,"o":"m 294 285 l 292 267 l 281 264 q 276 265 256 270 q 241 274 231 274 q 230 274 212 271 l 209 267 l 189 267 l 178 257 q 176 245 167 228 q 168 214 163 196 l 156 189 l 160 170 l 153 167 l 149 161 l 153 153 l 145 144 l 142 129 l 138 128 l 131 114 l 131 111 l 117 103 l 121 92 l 113 85 l 110 74 l 99 60 l 99 53 l 102 50 l 110 50 l 110 42 l 106 39 q 110 30 112 17 l 131 21 l 139 16 l 145 21 l 153 18 q 163 21 184 28 l 195 39 l 203 60 l 203 78 q 211 99 220 109 l 212 114 l 220 121 l 220 125 l 231 131 l 242 131 q 253 128 252 128 l 262 107 l 255 96 l 255 85 q 244 69 231 63 l 231 60 l 220 46 q 218 29 208 19 l 196 11 l 188 0 q 167 -12 153 -11 l 149 -19 l 142 -19 l 138 -15 q 128 -17 124 -21 l 106 -25 l 106 -21 q 83 -18 70 -19 q 66 -12 53 -4 q 39 4 34 10 l 34 28 l 31 31 l 31 46 q 42 76 42 85 l 48 91 q 54 101 52 118 l 64 134 q 64 139 71 171 l 80 181 l 76 189 q 82 208 92 246 l 99 246 q 103 251 106 271 l 102 275 l 84 271 q 74 263 66 260 l 56 263 q 36 253 17 256 l 21 271 q 33 281 49 289 l 56 289 l 60 295 l 70 295 l 84 302 l 93 300 q 112 304 126 310 l 131 324 l 138 324 l 153 342 l 156 353 q 166 358 170 360 l 173 371 l 184 367 l 188 371 l 188 378 l 203 385 l 203 392 l 209 402 l 216 402 l 220 399 l 227 402 l 227 378 l 220 374 l 220 371 l 216 367 l 216 356 l 202 339 q 200 320 189 305 q 208 304 227 299 q 236 302 254 302 q 274 302 288 299 z"},"M":{"x_min":0,"x_max":1174,"ha":1174,"o":"m 1426 765 l 1420 750 l 1420 729 l 1406 708 q 1381 695 1332 678 l 1327 671 q 1286 668 1284 668 q 1226 668 1163 697 l 1149 693 q 1143 684 1130 673 q 1113 660 1109 655 q 1099 631 1070 583 q 1089 556 1087 530 l 1077 504 l 1070 504 l 1066 486 l 1070 465 l 1063 451 l 1063 430 l 1055 412 l 1059 408 q 1040 349 1035 336 q 1018 294 995 273 l 992 258 l 999 244 q 997 233 992 212 l 988 212 q 977 196 970 169 q 951 97 951 69 q 951 58 953 48 l 966 26 l 988 16 l 995 -2 q 1007 -13 1024 -20 l 1055 -2 l 1063 12 l 1059 33 l 1063 48 l 1077 55 q 1097 85 1109 91 l 1113 109 l 1127 126 l 1135 126 l 1148 113 l 1155 94 l 1152 80 q 1131 57 1107 39 q 1095 8 1091 -9 q 1080 -18 1073 -30 l 1044 -49 l 1024 -49 q 1028 -49 974 -38 l 959 -23 q 942 -18 927 -20 l 920 -13 l 888 2 l 873 22 q 875 44 870 62 q 868 66 866 72 q 866 72 866 109 q 866 114 871 127 q 875 139 873 148 l 877 152 q 874 183 881 198 q 882 200 905 235 q 940 288 959 352 q 959 351 963 358 l 963 373 l 956 380 l 942 380 l 927 369 q 921 354 898 327 q 876 300 870 283 q 872 265 861 247 l 845 230 l 845 208 l 823 169 l 810 159 l 806 144 l 803 144 l 803 137 l 773 109 l 767 94 l 745 80 l 728 52 l 699 41 l 695 12 q 686 1 670 -6 l 667 -20 l 617 -23 l 610 5 l 617 20 l 621 20 l 621 44 l 627 52 l 621 72 q 609 82 595 98 l 595 109 l 592 109 q 595 153 595 155 q 595 155 592 187 q 593 200 599 224 q 605 235 614 262 q 613 276 617 303 q 613 309 606 338 q 599 367 599 373 q 606 408 618 423 q 617 442 610 476 q 605 470 602 451 l 588 447 l 582 415 l 567 401 l 567 397 l 556 384 l 556 376 l 552 373 q 550 363 538 347 q 527 333 524 304 l 506 273 l 495 265 q 483 236 454 183 l 435 170 q 425 154 406 123 l 406 120 q 399 89 374 59 q 374 39 360 16 l 331 5 l 321 -9 l 299 -13 l 292 -20 q 285 -20 260 -22 q 240 -23 228 -23 q 207 -23 176 -15 q 135 -4 125 -2 q 121 2 103 16 l 85 48 q 62 61 31 105 l 24 144 l 31 172 l 53 198 l 74 204 l 89 215 l 103 215 l 118 198 l 121 198 l 125 187 l 131 180 l 139 144 l 135 137 l 125 130 q 105 134 89 148 l 67 152 l 60 141 q 63 114 85 91 l 100 83 q 116 65 118 48 l 135 37 l 153 37 l 178 22 q 219 16 217 16 q 206 16 292 22 q 303 28 324 41 q 360 79 371 116 l 371 137 q 375 154 389 163 q 396 185 406 198 l 424 205 q 428 210 435 222 q 441 238 449 254 q 458 270 474 280 l 481 304 l 495 319 q 497 343 506 362 l 513 362 q 526 383 528 401 l 545 423 q 542 438 571 512 l 563 551 l 549 569 l 545 569 l 542 580 q 501 596 438 596 q 421 596 386 594 q 351 591 333 591 q 326 591 312 594 q 297 597 292 597 q 292 597 256 597 q 238 591 217 583 q 215 583 189 562 l 189 551 q 193 535 207 526 l 224 519 l 228 515 l 228 512 l 239 512 l 252 504 l 299 504 q 304 504 312 508 q 329 513 360 530 q 388 545 421 554 l 432 551 l 441 534 l 436 514 q 423 504 406 483 q 377 479 356 465 l 331 469 q 319 465 313 465 q 307 465 295 467 q 284 469 278 469 q 272 469 260 465 l 228 473 l 217 486 l 210 486 q 165 522 161 541 l 157 541 l 139 569 l 139 583 q 187 632 271 632 q 274 632 290 628 q 306 623 311 623 q 380 617 502 623 q 521 612 563 612 l 571 608 l 610 608 q 631 615 656 623 l 663 629 l 670 629 q 692 611 696 584 q 683 541 684 530 l 681 530 q 671 497 673 476 l 681 469 l 673 451 l 677 437 l 673 434 q 677 423 660 384 l 656 384 l 645 365 l 645 348 l 652 333 l 656 330 q 684 292 684 205 q 684 207 677 163 l 667 152 q 663 113 663 120 q 663 109 667 80 l 678 67 l 695 83 l 721 91 q 737 107 756 130 q 758 138 763 153 q 768 168 771 176 l 784 194 q 799 240 806 269 q 826 282 842 311 q 857 337 866 341 q 878 358 881 380 l 913 404 l 920 415 l 934 415 l 942 437 l 938 440 l 938 465 l 949 476 q 948 479 953 493 l 959 497 l 970 523 l 977 526 l 988 526 l 1002 541 l 1002 547 l 1005 551 l 1009 576 q 1016 579 1020 594 l 1027 597 q 1051 616 1081 683 q 1084 685 1095 700 l 1078 708 l 1021 704 q 997 710 953 744 l 925 744 l 895 758 q 906 758 834 762 q 834 762 771 762 l 734 747 q 734 746 733 740 q 731 734 731 733 q 731 731 734 705 l 745 694 q 755 696 810 723 q 824 716 842 705 l 845 690 l 823 658 q 818 658 809 656 q 799 655 795 655 q 784 655 764 659 q 740 664 731 665 l 706 683 l 706 690 l 695 701 l 699 708 q 683 742 683 762 q 683 766 684 769 l 692 769 l 695 775 l 699 779 q 707 778 723 783 q 740 788 749 786 l 777 797 l 816 797 q 821 797 835 792 q 847 789 855 790 l 863 797 q 899 795 968 787 l 992 764 l 1015 756 l 1017 743 q 1033 739 1063 732 q 1083 733 1121 726 l 1139 743 l 1156 747 q 1160 755 1167 765 l 1167 771 q 1193 789 1202 800 l 1202 814 l 1206 814 l 1217 825 l 1256 832 l 1267 839 l 1323 839 q 1326 839 1341 833 q 1357 827 1360 825 l 1371 825 l 1374 832 l 1388 825 l 1420 789 z m 1372 748 l 1365 754 l 1360 783 l 1327 786 l 1327 797 l 1320 804 l 1273 808 l 1242 793 l 1238 782 q 1221 778 1202 754 l 1202 750 l 1185 739 l 1185 729 l 1191 722 l 1217 708 q 1251 711 1281 700 q 1329 702 1367 726 l 1363 739 l 1356 743 z"},"g":{"x_min":0,"x_max":363,"ha":363,"o":"m 348 250 l 334 236 q 330 216 334 204 l 319 200 l 312 189 l 309 189 l 309 182 q 306 167 294 139 l 294 125 l 291 116 l 291 107 l 282 97 q 277 83 271 54 l 268 54 l 264 47 l 260 47 l 262 35 q 258 26 261 19 l 248 9 q 250 -3 250 -10 q 250 -20 241 -37 q 233 -54 232 -62 l 219 -72 l 219 -82 l 223 -85 l 220 -90 l 219 -96 l 212 -100 q 205 -109 202 -122 q 194 -132 176 -150 l 173 -165 l 167 -174 l 167 -183 l 163 -193 l 163 -196 l 159 -196 q 146 -212 127 -221 q 120 -233 113 -239 l 109 -239 l 106 -246 q 84 -255 69 -256 l 62 -264 l 59 -264 l 59 -267 q 50 -272 34 -282 q -26 -291 -65 -289 q -67 -286 -73 -282 q -88 -283 -105 -278 q -108 -275 -116 -271 l -141 -271 l -155 -260 l -160 -250 l -173 -244 l -180 -235 l -180 -221 l -176 -214 l -176 -207 l -163 -185 l -163 -182 q -160 -181 -152 -165 l -141 -157 l -120 -154 l -116 -150 l -91 -150 q -80 -152 -76 -154 l -76 -150 l -55 -154 l -55 -161 l -52 -161 l -52 -165 l -48 -165 l -44 -167 l -44 -174 l -52 -178 l -52 -189 l -55 -193 l -73 -196 q -85 -188 -91 -185 l -98 -185 l -102 -178 l -137 -185 l -141 -189 l -141 -193 l -148 -204 q -139 -225 -141 -235 l -134 -235 l -134 -239 l -124 -246 q -107 -241 -65 -260 q -42 -256 -44 -256 q -52 -256 -13 -260 q 1 -256 13 -246 l 13 -243 q 33 -239 45 -224 l 56 -221 l 56 -217 l 69 -214 q 75 -206 104 -150 q 127 -102 138 -94 q 143 -87 145 -71 q 156 -56 162 -39 q 171 -10 172 -7 l 175 -4 l 175 0 l 186 4 q 190 16 197 21 l 200 35 q 211 51 221 62 l 223 82 l 227 89 l 230 89 q 227 104 239 127 l 236 136 q 240 145 242 164 q 244 188 245 193 l 255 210 q 243 220 241 228 l 223 236 q 194 229 180 212 l 176 195 q 163 188 152 175 l 152 165 l 148 165 l 145 147 l 141 143 q 137 131 134 125 l 122 116 l 117 104 q 114 98 113 86 l 106 82 l 102 57 l 106 54 l 126 54 l 148 64 l 156 75 l 156 78 l 167 89 l 184 97 l 184 100 q 211 104 212 104 l 212 93 l 208 89 l 208 86 l 206 82 l 187 71 l 191 64 l 187 61 l 187 57 l 176 54 q 141 20 103 20 q 96 20 84 21 l 71 32 l 59 36 l 44 48 q 43 55 39 80 q 36 97 37 118 q 42 127 48 147 l 56 147 l 56 154 l 62 154 l 65 161 l 73 165 q 78 178 92 190 l 94 197 q 99 206 126 224 q 154 243 167 247 q 199 257 241 257 q 245 257 255 254 q 265 251 270 251 q 273 251 280 253 q 287 254 291 253 l 301 264 l 319 260 l 345 264 l 348 260 z"},"j":{"x_min":0,"x_max":253,"ha":253,"o":"m 299 484 l 292 477 l 267 466 l 260 452 q 264 434 253 416 l 247 416 q 237 404 221 381 l 214 377 l 210 377 l 206 369 l 197 370 q 188 386 188 400 q 188 412 199 449 q 208 484 208 491 l 225 509 l 228 520 l 242 532 l 267 538 q 280 533 296 509 q 295 500 299 484 z m 237 236 l 230 227 l 219 224 l 212 216 q 204 172 204 173 l 192 156 q 194 151 186 132 q 178 110 178 101 q 178 98 178 95 l 181 95 l 181 84 q 180 83 170 70 l 167 53 l 170 42 l 161 27 l 157 -12 q 143 -32 129 -52 q 114 -77 110 -97 l 99 -101 l 95 -119 l 84 -119 l 87 -144 l 66 -147 l 66 -179 l 59 -179 l 45 -192 l 30 -197 l 30 -211 l 17 -218 l 13 -226 l 9 -226 q -4 -232 -9 -240 l -41 -250 l -103 -242 l -139 -214 q -158 -209 -167 -210 l -175 -204 q -178 -183 -178 -182 q -178 -173 -173 -149 l -178 -143 l -175 -139 l -182 -125 l -178 -118 l -178 -111 l -167 -108 l -161 -100 l -161 -86 q -147 -87 -132 -82 l -128 -75 q -102 -78 -62 -67 l -43 -97 l -62 -111 q -96 -98 -109 -100 l -122 -111 l -132 -115 q -136 -123 -139 -125 q -141 -134 -139 -150 q -145 -161 -143 -175 l -136 -178 l -136 -182 l -122 -186 l -122 -189 l -118 -193 q -109 -194 -77 -202 q -47 -209 -40 -208 l -20 -197 l -8 -179 q -12 -136 -2 -123 l -2 -112 q 6 -109 9 -105 l 13 -105 l 17 -97 l 23 -97 l 27 -94 q 38 -74 34 -55 l 30 -47 l 48 -32 l 51 -7 l 62 0 l 75 32 l 73 56 q 80 64 94 95 l 91 99 l 91 106 l 94 110 l 94 117 l 105 117 l 109 125 q 108 130 110 145 q 113 162 113 167 l 130 170 l 130 185 l 138 192 l 138 213 l 141 213 l 141 231 l 120 231 q 102 227 98 224 l 95 220 q 83 212 69 206 l 66 199 q 56 196 34 188 l 27 192 l 27 203 q 27 213 34 220 l 45 220 l 52 227 l 69 227 q 93 240 102 255 q 123 267 145 263 l 159 270 l 167 270 l 180 281 l 206 285 q 212 275 227 259 l 227 252 l 230 252 z"},"i":{"x_min":0,"x_max":238,"ha":238,"o":"m 259 447 l 252 441 q 250 420 238 412 l 238 402 l 230 394 l 226 380 l 213 377 q 211 362 204 353 q 193 346 184 336 l 171 332 l 163 353 q 164 363 164 385 q 177 406 170 430 q 177 447 188 459 l 206 466 l 209 470 q 217 474 226 474 l 242 474 q 252 469 259 459 z m 211 73 q 212 65 205 49 l 198 45 l 194 38 l 190 38 l 183 30 l 168 27 q 167 24 162 18 q 157 11 156 8 l 144 -1 l 129 -5 l 126 -9 l 112 -12 l 108 -16 l 90 -9 q 68 -11 47 -1 l 47 2 q 43 8 40 10 l 33 13 q 24 28 24 44 l 29 56 q 37 61 56 96 q 68 118 80 141 q 81 153 97 195 l 97 202 l 101 206 l 101 209 l 105 209 l 113 225 l 112 241 l 108 245 q 94 243 83 234 l 83 230 q 63 224 55 220 l 47 212 q 37 211 26 206 l 19 207 l 12 212 l 10 220 l 12 230 q 29 244 40 246 q 56 249 71 251 q 78 254 90 260 q 119 273 162 273 q 163 273 169 271 q 175 270 176 270 q 185 261 190 249 l 194 249 q 198 242 198 222 q 198 220 195 206 q 191 203 179 188 l 168 184 l 166 173 l 162 173 l 155 167 q 156 152 151 134 l 148 134 q 146 122 140 113 l 129 103 q 118 65 119 62 l 116 62 q 115 54 111 37 l 112 25 q 126 26 152 41 q 178 56 183 69 l 195 76 l 204 77 z"},"y":{"x_min":0,"x_max":428,"ha":428,"o":"m 428 258 q 420 243 417 234 l 413 234 l 410 223 l 402 216 l 399 208 l 389 198 l 389 195 l 378 177 l 356 167 l 359 163 l 354 158 q 350 138 342 98 l 328 84 l 324 66 l 317 59 q 319 47 313 34 l 306 26 l 306 20 l 299 20 l 292 -5 q 282 -17 274 -20 l 274 -23 q 256 -43 260 -68 l 252 -80 l 252 -87 q 247 -98 231 -116 l 231 -124 l 224 -126 l 224 -134 l 213 -141 l 213 -148 l 209 -148 q 209 -160 192 -196 q 184 -201 170 -212 l 173 -220 l 170 -230 l 157 -241 l 156 -246 q 153 -248 135 -248 l 128 -251 l 128 -262 q 106 -281 103 -291 l 99 -291 l 96 -297 l 85 -305 l 67 -309 l 60 -315 l 57 -323 l 31 -334 l 28 -334 l 24 -341 q 4 -346 -36 -355 q -49 -358 -93 -358 q -104 -355 -104 -355 q -113 -343 -132 -334 l -140 -323 l -140 -309 l -147 -294 l -147 -276 l -143 -273 l -143 -258 l -128 -240 q -111 -237 -104 -234 l -79 -234 q -78 -234 -58 -237 l -51 -245 q -45 -261 -47 -269 l -54 -280 q -68 -290 -85 -290 l -101 -287 l -112 -280 l -115 -280 l -115 -291 l -122 -301 l -112 -301 l -101 -319 l -93 -319 l -90 -326 l -75 -334 q -47 -333 -21 -323 q -18 -319 -11 -312 q 12 -317 39 -294 l 39 -291 l 49 -287 l 49 -284 l 63 -269 l 67 -269 l 74 -254 l 85 -254 l 107 -230 q 117 -214 128 -180 q 142 -167 142 -141 l 146 -141 l 146 -134 l 150 -126 l 157 -124 l 167 -102 l 170 -102 l 170 -94 l 181 -84 l 185 -48 q 180 -35 181 -26 l 185 -26 q 188 -19 196 -13 q 183 -6 160 -9 q 150 -5 141 -1 q 132 3 125 13 q 111 17 110 17 l 99 30 l 96 30 q 97 42 78 72 l 74 91 q 75 97 81 114 q 85 129 85 137 l 96 141 l 98 149 l 103 152 l 103 156 l 121 169 l 128 187 l 128 195 l 135 206 l 131 216 l 135 227 l 131 234 q 113 232 99 223 q 93 207 85 202 q 69 199 46 184 l 42 184 l 24 187 l 21 191 l 24 202 l 31 206 l 39 202 l 57 208 l 67 219 l 70 227 q 79 238 99 255 l 107 255 l 128 269 q 136 268 153 272 q 172 276 178 276 q 186 276 203 269 q 208 249 217 227 l 213 227 l 207 223 l 207 208 l 203 208 l 203 206 l 200 206 l 198 187 l 193 177 l 196 159 l 189 134 l 181 127 l 181 120 l 178 120 l 167 102 l 164 102 q 165 98 161 82 q 168 63 174 59 l 174 56 q 182 53 192 41 l 196 30 l 203 26 l 231 31 q 241 39 260 56 l 263 62 l 278 66 l 278 76 q 284 83 290 104 q 297 130 299 134 l 313 148 l 320 177 l 328 187 l 328 191 l 331 191 l 335 202 l 339 202 l 346 206 l 350 219 l 353 219 l 353 230 l 356 234 l 356 258 l 367 269 q 378 272 399 280 l 421 280 z"},"@":{"x_min":0,"x_max":792,"ha":792,"o":"m 817 382 q 812 363 813 354 l 811 354 q 812 350 807 336 l 800 332 l 789 332 l 778 321 q 774 308 774 306 l 768 299 q 763 274 761 243 q 744 233 733 205 q 719 165 718 163 q 712 153 681 115 q 673 112 660 96 l 657 89 l 650 89 l 642 82 l 642 78 l 628 75 l 614 59 l 582 46 q 572 30 532 15 l 529 11 q 516 5 507 7 l 496 0 l 481 0 q 453 -12 425 -18 l 408 -15 q 394 -18 393 -18 q 385 -18 373 -16 l 364 -11 l 364 -4 q 342 -2 325 7 l 325 11 q 313 7 308 4 l 289 4 q 284 6 268 11 q 256 22 210 39 q 208 41 178 82 l 178 89 l 162 114 l 160 133 q 148 149 132 186 l 115 189 l 115 207 l 100 221 l 93 243 q 101 264 104 286 l 100 299 q 97 303 93 306 q 93 314 90 333 q 88 351 89 360 q 101 399 125 415 l 132 442 l 136 442 q 155 454 162 466 l 171 499 l 175 499 q 180 511 208 532 l 210 542 q 223 552 225 560 q 238 566 257 583 q 279 601 289 607 q 303 612 328 627 q 332 628 371 646 q 382 651 434 666 q 486 680 492 678 l 499 681 l 503 678 q 510 680 521 674 l 549 678 l 549 674 l 568 674 l 568 670 l 571 670 l 571 664 l 589 664 l 599 660 l 603 653 l 621 646 q 626 639 635 625 q 639 623 657 610 l 653 603 q 672 584 696 582 q 703 577 709 564 l 725 557 l 731 557 l 735 553 q 738 547 743 534 q 748 521 750 514 l 746 471 l 735 453 l 725 446 l 718 446 q 706 449 707 449 l 696 464 l 689 488 l 678 488 l 653 507 l 653 521 l 660 539 q 651 552 646 564 l 639 564 l 631 575 l 625 575 l 618 582 l 603 582 l 603 588 l 589 603 l 589 607 q 575 621 540 631 q 521 625 502 629 l 485 625 l 481 621 q 471 622 453 618 l 436 624 l 414 621 l 399 612 q 370 609 364 610 l 364 607 q 351 599 343 588 q 325 588 292 568 l 292 564 l 268 549 l 261 529 q 242 515 232 505 q 229 494 208 460 q 208 459 203 438 l 191 425 q 192 411 184 389 q 175 366 175 354 q 175 348 177 333 q 179 318 178 311 l 189 303 q 185 272 185 278 q 185 265 204 207 l 203 185 q 208 171 226 150 l 229 132 l 247 128 l 264 93 q 275 85 296 71 q 318 66 336 67 l 336 64 l 350 64 l 361 54 q 372 50 403 50 l 410 57 l 429 54 l 438 46 l 457 46 q 461 46 471 48 q 480 50 485 50 q 498 57 514 61 l 521 67 l 540 67 q 554 73 568 89 l 599 96 l 603 100 l 607 100 l 607 107 l 621 111 l 621 118 l 650 125 q 658 138 670 163 q 672 174 678 196 l 689 207 l 692 225 l 696 228 l 700 228 q 708 243 718 267 q 719 285 727 321 q 720 344 709 354 l 696 354 l 689 347 l 692 336 l 670 321 l 667 314 l 657 314 l 646 303 l 646 292 q 639 287 635 278 l 621 267 q 615 252 603 239 l 589 239 l 575 221 q 563 216 553 217 l 546 221 l 532 210 l 525 193 q 506 188 496 189 l 492 186 l 489 189 l 479 189 q 457 208 453 239 l 446 246 l 442 246 q 435 239 421 225 l 418 217 l 399 210 l 393 204 l 376 197 q 360 197 354 204 l 342 204 l 332 210 l 318 210 l 303 217 l 296 236 l 296 239 l 289 243 q 285 261 286 271 l 289 271 q 292 289 303 321 l 314 327 q 319 333 330 376 q 346 395 354 417 q 359 425 376 434 q 393 444 398 452 l 418 460 l 425 467 q 454 479 469 479 q 493 479 525 467 l 529 471 l 564 471 l 582 464 l 599 464 l 607 460 l 603 457 l 596 438 l 596 428 l 592 425 l 592 414 l 589 410 q 579 406 568 399 l 564 389 l 568 382 l 564 375 l 564 347 l 549 328 l 553 328 l 553 325 q 539 316 529 303 q 530 292 525 256 l 521 256 l 521 250 l 514 243 l 518 239 l 529 239 l 529 243 l 540 253 l 549 253 l 557 256 l 564 250 l 579 250 q 592 262 607 286 l 607 299 l 614 314 q 614 314 635 325 q 641 333 653 350 q 662 356 678 371 l 692 371 l 700 378 l 700 393 l 713 396 l 721 407 l 739 399 l 771 399 l 774 403 l 796 407 q 803 401 811 386 z m 532 449 q 504 453 507 453 l 471 453 l 446 438 l 430 411 q 426 367 398 341 l 396 317 l 389 314 l 386 292 l 379 284 l 375 267 l 368 264 l 364 256 l 364 253 q 361 249 354 243 l 354 236 q 355 233 371 225 q 379 227 407 246 l 410 246 q 422 251 432 267 l 438 271 l 438 278 l 446 282 q 445 288 449 302 q 453 316 457 321 l 479 336 l 479 343 l 489 354 q 494 372 492 393 l 499 407 l 503 410 l 503 414 l 510 417 q 518 429 521 438 l 525 438 z"},".":{"x_min":0,"x_max":221,"ha":221,"o":"m 116 34 l 111 30 l 111 18 l 102 18 l 94 5 l 84 13 l 76 8 l 63 13 l 60 8 l 60 0 l 55 0 l 37 13 l 37 18 l 34 21 l 34 39 l 29 42 l 37 55 l 51 64 l 55 81 l 60 86 l 71 90 l 81 86 l 81 81 l 84 77 l 94 77 l 98 81 l 111 68 l 111 55 l 116 47 z"},"p":{"x_min":0,"x_max":441,"ha":441,"o":"m 408 184 q 402 160 396 136 q 387 107 372 93 l 372 85 q 362 74 354 61 l 354 54 q 351 51 343 35 l 336 32 l 326 22 l 314 18 l 312 15 q 287 2 253 4 l 247 0 q 237 4 218 15 l 218 18 l 208 43 l 218 46 l 225 54 l 240 46 l 243 35 l 256 32 q 272 32 292 46 l 303 64 l 303 67 l 321 75 l 329 85 l 332 107 l 336 107 l 336 128 q 325 145 328 184 l 325 184 l 325 199 l 321 202 l 318 212 l 298 209 q 274 178 247 146 q 237 143 229 136 l 218 122 l 218 118 l 204 108 q 200 100 190 85 l 186 85 l 182 78 l 179 78 q 180 71 176 59 q 171 42 170 39 q 166 33 154 21 l 154 15 l 151 15 l 151 7 q 140 2 132 -21 q 126 -37 122 -54 q 116 -63 108 -85 l 104 -89 q 97 -108 92 -132 l 80 -147 q 79 -167 66 -187 q 53 -208 35 -214 q 29 -222 18 -236 l 4 -243 l -7 -256 q -24 -269 -54 -271 q -96 -273 -103 -275 l -107 -271 l -118 -271 q -170 -249 -178 -210 l -189 -200 l -189 -193 l -192 -193 l -196 -182 l -192 -167 q -177 -151 -153 -146 l -153 -143 l -142 -143 l -142 -139 q -127 -133 -100 -130 q -69 -125 -57 -122 l -24 -128 l -32 -133 l -50 -132 l -63 -143 l -74 -146 l -83 -159 q -103 -162 -139 -175 l -139 -182 l -154 -192 l -157 -204 q -139 -221 -131 -231 q -115 -236 -96 -246 l -81 -246 q -82 -246 -27 -232 l -21 -217 l -8 -204 q 1 -178 25 -149 l 23 -133 q 28 -112 39 -91 l 39 -77 l 51 -57 l 51 -46 l 55 -43 q 62 -20 62 -11 l 77 10 l 79 19 l 87 28 l 87 35 l 83 35 q 89 51 97 85 l 100 85 l 100 89 l 106 95 l 106 106 q 117 117 120 125 l 116 128 l 120 132 l 116 136 q 123 145 125 154 l 125 157 l 122 157 l 122 167 l 125 175 l 128 175 l 125 189 q 95 183 91 183 q 90 183 61 186 l 47 182 l 21 186 l 21 189 l 11 189 l 0 200 l 4 207 l 25 214 q 31 210 82 210 l 104 221 l 115 221 l 122 228 l 132 228 l 151 239 l 154 243 l 161 246 q 164 261 175 292 q 180 296 240 296 l 243 292 l 247 271 l 240 264 q 243 241 229 221 l 225 221 l 225 217 l 221 217 q 222 213 220 205 q 218 196 218 193 q 218 191 221 173 l 209 148 l 232 160 q 242 169 256 191 q 271 215 278 223 q 289 231 311 245 q 352 263 371 259 l 389 249 l 389 245 l 393 241 l 393 238 l 396 238 q 401 232 401 195 l 404 191 l 404 188 z"},"X":{"x_min":0,"x_max":967,"ha":967,"o":"m 952 41 l 948 26 q 926 10 919 -13 l 891 -27 l 823 -20 l 823 -17 l 774 -8 l 724 26 l 724 33 l 702 55 l 698 69 l 680 76 q 668 100 637 141 l 637 144 q 619 163 607 199 q 592 249 587 258 l 581 258 l 577 269 l 562 282 l 545 276 q 544 272 524 251 l 524 244 l 491 219 l 487 208 l 474 202 l 470 194 q 459 190 452 183 l 445 176 q 434 171 413 159 q 410 155 402 148 q 387 142 359 126 q 359 126 346 113 l 346 102 l 316 62 q 302 55 287 47 q 270 37 263 26 l 249 22 q 240 14 206 5 q 168 -5 156 -13 l 127 -13 q 122 -13 110 -9 l 88 20 l 63 30 l 56 41 q 46 100 46 99 q 46 117 57 135 l 70 148 l 77 176 l 92 198 l 92 205 q 107 211 121 226 l 125 241 l 138 244 l 160 262 q 180 264 198 280 q 261 288 285 287 l 305 276 l 305 251 l 310 244 l 310 233 l 305 233 l 305 219 l 298 212 l 298 198 q 270 177 259 155 l 255 155 l 252 126 l 242 124 q 234 126 220 137 l 216 148 l 209 155 l 206 166 l 195 173 l 199 198 q 206 204 220 215 l 235 219 l 245 237 l 249 262 l 235 262 q 199 262 167 241 l 164 226 q 124 206 109 161 q 91 104 77 88 l 81 65 q 109 35 124 29 q 134 24 153 26 q 174 37 216 59 q 222 60 231 62 q 267 83 285 105 l 285 113 l 302 133 l 335 148 l 353 166 l 374 173 q 389 187 420 212 l 435 215 q 464 250 487 273 l 487 276 q 491 281 502 287 l 506 287 l 509 304 q 526 311 542 331 q 542 346 524 373 l 520 373 q 512 398 470 426 l 466 440 l 470 447 l 463 454 l 463 458 l 452 476 l 435 486 l 435 494 l 425 510 l 413 516 q 408 534 402 552 q 395 578 395 590 q 395 594 396 597 l 381 612 q 363 615 362 615 q 358 615 349 613 q 339 612 335 612 q 331 612 322 613 q 313 615 310 615 q 261 617 259 617 q 230 620 209 629 l 184 654 l 181 679 l 199 701 q 230 706 281 723 l 313 719 l 324 723 q 340 718 370 708 q 414 689 427 672 q 440 669 452 658 l 452 651 l 456 651 q 466 655 487 662 q 495 663 509 666 q 522 673 557 683 l 557 707 l 540 728 q 567 741 591 736 l 606 729 l 609 729 l 624 701 l 620 686 l 624 675 q 620 673 606 655 l 574 636 q 530 636 484 625 l 487 594 q 495 581 498 573 l 506 565 q 514 537 532 503 q 552 465 570 452 l 574 441 q 599 417 602 402 l 609 434 l 617 434 q 636 450 645 469 l 648 469 l 648 486 l 659 501 q 662 515 669 541 q 676 555 704 587 q 731 619 746 628 q 770 639 810 660 q 848 666 851 666 q 881 666 906 654 q 915 643 927 621 l 927 614 l 908 585 l 908 582 q 903 573 891 560 l 888 553 l 877 549 l 858 557 l 858 560 l 866 582 l 880 592 l 888 607 l 888 614 l 866 625 q 820 625 803 612 q 781 593 741 549 l 728 494 l 720 486 l 717 476 q 708 461 695 444 l 695 434 l 680 416 l 659 404 l 634 371 q 635 368 652 347 l 656 325 l 667 319 q 669 311 680 297 l 670 291 l 688 280 l 692 269 l 689 258 q 707 240 717 223 l 717 212 l 729 202 l 727 188 l 742 178 q 750 164 763 148 l 763 144 l 767 144 q 778 129 790 98 q 801 66 811 53 l 826 30 l 842 31 l 859 17 q 883 18 908 37 l 927 62 l 948 59 z m 355 655 l 338 666 l 335 675 l 310 675 l 302 690 q 296 689 285 691 q 274 693 270 693 q 254 693 213 672 l 209 666 l 209 655 l 245 651 q 254 635 321 635 q 331 635 346 640 z"},"*":{"x_min":0,"x_max":386,"ha":386,"o":"m 426 448 l 419 441 l 394 431 l 383 441 l 380 452 q 363 466 348 463 l 335 470 l 326 483 l 322 483 l 319 487 l 319 491 l 312 487 l 312 470 l 304 455 l 304 434 q 304 430 307 421 q 310 412 309 405 l 304 398 l 309 381 l 293 370 l 283 370 l 280 373 l 272 373 l 269 377 l 265 395 l 276 409 l 276 427 l 272 431 l 269 431 l 269 434 l 261 444 l 265 473 q 274 482 280 491 l 280 494 l 276 498 l 276 509 l 272 509 l 254 487 l 250 487 l 244 478 l 215 459 l 201 459 l 190 444 q 181 439 162 441 l 155 448 l 155 466 l 166 483 q 177 490 205 487 l 205 494 l 219 505 l 233 505 q 238 514 248 520 l 250 520 l 250 531 l 258 538 l 261 538 l 258 552 l 248 552 l 240 559 l 240 566 q 223 573 190 583 l 172 598 l 169 613 l 172 630 l 180 637 l 198 641 l 211 626 l 211 613 l 219 609 l 219 605 l 222 602 l 233 602 l 233 594 l 244 583 l 261 581 l 272 574 l 272 570 l 276 570 l 283 577 l 276 591 q 290 608 287 624 l 280 634 l 280 652 l 291 669 l 304 673 l 315 669 l 322 655 q 315 640 315 613 q 315 615 319 591 l 322 587 l 330 587 l 344 609 l 361 613 l 380 634 l 397 637 l 408 626 l 408 620 l 415 609 l 415 598 l 404 587 l 394 587 l 387 594 l 380 594 l 369 581 l 351 577 l 348 566 l 337 559 l 337 548 l 322 534 l 322 527 l 326 520 l 337 516 l 351 502 l 351 491 l 369 494 l 380 477 l 387 473 l 400 477 l 419 473 q 423 464 426 448 z"},"Y":{"x_min":0,"x_max":771,"ha":771,"o":"m 969 -130 l 966 -167 q 944 -188 938 -216 l 908 -230 l 895 -255 q 858 -261 830 -259 l 816 -266 l 806 -262 q 771 -266 777 -266 q 751 -266 695 -249 q 660 -252 667 -252 q 672 -252 641 -249 l 626 -234 l 617 -238 l 606 -255 l 595 -259 q 590 -265 556 -291 l 520 -301 l 502 -316 l 495 -334 l 484 -345 l 484 -349 l 466 -366 q 434 -377 427 -384 q 412 -383 385 -377 q 356 -386 335 -384 l 331 -381 q 252 -385 222 -348 q 215 -329 203 -316 l 203 -312 l 195 -305 q 170 -300 121 -288 q 114 -281 99 -270 l 95 -251 l 81 -234 q 70 -231 53 -212 l 49 -180 l 56 -160 q 83 -135 92 -120 q 106 -115 134 -106 q 148 -100 177 -88 q 206 -88 235 -91 l 259 -84 q 304 -88 346 -110 q 351 -108 402 -124 l 424 -120 l 448 -127 q 469 -113 488 -83 q 510 -50 510 -26 q 510 -21 509 -17 l 516 -6 l 516 12 q 525 16 545 80 q 568 150 574 159 l 574 176 l 577 176 l 581 191 q 591 206 606 219 l 609 226 q 615 239 625 266 q 630 285 635 304 q 641 325 652 338 l 652 359 q 671 389 673 405 l 667 409 q 642 394 626 373 l 626 365 l 609 358 l 598 341 l 598 337 l 591 319 l 584 315 l 566 283 l 566 280 l 556 272 l 556 265 q 546 246 546 229 l 531 208 l 524 205 q 521 199 513 188 q 505 178 502 172 q 488 165 484 159 l 459 148 q 440 157 409 159 q 387 175 355 180 l 353 194 l 338 205 l 331 230 l 335 244 l 338 248 l 342 272 l 335 297 l 338 312 l 335 326 q 342 337 348 358 q 354 379 359 388 l 370 397 q 376 413 386 444 q 387 458 392 486 q 406 498 431 523 q 437 542 446 552 q 450 567 448 580 l 427 604 l 416 604 q 412 599 374 582 q 357 574 329 550 q 300 526 285 519 l 231 493 l 231 490 l 224 490 l 199 462 l 195 462 l 192 447 l 174 430 l 163 425 l 159 412 q 135 385 90 327 l 88 309 l 92 293 l 110 287 q 157 295 167 293 q 189 305 235 326 q 245 343 270 373 l 273 400 l 252 391 l 245 373 l 227 365 l 206 365 q 193 374 185 394 q 186 400 206 437 l 213 440 l 213 443 q 238 453 255 462 l 298 465 l 313 454 l 324 426 l 320 423 l 324 408 q 319 397 313 376 q 309 374 294 354 l 285 352 l 285 344 l 270 330 l 266 319 q 261 314 249 304 q 193 271 154 271 q 149 271 145 272 l 121 262 q 106 264 76 270 l 60 283 l 63 291 l 60 297 l 60 304 q 64 322 70 358 l 77 365 l 81 365 l 84 373 l 94 380 q 98 397 125 430 q 150 461 167 474 q 178 480 199 493 q 209 504 235 523 l 245 537 q 259 548 295 568 q 334 589 347 591 q 413 654 479 654 q 481 654 502 651 q 508 637 522 608 q 525 604 527 602 q 527 600 528 597 l 531 590 l 538 586 q 542 569 542 534 q 542 524 535 504 q 510 475 491 458 q 482 434 484 423 l 474 394 l 470 391 l 470 387 l 459 383 q 449 375 436 356 q 422 337 413 330 q 405 305 396 293 l 392 272 l 396 254 l 392 251 l 405 241 l 420 212 l 438 198 l 452 194 l 487 215 q 493 223 502 241 l 513 248 q 532 282 535 309 q 536 310 548 341 l 556 348 l 556 352 l 559 352 l 563 365 l 571 366 q 576 373 606 397 l 613 423 l 630 430 l 634 437 l 645 443 l 652 458 l 667 465 l 673 473 l 680 473 l 684 490 l 712 504 l 724 523 l 748 541 l 759 565 q 768 572 787 583 l 791 597 q 807 604 838 619 q 854 629 888 647 q 898 655 901 665 q 929 682 948 679 l 948 665 l 941 662 l 938 647 l 912 625 q 910 618 897 608 l 888 604 q 885 591 863 565 q 839 538 833 522 q 827 512 818 497 q 804 476 790 456 q 773 431 767 411 q 766 402 763 384 q 760 377 755 364 q 753 354 748 333 q 746 332 728 304 q 720 296 706 280 q 690 257 676 194 l 667 187 l 667 183 l 648 166 l 632 110 q 602 73 574 22 q 576 0 551 -41 q 526 -83 527 -99 l 506 -120 l 502 -130 l 498 -130 l 498 -149 l 516 -152 l 520 -163 q 564 -172 620 -188 l 637 -184 l 656 -169 l 667 -169 q 670 -161 689 -147 q 709 -134 720 -130 l 734 -130 q 742 -126 756 -117 q 773 -114 806 -106 l 809 -110 l 838 -110 l 852 -102 l 895 -95 q 913 -102 948 -113 z m 930 -156 l 930 -141 l 919 -124 l 897 -120 q 839 -126 816 -138 l 802 -134 q 777 -145 751 -155 q 722 -167 706 -184 l 691 -188 l 676 -199 q 688 -205 718 -215 q 750 -227 759 -227 l 795 -227 q 799 -227 809 -225 q 819 -223 823 -223 q 821 -223 845 -227 l 866 -219 l 869 -212 l 884 -209 q 898 -200 923 -177 q 926 -171 930 -156 z m 570 -223 l 566 -216 q 505 -194 477 -194 q 471 -194 466 -195 q 449 -217 427 -223 l 424 -230 q 399 -250 366 -270 l 355 -280 l 338 -284 l 335 -288 q 309 -299 266 -294 l 252 -301 l 231 -303 l 238 -320 l 249 -331 q 272 -343 324 -352 l 338 -349 l 338 -345 l 355 -345 l 374 -334 q 426 -331 455 -316 q 485 -301 516 -259 l 538 -249 q 545 -242 559 -227 z m 398 -169 l 398 -163 l 388 -152 q 358 -151 312 -134 q 267 -117 245 -117 q 231 -121 224 -124 q 177 -120 188 -120 q 181 -120 156 -127 q 132 -134 125 -138 l 117 -149 l 106 -152 l 99 -167 l 84 -169 q 81 -190 81 -191 q 81 -192 84 -209 l 99 -219 l 103 -234 q 138 -267 181 -277 l 185 -251 l 177 -234 l 177 -212 l 185 -209 l 181 -191 l 195 -177 l 209 -173 l 220 -160 q 226 -157 245 -152 l 277 -152 l 292 -160 l 305 -160 q 318 -179 320 -188 l 317 -200 q 309 -204 292 -211 l 277 -209 l 259 -188 l 235 -188 q 229 -200 213 -209 l 209 -230 q 212 -240 216 -245 l 213 -251 l 209 -251 l 216 -273 q 249 -264 266 -266 q 283 -259 302 -255 l 310 -245 l 316 -241 q 326 -226 353 -206 l 359 -191 l 381 -184 l 396 -169 z"},"c":{"x_min":0,"x_max":316,"ha":316,"o":"m 337 247 l 336 237 q 329 223 320 214 l 286 211 q 260 225 249 233 q 235 231 226 231 q 223 231 217 232 q 211 234 208 234 q 208 234 184 231 l 166 219 q 164 213 160 208 q 154 192 138 161 l 138 151 l 127 144 l 128 136 l 124 127 l 116 124 l 116 120 l 105 106 q 101 87 102 80 l 109 80 q 104 59 105 41 l 109 34 q 112 32 134 23 q 151 24 180 35 q 210 46 220 58 l 224 70 l 231 79 l 247 88 l 260 86 l 265 76 l 273 69 l 273 59 q 253 44 245 34 q 228 27 208 17 q 196 15 187 9 l 184 9 l 180 2 l 180 0 l 170 0 l 159 -9 l 141 -9 q 115 -9 95 -2 l 95 6 l 80 17 q 78 26 73 30 q 64 39 45 43 q 41 57 30 68 q 26 82 26 109 q 26 122 35 142 q 44 162 55 169 l 53 173 l 55 180 l 59 180 l 65 195 l 65 198 l 73 208 l 85 213 q 88 224 97 233 l 111 241 l 117 255 l 130 259 l 135 267 l 148 267 l 167 277 q 183 278 215 284 l 245 277 l 251 266 q 273 262 285 253 q 290 253 301 254 q 312 254 317 254 q 327 254 337 247 z"},"!":{"x_min":0,"x_max":330,"ha":330,"o":"m 441 637 l 440 630 l 437 625 l 438 621 l 438 615 l 435 611 l 434 605 l 427 605 l 414 592 l 413 585 q 408 573 383 563 l 380 547 l 382 543 q 379 538 353 486 l 342 482 q 339 459 328 416 l 319 406 l 306 402 q 304 395 300 381 q 297 372 284 347 l 262 332 q 259 325 262 310 q 255 300 244 281 q 239 258 239 239 l 224 222 l 231 222 l 229 213 l 225 209 l 223 200 l 212 191 l 210 181 q 200 169 175 146 l 173 136 l 167 136 l 163 143 q 163 159 157 165 q 158 178 168 207 q 177 234 177 249 l 182 251 l 184 264 l 187 264 q 189 283 195 292 l 200 296 l 204 322 l 207 322 l 214 332 l 218 354 l 222 357 l 230 381 l 224 391 l 227 406 l 239 416 l 245 432 l 242 435 l 244 441 l 241 443 q 251 455 270 489 l 271 505 q 272 507 290 521 q 288 535 292 550 l 290 553 l 291 560 l 309 573 l 310 576 l 315 576 l 320 583 l 321 588 l 325 595 q 326 605 330 625 l 351 646 l 371 656 l 391 656 l 396 653 l 400 656 l 407 656 l 414 663 l 424 663 l 433 656 l 438 646 l 436 640 z m 159 29 q 159 28 158 24 q 158 21 158 20 l 153 18 q 150 9 143 -2 q 135 -2 129 -8 q 128 -8 126 -7 q 124 -7 123 -7 q 122 -7 120 -7 q 118 -8 117 -8 l 116 -16 q 105 -16 88 -12 l 85 -8 l 81 -8 l 81 0 l 77 4 q 77 21 83 29 q 83 31 83 34 q 82 38 82 39 q 82 48 88 54 l 93 55 l 98 64 l 102 64 l 102 68 l 112 73 l 130 70 q 131 70 134 71 q 137 72 138 72 l 148 72 l 151 61 l 157 53 q 159 37 159 29 z"},"/":{"x_min":0,"x_max":382,"ha":382,"o":"m 542 697 q 539 685 518 667 q 509 646 500 626 q 489 605 472 593 l 470 585 l 465 581 l 461 581 q 453 559 396 495 l 393 483 q 379 472 359 441 q 341 412 338 410 l 325 380 l 327 372 q 321 340 310 333 l 306 333 l 292 320 q 291 319 273 291 l 269 291 l 253 273 l 247 273 q 239 259 223 234 q 220 231 214 225 l 194 217 q 191 206 181 187 q 169 167 167 158 q 151 143 135 135 l 128 123 l 130 106 l 128 98 l 125 93 l 121 93 l 116 75 q 94 58 65 25 q 62 15 53 -5 q 43 -24 40 -35 l 28 -48 l 9 -50 l 4 -48 l -5 -53 l -22 -53 l -30 -57 l -33 -53 l -31 -44 q -32 -42 -33 -38 q -34 -33 -34 -31 l -13 -6 l -11 3 l 13 37 l 17 37 q 27 51 52 80 q 84 114 102 158 l 119 174 l 137 179 l 144 196 l 155 205 l 157 213 l 166 221 q 167 233 177 251 q 187 269 188 278 q 197 292 220 314 q 243 337 251 350 q 260 363 273 396 q 284 426 295 439 l 308 444 q 319 459 344 474 q 353 485 354 504 q 365 512 392 558 q 417 603 422 620 q 453 646 465 675 l 469 675 l 470 679 l 473 679 l 476 687 l 483 687 l 484 692 l 488 697 l 511 709 l 525 709 z"},"[":{"x_min":0,"x_max":392,"ha":392,"o":"m 650 776 l 645 758 l 629 758 q 624 758 614 760 q 604 761 599 762 q 606 761 564 761 q 542 761 530 768 l 520 762 l 489 758 l 475 728 l 475 718 l 469 718 q 445 674 440 637 l 426 618 l 426 607 l 420 607 q 413 582 399 567 l 396 548 l 380 542 l 375 537 l 380 533 l 380 522 l 369 508 l 365 508 l 355 497 l 355 487 l 335 447 l 335 388 q 312 343 311 327 l 304 327 l 295 323 l 290 317 q 280 271 255 242 l 255 233 l 235 217 l 229 208 l 229 199 q 224 187 215 163 q 214 152 210 132 q 209 127 201 114 l 186 103 l 186 98 l 174 98 l 180 59 q 172 51 169 36 q 163 13 163 12 q 152 -8 135 -53 l 131 -53 l 125 -62 l 116 -62 l 105 -77 l 105 -87 l 111 -96 l 131 -87 l 135 -87 l 145 -96 q 174 -92 210 -82 l 241 -87 l 250 -71 l 259 -67 l 275 -71 q 282 -85 280 -108 l 255 -108 l 225 -126 q 179 -121 145 -123 l 145 -117 l 80 -123 l 61 -132 l 46 -132 l 40 -126 l 40 -112 l 25 -96 q 29 -87 46 -67 l 46 -53 l 56 -41 l 64 -7 l 70 -7 l 80 2 l 74 8 l 80 14 l 80 18 l 85 18 l 111 59 l 120 62 l 120 68 l 140 77 l 135 124 q 143 135 156 158 l 174 158 l 195 208 q 193 220 198 242 q 202 264 201 272 q 223 316 245 333 l 255 333 l 259 348 l 265 348 l 265 367 l 270 367 q 268 391 268 402 q 268 415 270 438 q 281 457 311 497 l 330 502 q 337 512 341 542 l 355 567 q 356 580 359 603 q 382 699 410 733 l 414 733 l 420 747 l 426 747 l 426 758 l 430 758 l 435 776 l 454 792 l 465 782 l 480 782 l 489 788 l 550 788 q 554 788 581 782 l 599 792 l 645 788 z"},"6":{"x_min":0,"x_max":363,"ha":363,"o":"m 344 336 q 342 332 339 322 q 335 313 334 309 l 328 304 l 311 304 l 306 308 q 303 327 299 333 l 292 333 l 292 336 l 281 340 l 270 336 l 267 326 q 255 323 239 306 q 221 287 210 283 q 206 268 192 257 l 192 254 q 181 250 170 238 q 157 222 153 218 l 153 211 l 146 211 q 132 191 121 175 l 121 168 q 121 166 123 158 q 125 151 125 147 l 131 144 l 128 136 q 148 121 163 89 l 174 83 l 181 86 l 185 86 l 185 79 l 192 75 l 196 55 l 203 47 q 216 40 239 40 q 248 42 250 44 l 250 47 l 256 47 l 267 55 l 270 64 l 278 72 l 278 75 l 285 83 l 289 94 l 285 119 l 278 125 l 278 133 l 270 136 l 271 140 l 269 144 l 270 151 l 267 158 q 256 164 246 162 q 234 169 228 172 l 224 172 l 213 179 l 214 185 l 207 175 l 196 172 q 186 160 178 158 l 153 158 l 144 166 l 146 176 q 162 187 196 205 l 200 215 l 217 218 l 220 225 q 239 231 263 229 l 267 225 l 267 222 l 270 222 l 273 213 l 270 201 q 283 192 311 166 l 317 125 l 321 123 l 324 108 l 321 94 l 324 75 l 313 72 l 313 64 l 311 64 l 302 58 q 297 44 281 25 l 278 16 q 270 12 261 0 q 248 -14 246 -17 q 234 -21 220 -21 q 219 -21 185 -14 q 173 -8 150 5 q 143 12 128 23 q 113 30 85 43 q 83 43 82 43 q 80 44 78 44 q 56 60 43 84 l 43 91 l 39 95 l 39 124 l 43 126 l 46 141 l 50 145 l 53 162 q 64 168 83 182 q 101 195 112 211 q 127 234 128 236 q 143 252 174 276 l 178 283 l 185 286 l 185 290 q 192 292 207 308 l 210 308 l 210 312 l 228 318 l 243 340 l 263 351 l 270 361 l 270 365 l 285 376 l 313 379 l 324 376 q 342 358 344 336 z"},"r":{"x_min":0,"x_max":305,"ha":305,"o":"m 312 207 l 311 183 l 298 180 q 295 182 270 182 q 261 182 248 189 q 238 205 232 211 l 217 217 q 204 207 197 192 l 195 178 l 184 171 l 173 154 l 174 141 l 170 128 l 162 125 l 163 111 l 152 100 q 150 84 142 75 l 131 71 l 129 59 l 131 50 l 127 35 l 121 25 l 118 12 l 105 -4 q 87 -8 79 -11 q 69 -3 50 -3 q 45 -3 32 -7 q 20 -12 15 -11 l 10 -1 l 11 11 q 19 17 34 32 q 32 50 38 61 l 42 61 l 44 69 l 49 71 l 52 80 l 56 80 l 62 98 q 68 105 82 117 q 82 127 96 144 l 96 156 q 109 184 106 201 l 99 214 l 89 217 q 83 216 70 216 l 60 209 l 49 215 l 38 213 l 34 216 l 21 216 l 21 224 q 28 234 42 238 l 52 237 q 62 248 81 252 l 95 252 l 99 255 l 114 253 q 121 253 138 267 q 152 262 163 255 q 171 243 173 235 l 173 231 l 181 214 l 184 214 q 192 230 208 248 q 227 268 242 271 l 252 267 l 259 257 q 272 252 279 242 l 279 234 l 292 221 l 305 217 l 305 214 z"},"2":{"x_min":0,"x_max":331,"ha":331,"o":"m 294 2 l 291 -6 l 270 -13 l 250 -9 q 217 18 177 13 l 170 20 l 149 26 l 138 37 q 127 43 117 41 q 94 27 88 20 q 78 18 66 18 q 55 18 45 20 l 30 16 l 20 -2 l 6 -9 l -16 5 l -16 22 l -7 36 l 5 42 l 10 41 l 16 52 l 32 62 l 52 65 l 56 69 q 69 66 91 76 l 95 84 q 104 86 110 94 l 117 94 q 133 104 133 130 l 141 134 q 146 138 157 157 q 165 172 176 176 q 201 212 201 242 q 201 282 201 282 l 195 297 l 191 297 q 187 297 138 273 l 124 254 q 114 250 110 248 l 110 241 l 102 241 l 91 226 l 84 223 l 84 219 l 69 215 l 49 219 l 45 233 q 61 244 85 262 q 112 268 121 276 l 127 287 l 127 293 l 149 304 l 152 309 q 170 310 191 323 l 206 319 q 217 323 234 326 l 249 319 l 262 304 q 266 294 273 273 l 270 269 q 271 262 268 248 q 264 232 264 224 q 264 218 265 211 q 263 208 250 187 q 238 167 238 166 q 224 152 199 144 l 195 133 l 184 124 l 184 113 l 180 113 l 167 98 l 170 94 q 208 83 224 63 l 249 55 l 249 48 l 255 44 l 262 43 q 271 29 284 22 l 288 22 z"},"{":{"x_min":0,"x_max":392,"ha":392,"o":"m 569 693 l 556 679 l 547 679 l 543 684 l 526 684 l 522 679 q 506 687 475 684 l 465 676 l 432 671 l 432 654 l 418 641 l 418 625 l 385 590 l 389 565 q 388 563 367 533 q 353 514 355 495 l 342 483 l 342 474 l 312 453 l 312 440 q 306 431 294 427 l 294 414 l 273 394 l 251 385 l 248 376 l 239 372 q 247 361 261 351 q 267 342 264 325 l 256 308 l 261 286 l 264 282 l 264 273 l 261 268 l 251 265 l 251 252 q 247 249 235 243 l 235 235 l 226 221 l 217 221 l 217 201 l 205 183 l 209 174 q 206 157 192 127 l 175 124 l 179 110 q 178 96 170 74 q 161 50 153 42 l 145 37 l 150 29 l 140 13 l 145 3 l 145 -14 l 163 -31 q 178 -36 212 -34 l 230 -18 l 248 -22 l 256 -31 l 256 -44 l 251 -47 l 248 -52 l 226 -52 l 200 -69 l 192 -69 q 181 -69 140 -52 l 128 -39 l 119 -39 l 111 -31 l 111 3 l 106 3 q 105 18 103 47 q 103 50 100 59 q 98 67 98 72 q 101 86 103 89 l 111 94 l 111 98 l 128 107 l 124 145 q 130 155 140 174 l 158 174 l 158 188 l 166 201 l 166 206 l 175 218 l 170 235 l 179 255 l 188 255 q 189 269 195 299 q 200 327 200 342 q 200 349 200 354 q 193 364 179 380 l 166 385 l 166 389 l 175 389 l 183 394 l 209 394 l 226 411 l 235 401 q 241 406 273 440 q 278 453 277 466 l 291 471 q 296 485 294 505 l 309 518 l 316 539 q 316 541 316 544 q 316 562 329 594 l 358 612 l 389 664 l 397 667 l 415 688 q 431 696 462 713 l 479 713 q 480 713 504 710 l 522 719 l 561 713 l 569 701 z"},"9":{"x_min":0,"x_max":373,"ha":373,"o":"m 341 211 l 330 190 l 330 172 l 323 165 l 316 162 l 316 154 l 309 151 l 309 144 q 298 118 284 108 q 272 106 266 101 q 261 87 251 79 l 254 77 l 251 75 l 251 54 l 248 51 l 248 33 q 239 22 219 1 l 219 -3 l 212 -10 l 195 -14 l 191 -21 q 179 -22 159 -42 q 147 -69 116 -121 l 95 -135 l 80 -157 l 73 -160 l 69 -167 l 48 -170 l 34 -185 l 13 -196 l 13 -199 l 6 -203 l -37 -205 q -41 -205 -62 -195 q -83 -186 -91 -185 l -120 -164 l -120 -160 l -130 -146 l -120 -138 l -120 -135 l -113 -131 l -102 -135 l -98 -142 l -98 -146 q -85 -152 -80 -160 l -80 -164 l -35 -172 l -5 -167 q 3 -163 21 -143 q 38 -123 41 -114 l 45 -114 l 52 -96 q 62 -91 80 -81 l 95 -63 q 90 -39 106 -17 l 106 -10 l 116 1 l 120 15 l 126 22 q 140 27 156 36 q 161 46 159 64 q 147 80 134 86 q 103 87 84 115 q 83 133 73 147 l 52 151 q 49 160 45 179 l 41 183 q 42 201 53 219 q 64 235 76 250 l 84 254 l 84 257 l 91 264 q 110 268 116 272 l 120 283 q 148 293 159 304 l 173 308 l 184 314 l 187 318 q 185 319 223 325 l 237 318 l 245 318 l 248 314 l 262 314 l 269 304 l 280 304 q 290 290 312 268 l 319 254 l 330 250 l 337 233 l 341 229 l 341 218 l 337 214 z m 266 172 l 266 208 q 261 228 256 241 q 248 249 231 267 l 221 272 q 221 297 216 304 l 195 300 l 191 293 q 165 279 138 265 q 126 256 109 214 l 113 190 q 136 177 187 112 l 198 112 q 198 112 230 123 l 241 140 l 251 140 q 255 148 262 158 q 264 162 266 172 z"}," ":{"x_min":0,"x_max":159,"ha":159,"o":""},"I":{"x_min":0,"x_max":489,"ha":489,"o":"m 712 660 l 706 646 l 699 642 l 699 631 l 688 617 l 669 621 l 656 646 l 634 656 l 624 670 l 624 681 l 603 689 l 578 685 q 560 671 552 653 l 538 646 l 538 642 l 542 642 l 542 617 l 548 599 l 545 596 l 538 567 q 529 561 517 549 l 517 542 l 513 542 l 511 525 q 502 504 480 464 l 484 460 l 484 449 l 487 442 l 480 432 l 478 406 q 479 395 485 372 q 479 358 478 332 q 455 309 446 267 q 435 250 420 239 q 416 214 400 164 q 391 151 374 124 q 372 116 366 102 q 354 88 340 61 q 342 49 342 43 q 342 34 337 20 q 323 2 295 -32 q 289 -41 250 -68 q 240 -71 164 -78 q 157 -78 144 -77 q 131 -75 125 -75 q 124 -75 103 -78 l 53 -61 l 38 -47 q 23 -19 23 18 q 23 21 24 27 q 24 34 24 37 q 30 48 49 78 q 62 87 88 104 q 107 108 142 128 l 160 132 l 170 125 l 181 122 l 199 93 l 202 78 q 190 64 185 43 l 172 43 l 160 50 l 149 63 q 122 74 114 85 l 110 85 l 103 78 l 85 71 l 66 43 l 60 39 q 48 20 53 -18 l 62 -37 l 85 -50 q 129 -47 131 -47 q 137 -47 150 -49 q 163 -50 170 -50 q 196 -43 209 -32 l 209 -25 l 220 -21 l 227 -11 l 249 -4 l 262 14 l 260 33 q 274 52 272 78 q 314 129 317 184 q 325 192 341 229 q 359 270 367 282 l 367 295 q 352 291 324 278 q 320 278 315 278 q 305 278 282 273 q 259 268 247 268 l 224 282 l 220 289 l 209 295 q 205 308 174 332 q 170 351 165 378 q 172 402 179 427 q 188 452 207 471 q 219 480 245 499 q 257 507 316 534 q 362 554 381 578 q 397 579 422 598 q 440 613 459 627 l 467 627 l 478 646 l 513 660 q 526 674 542 685 l 542 696 q 553 700 570 701 q 593 702 598 703 q 615 708 648 717 q 680 715 699 699 l 712 674 z m 445 545 l 441 556 l 413 556 q 411 553 375 540 q 339 526 331 514 q 329 514 295 503 l 295 499 q 276 488 266 485 l 256 471 l 246 464 l 231 425 l 224 417 q 213 392 216 367 l 213 364 l 216 356 l 216 339 l 213 335 l 224 325 l 231 311 l 256 292 l 288 292 l 295 299 q 302 298 371 317 q 371 325 371 342 q 372 363 372 368 q 372 373 380 399 q 388 425 392 431 q 386 445 388 464 l 398 485 l 398 495 l 402 495 l 406 503 l 429 513 q 439 524 445 545 z"},"H":{"x_min":0,"x_max":874,"ha":874,"o":"m 1125 731 l 1111 728 l 1072 734 l 1053 745 q 1047 755 1033 774 l 1033 784 l 1018 792 q 988 792 944 767 q 891 736 872 731 l 861 721 l 861 713 l 872 695 l 871 675 l 857 653 l 854 653 l 843 642 l 843 624 q 847 609 847 610 q 847 598 836 556 q 834 551 829 506 l 812 492 q 806 473 797 463 l 797 442 l 782 424 q 779 414 775 393 l 779 389 q 796 386 829 378 l 864 382 q 876 388 900 396 l 922 421 l 925 438 l 922 442 l 907 442 l 890 424 l 872 428 l 864 438 l 851 442 l 847 456 l 854 460 q 857 468 864 474 q 888 471 890 471 q 892 471 922 478 q 938 472 951 460 l 951 456 l 961 438 l 961 417 q 941 403 930 395 q 910 378 903 367 q 889 361 861 353 q 846 349 814 342 q 803 341 779 339 q 774 334 767 308 q 759 281 751 271 l 751 267 l 743 263 l 747 260 l 747 256 l 743 256 l 747 210 q 742 202 739 181 q 736 158 732 150 q 723 136 704 107 q 697 93 682 67 q 676 60 666 44 l 665 35 l 681 31 l 704 35 l 722 28 l 729 28 q 744 21 762 11 l 762 3 l 769 -4 l 773 -20 l 769 -36 l 751 -47 l 743 -47 l 732 -40 l 728 -27 l 732 -15 q 721 -4 668 0 l 662 -19 q 639 -28 629 -28 q 628 -28 608 -25 l 583 -32 l 561 -25 l 522 -29 l 504 -21 l 490 -8 l 482 14 l 490 39 l 504 53 l 519 57 l 580 50 q 599 31 622 35 l 625 48 q 617 62 619 74 q 633 94 630 135 l 641 148 q 643 156 643 185 q 643 191 647 203 q 648 211 651 226 q 664 247 679 295 q 679 297 678 302 q 677 308 677 310 q 677 314 679 324 q 688 333 690 353 l 654 371 q 649 372 582 372 q 564 372 531 375 q 497 379 479 379 q 439 379 443 378 l 433 371 l 433 356 l 422 342 l 422 335 q 413 323 411 304 l 417 286 q 417 255 397 231 l 387 231 l 380 217 l 384 203 q 382 183 365 157 l 365 139 q 359 127 351 122 l 351 114 l 330 107 q 325 104 304 42 l 293 31 l 287 11 l 254 -11 q 240 -15 219 -11 l 211 -15 l 183 -4 l 169 11 l 169 21 l 176 32 l 183 35 l 198 35 l 208 29 l 211 21 l 243 16 l 251 26 q 255 37 256 56 q 258 80 259 86 q 259 91 265 109 q 270 125 270 134 q 270 138 269 142 l 287 157 q 296 187 293 203 q 303 229 325 267 l 330 295 l 349 325 q 351 343 351 353 q 351 354 348 378 l 330 382 l 322 378 q 281 374 261 378 l 226 367 q 222 361 206 351 q 186 339 182 336 l 187 317 l 203 312 l 215 317 l 219 335 l 248 346 l 258 346 q 273 336 287 317 l 290 299 l 287 289 l 276 282 l 254 282 l 250 278 l 233 278 q 205 291 192 296 q 168 304 148 306 l 137 324 l 137 339 l 144 342 l 148 356 l 155 363 l 155 367 l 162 374 q 176 376 191 383 q 206 389 219 396 q 236 399 269 410 l 280 410 l 290 406 l 315 406 q 316 406 351 413 q 370 444 372 463 l 368 484 l 374 489 l 382 503 q 381 510 384 521 q 387 535 388 539 q 388 543 388 551 q 387 560 387 563 l 397 571 l 400 588 l 411 595 l 426 617 q 379 619 293 627 l 287 624 q 279 625 187 649 l 148 638 q 140 626 133 621 l 140 592 l 159 582 l 205 578 l 208 592 l 219 603 l 248 603 q 275 587 290 560 l 293 524 l 290 517 q 278 520 254 528 l 254 539 l 248 545 q 237 548 189 550 q 157 552 129 567 l 98 595 l 98 630 l 109 653 q 154 673 215 673 q 235 673 276 653 l 290 656 q 296 654 341 649 q 386 645 394 645 l 411 638 l 430 649 l 447 645 l 458 660 q 476 664 519 692 l 551 692 q 563 678 565 664 l 558 656 q 532 640 511 638 l 504 624 l 504 603 l 482 582 q 480 554 459 502 q 439 454 440 417 l 450 413 q 482 416 482 416 q 490 416 504 414 q 521 412 527 412 q 534 412 547 412 q 560 413 565 413 q 573 413 602 408 q 632 403 643 402 q 654 409 671 406 l 693 396 l 708 399 l 719 413 l 736 413 q 733 438 727 456 l 729 468 l 723 484 l 734 497 l 737 513 l 733 521 l 743 524 q 765 610 765 627 q 771 646 782 660 l 793 667 l 801 695 l 822 706 l 836 734 l 864 749 l 883 771 q 900 778 914 788 l 918 799 l 936 806 l 958 806 q 999 827 1040 827 q 1067 827 1100 813 q 1130 779 1125 731 z m 601 12 q 566 22 556 22 q 550 22 537 21 q 524 20 518 20 l 517 -1 q 522 -3 554 -11 l 569 -11 l 593 -1 z"},"4":{"x_min":0,"x_max":395,"ha":395,"o":"m 375 60 q 368 52 356 46 l 354 35 l 346 31 q 342 21 339 17 l 321 14 q 316 11 306 3 q 293 0 271 -19 q 248 -16 235 -22 l 235 -29 l 224 -33 l 221 -51 l 217 -51 l 217 -54 l 214 -54 l 210 -64 l 204 -72 l 196 -72 q 184 -85 178 -101 l 178 -125 q 162 -148 165 -165 l 157 -168 l 157 -179 q 150 -188 146 -201 l 139 -204 l 128 -229 l 107 -229 l 104 -222 q 111 -181 111 -175 l 122 -172 q 135 -135 132 -112 l 145 -90 q 145 -83 148 -64 q 151 -49 150 -40 l 157 -36 l 157 -19 l 146 -8 q 132 -5 118 -2 q 105 1 93 10 l 61 14 q 52 2 34 -9 q 14 -21 7 -29 l -7 -29 q -18 -27 -21 -25 l -21 -22 q -12 -10 4 17 l 11 17 l 11 24 l 14 27 l 18 42 l 28 53 q 46 59 54 63 l 54 77 l 57 77 l 57 92 l 67 114 l 67 127 l 89 160 l 89 192 l 85 199 l 85 203 l 92 219 l 88 231 l 110 254 l 116 276 l 133 278 l 139 288 l 139 295 l 167 313 l 167 317 l 180 333 q 196 345 215 347 l 232 339 l 228 328 q 208 323 196 306 l 196 302 q 186 293 174 274 l 185 259 q 187 253 187 249 q 187 243 185 231 q 183 218 182 213 l 165 209 l 154 192 q 155 189 150 175 q 146 161 143 160 l 143 153 l 139 149 l 138 146 l 140 138 l 139 131 l 128 114 l 128 103 l 125 99 l 125 96 q 121 91 111 81 l 111 70 l 115 67 q 129 62 143 63 q 149 56 157 53 l 167 60 l 171 67 l 178 70 l 178 74 q 195 79 210 99 l 210 103 l 228 118 q 252 126 260 125 l 271 114 l 271 110 l 260 99 l 253 96 q 247 85 239 81 l 239 57 l 243 53 l 243 49 l 250 38 l 264 31 q 279 37 289 38 l 292 42 l 299 42 q 313 50 343 57 l 360 70 l 371 67 z"},"~":{"x_min":0,"x_max":815,"ha":815,"o":"m 744 315 l 731 299 q 726 287 712 270 q 699 268 677 262 q 666 257 644 248 q 628 240 595 229 q 586 228 572 229 q 553 231 546 231 q 537 231 521 240 q 503 250 495 251 q 487 252 472 248 q 457 244 451 244 q 446 244 442 246 q 420 255 375 272 q 357 279 321 291 q 295 296 269 296 q 225 296 212 291 q 202 280 178 264 q 157 262 120 250 q 116 247 117 236 q 117 225 114 222 q 103 224 85 220 l 82 247 l 102 264 l 85 284 q 100 293 130 312 q 154 326 206 340 q 217 339 239 340 q 243 341 254 348 q 263 354 270 354 q 312 354 375 332 q 390 334 416 332 q 423 330 434 319 q 444 308 451 305 q 483 293 506 290 q 517 288 547 288 q 573 288 596 293 q 624 300 653 314 q 667 321 695 339 q 708 347 731 362 l 730 335 z"},"D":{"x_min":0,"x_max":826,"ha":826,"o":"m 816 308 l 809 296 l 806 296 q 799 286 799 270 q 798 250 797 245 q 788 222 773 175 q 757 146 728 125 l 720 125 l 706 97 l 684 90 l 676 79 l 667 75 q 664 69 656 61 l 648 61 l 648 58 l 620 54 q 601 26 581 19 l 566 19 l 542 4 l 513 4 q 503 -3 478 -9 q 453 -14 448 -18 l 435 -14 q 423 -21 396 -18 l 377 -7 q 376 1 367 17 q 349 33 327 29 l 294 15 l 259 15 q 255 9 237 -5 q 219 -19 211 -21 q 192 -23 167 -14 q 131 -18 138 -18 q 130 -18 113 -13 q 97 -9 88 -9 q 84 -9 81 -10 l 63 8 q 56 23 54 48 q 52 79 49 90 q 58 110 74 151 q 89 163 92 171 l 106 175 q 133 175 142 168 q 160 149 162 125 l 160 104 l 149 97 l 131 97 l 121 112 l 106 115 q 85 98 78 77 q 86 48 84 32 l 92 21 l 121 25 l 138 15 q 158 19 186 25 q 199 38 213 47 l 215 57 l 243 61 l 248 78 l 259 86 l 263 93 q 262 103 266 121 q 271 144 272 149 l 285 158 l 277 175 l 285 201 l 294 204 l 302 211 l 302 236 l 313 253 q 312 262 317 285 q 322 306 327 314 l 324 322 l 338 347 q 335 382 335 383 q 335 405 349 448 l 368 460 q 373 474 381 489 l 385 489 l 392 507 l 396 507 l 402 511 l 409 540 l 402 575 l 396 583 l 396 585 q 375 581 353 583 l 324 572 q 303 576 266 561 l 263 553 l 235 543 q 203 515 199 496 q 208 484 227 461 l 227 453 q 224 437 216 414 l 199 403 l 185 407 l 177 414 l 167 418 q 146 437 142 461 q 145 468 146 493 q 146 512 157 523 l 156 536 l 174 557 l 195 564 l 199 568 q 233 583 263 579 l 277 596 q 316 611 353 614 q 369 612 396 618 l 398 628 l 409 639 l 409 646 l 438 657 q 453 668 459 682 l 466 685 l 466 689 q 497 711 516 713 l 531 725 l 552 729 l 570 722 l 584 722 q 602 727 624 732 l 645 729 l 648 722 l 652 722 l 652 718 l 667 713 q 681 719 702 732 l 711 732 l 737 750 l 737 757 q 737 759 734 782 q 757 802 798 804 l 806 796 l 812 771 q 810 765 791 746 l 791 739 l 780 722 q 735 693 702 693 q 697 693 669 700 q 634 682 606 678 l 587 685 l 581 685 l 559 696 l 550 693 l 545 689 l 531 685 l 513 671 l 509 657 l 502 654 l 497 628 q 537 630 564 626 l 584 614 q 589 613 607 609 q 623 606 630 607 l 648 600 l 652 585 l 673 575 l 702 572 l 702 568 q 707 563 748 546 l 767 529 q 774 498 789 481 q 787 463 791 450 l 787 433 q 792 424 801 405 q 806 393 808 371 q 811 343 812 336 q 814 329 816 308 z m 716 361 q 710 390 710 388 q 710 384 714 411 q 707 451 687 479 l 687 485 l 691 514 l 687 529 q 675 538 651 543 q 633 548 614 553 l 586 578 q 537 585 542 585 q 520 582 502 572 q 492 555 470 529 l 470 525 l 452 492 l 452 475 l 456 468 l 452 442 l 445 436 l 435 407 l 438 375 l 423 364 l 416 343 q 420 338 420 290 q 420 284 416 271 q 412 258 413 250 l 405 232 l 405 225 l 388 208 l 392 204 l 388 201 l 388 165 l 370 129 l 359 122 l 359 108 q 347 86 342 58 l 363 40 l 381 40 q 395 33 398 25 l 416 21 q 433 29 466 40 l 470 47 l 506 51 q 521 55 527 64 q 542 70 563 68 l 581 75 q 594 92 609 98 q 630 124 637 147 q 652 159 675 182 q 673 188 673 193 q 673 194 676 211 l 680 214 q 682 221 685 266 q 687 286 705 322 q 704 326 708 351 l 712 351 l 712 361 z"},"^":{"x_min":0,"x_max":489,"ha":489,"o":"m 580 458 l 558 442 l 536 458 l 529 481 l 495 505 l 474 554 l 438 593 l 431 623 l 401 637 l 388 617 l 347 595 l 319 564 l 282 535 l 243 513 l 208 497 l 184 476 l 161 458 l 155 440 l 131 446 l 118 458 l 143 491 l 172 503 l 208 542 l 229 576 l 245 572 l 284 619 l 325 667 l 356 671 l 371 699 l 397 687 l 435 701 l 456 699 l 474 677 l 468 656 l 487 632 l 487 605 l 515 580 l 529 529 l 564 489 z"},"0":{"x_min":0,"x_max":363,"ha":363,"o":"m 344 167 q 335 149 322 113 l 312 102 q 303 82 303 80 l 297 76 q 291 63 279 48 l 268 41 q 256 29 240 6 l 229 -2 l 205 -9 q 187 -6 154 2 q 121 16 87 41 l 76 41 l 72 52 l 68 56 l 65 62 l 58 66 l 58 69 q 53 74 51 84 l 44 91 l 44 98 q 27 111 22 127 q 28 147 26 163 l 20 169 l 20 173 l 25 180 l 21 187 q 24 198 33 219 l 58 237 q 75 241 76 241 q 91 245 123 262 l 133 277 l 140 280 q 146 287 158 294 l 158 297 q 172 301 183 312 l 205 305 l 205 297 l 208 294 q 218 297 240 288 l 248 273 l 248 266 q 271 254 318 223 q 324 211 340 187 z m 287 159 l 275 173 q 268 175 253 180 q 248 188 244 191 q 244 190 236 211 q 233 226 230 239 q 227 253 211 266 l 176 269 q 165 260 140 245 l 137 245 l 137 237 l 123 234 l 123 230 l 112 227 l 108 223 q 109 218 105 203 q 102 185 102 177 q 105 163 109 152 l 116 148 q 118 142 120 130 q 115 118 116 117 l 123 98 q 148 84 166 59 q 178 54 186 42 l 194 37 l 198 37 l 205 34 q 213 34 223 40 q 233 57 254 66 q 289 102 287 159 z"},"F":{"x_min":0,"x_max":601,"ha":601,"o":"m 747 584 l 733 578 l 726 559 q 729 550 736 535 q 736 508 726 491 l 708 487 l 701 495 q 697 507 694 513 l 690 513 l 690 524 l 675 545 l 662 545 l 636 531 l 612 535 q 595 530 594 531 q 575 536 537 542 q 508 542 451 545 q 432 550 391 556 q 388 549 376 531 l 376 524 q 372 521 368 504 q 364 487 365 480 l 369 480 l 384 459 l 380 445 l 391 420 l 391 388 l 395 385 l 395 359 q 383 351 376 335 q 377 334 430 302 l 465 298 l 490 310 l 486 335 q 488 349 501 359 l 526 370 q 542 370 573 363 l 576 359 l 576 335 l 562 331 l 558 324 l 558 298 q 563 284 569 267 l 562 242 l 541 227 l 530 235 l 530 259 l 523 277 l 512 285 l 505 285 l 494 277 q 462 274 462 274 q 415 274 391 298 l 365 302 l 354 298 l 354 281 l 358 277 l 358 267 l 362 263 l 362 256 l 352 252 q 353 244 348 227 q 343 210 344 207 l 348 207 l 348 203 q 348 185 339 165 l 326 149 l 326 146 q 322 122 315 88 q 310 80 301 63 l 287 53 l 284 46 l 297 38 l 315 38 l 344 27 l 358 27 l 373 10 l 373 3 l 358 -12 l 315 10 q 277 14 258 14 q 257 14 248 10 q 239 6 237 6 q 222 6 191 -1 q 183 -11 166 -25 l 166 -29 l 159 -29 l 130 -22 l 116 -4 l 120 17 l 133 21 l 137 35 l 159 27 l 176 35 q 192 32 226 46 l 234 63 l 237 66 l 237 77 l 248 96 l 248 131 l 241 146 l 241 160 q 250 178 250 229 q 250 234 253 247 q 255 260 254 267 l 265 281 l 265 288 q 278 297 288 299 l 293 313 l 304 320 l 301 324 l 293 327 l 208 323 l 176 310 l 163 292 q 152 286 137 288 l 137 302 q 140 314 141 317 l 155 324 l 166 338 q 170 338 207 347 q 234 353 248 353 q 243 353 301 346 l 304 353 l 304 374 l 309 378 q 302 395 308 409 l 301 428 l 310 441 l 299 445 l 295 459 l 299 474 l 291 480 l 297 506 l 301 506 q 301 515 314 532 q 327 550 335 554 l 341 567 l 334 578 l 304 584 l 284 602 q 273 608 254 606 l 241 613 q 202 609 208 609 q 203 609 191 613 q 176 607 163 609 l 124 591 l 124 578 l 148 545 l 173 542 l 180 552 q 200 561 209 558 l 223 552 l 226 542 l 219 517 q 184 503 173 506 q 154 516 130 517 l 126 531 l 105 539 q 102 550 98 578 l 109 606 l 126 617 l 130 627 l 137 627 l 148 634 q 157 633 182 639 q 209 645 223 645 q 231 645 251 641 q 269 637 280 638 q 289 626 304 620 l 334 624 l 341 630 l 373 624 l 387 638 l 395 641 l 395 656 q 408 666 426 673 l 426 677 l 462 684 l 469 691 l 497 699 l 501 702 q 522 706 562 706 q 567 706 587 712 q 605 718 612 717 l 626 703 q 603 686 581 685 q 556 685 531 685 l 479 663 l 476 659 l 465 656 l 458 649 l 434 645 l 430 634 q 418 628 412 620 q 415 614 444 602 l 462 602 l 462 598 l 486 584 q 492 585 512 587 q 527 588 537 588 q 542 588 573 581 q 587 567 625 567 q 641 567 679 581 l 686 588 l 686 591 l 690 591 q 708 604 719 620 l 729 620 q 735 608 747 584 z"},"`":{"x_min":0,"x_max":489,"ha":489,"o":"m 331 346 l 327 340 l 311 334 l 292 340 l 294 348 l 284 353 l 284 362 l 261 370 l 258 392 l 249 390 l 237 393 l 232 400 q 210 400 192 417 q 190 427 190 434 q 190 439 192 451 l 208 464 l 225 464 l 233 453 l 229 444 q 245 443 260 430 l 259 427 l 267 423 q 292 387 306 360 q 310 360 315 360 q 320 360 323 360 l 330 355 z"},"k":{"x_min":0,"x_max":390,"ha":390,"o":"m 535 577 q 533 566 524 559 l 524 552 q 504 541 493 531 q 473 533 460 526 l 449 530 q 429 527 427 527 q 426 527 405 530 l 392 526 l 375 532 l 368 540 l 365 540 l 353 549 l 328 546 l 324 542 q 311 539 288 529 l 280 519 q 274 510 266 491 l 269 477 q 263 440 262 443 q 256 432 248 409 q 244 393 240 376 q 237 363 225 346 l 225 343 l 219 336 l 219 329 l 215 329 l 215 326 l 212 326 q 213 312 209 291 q 203 264 203 257 l 199 257 l 203 244 l 223 253 q 229 263 251 278 q 271 292 283 294 l 293 305 l 297 315 q 322 320 331 319 l 337 312 l 337 309 l 341 301 l 341 298 l 345 298 l 345 294 l 354 289 l 357 282 l 354 271 l 357 264 l 354 241 l 348 237 l 348 231 q 333 218 331 207 q 324 202 311 190 l 299 186 l 293 177 q 281 169 273 167 l 270 167 l 266 163 l 262 167 l 260 190 q 280 190 303 207 l 303 210 q 315 224 328 241 l 328 271 l 324 271 l 324 274 l 317 285 q 309 281 293 271 l 293 264 l 270 257 q 263 252 250 241 q 236 229 229 224 l 223 228 l 215 216 l 199 210 l 192 200 q 192 198 190 190 l 208 168 l 214 167 l 208 163 l 220 155 l 223 147 l 233 147 l 234 134 q 238 133 268 93 l 285 86 l 282 83 l 286 79 l 286 75 l 292 72 l 296 59 l 295 56 l 306 51 l 304 42 l 306 38 l 303 36 l 303 31 q 309 25 320 14 l 334 10 l 335 -3 q 346 -14 373 -12 l 384 -18 q 399 -18 409 -12 q 412 -16 416 -19 l 415 -25 l 402 -44 q 392 -47 382 -46 l 381 -52 l 375 -52 l 375 -56 l 368 -59 l 358 -59 l 348 -65 l 335 -66 q 325 -53 305 -49 l 301 -36 q 294 -24 276 -9 q 255 7 249 16 q 244 26 232 44 l 193 82 l 190 82 l 186 86 l 191 88 l 179 98 q 175 109 161 125 l 158 122 l 155 132 q 151 130 145 122 l 145 120 l 141 120 l 137 105 l 141 99 l 137 95 q 138 92 134 81 q 126 77 110 47 q 93 17 93 7 l 78 -4 q 61 -2 49 -8 q 37 0 8 -4 l 4 -8 l 0 3 l 2 10 l 12 13 l 20 27 q 17 40 25 58 l 29 58 l 32 67 l 36 67 q 38 74 42 78 l 42 81 q 49 82 60 91 q 63 113 62 125 q 73 136 85 167 l 85 177 l 92 183 l 92 190 l 96 190 l 99 200 q 123 220 123 268 q 133 285 140 309 l 149 316 l 145 326 q 150 346 159 353 l 159 369 q 165 385 183 411 l 178 428 q 185 440 195 464 l 195 468 q 198 472 202 475 l 202 478 l 214 491 l 212 505 l 225 515 l 225 519 l 229 519 l 229 522 q 262 533 273 549 q 283 550 300 558 q 318 566 328 567 l 331 569 q 343 567 354 573 l 354 577 l 389 579 l 395 577 q 400 581 402 583 l 436 583 l 456 573 l 456 569 q 471 560 493 562 l 500 567 l 507 604 l 531 596 l 535 589 z"},"u":{"x_min":0,"x_max":453,"ha":453,"o":"m 429 82 q 423 75 407 66 q 391 57 389 54 l 389 50 q 382 45 371 36 l 364 21 l 347 8 l 343 0 q 326 -12 288 -9 q 265 -2 248 8 l 244 23 q 245 45 256 73 q 229 66 217 50 q 195 23 193 21 l 195 19 q 194 17 192 13 q 190 10 189 8 l 175 8 q 161 -5 139 -7 q 95 -5 58 28 q 53 47 45 78 q 45 112 61 136 l 61 139 q 90 178 86 204 l 78 208 l 75 204 l 67 204 l 61 197 l 50 193 l 32 197 l 37 222 l 50 232 q 65 236 86 236 l 97 243 l 104 243 l 108 250 l 122 253 l 128 271 l 132 275 l 147 268 l 165 275 l 186 268 q 188 257 189 236 l 186 229 l 168 225 q 165 221 161 208 l 158 208 q 153 179 143 171 l 143 168 q 138 164 128 150 l 125 122 l 122 119 q 113 104 115 86 l 118 82 q 116 75 127 53 q 138 32 145 25 l 158 25 q 161 27 201 67 l 211 71 l 213 78 q 221 80 225 86 l 232 89 l 232 93 q 236 101 243 111 q 253 115 265 124 q 281 138 284 139 q 286 149 291 154 l 294 154 q 301 175 318 215 q 323 223 332 239 q 331 249 336 260 l 364 273 l 389 264 q 395 253 393 239 l 389 232 l 389 221 l 386 221 l 375 200 l 371 200 q 364 195 360 168 l 357 168 q 354 155 347 139 l 347 122 l 336 97 l 332 93 l 321 64 l 321 54 q 321 51 322 46 q 322 41 322 38 q 341 50 347 58 l 368 61 l 371 64 l 371 71 q 381 81 399 100 q 413 105 418 104 l 429 89 z"},"]":{"x_min":0,"x_max":392,"ha":392,"o":"m 543 762 l 539 747 q 526 733 513 702 q 500 670 488 658 l 488 652 l 483 652 l 483 648 l 478 648 q 471 632 453 603 l 443 597 l 443 591 l 429 583 l 429 537 l 423 522 l 417 518 l 413 508 l 393 502 l 374 457 l 374 423 l 362 402 l 368 393 q 339 345 319 327 l 313 327 l 311 317 l 303 312 l 303 296 l 298 296 q 292 267 292 262 q 292 259 298 227 l 292 208 q 284 198 273 193 l 258 168 l 234 158 q 235 148 228 118 l 213 98 q 206 69 208 59 q 196 19 164 -57 l 153 -67 q 153 -69 149 -87 l 143 -87 l 143 -92 l 138 -92 l 134 -117 l 109 -126 q 98 -121 83 -123 l 79 -126 l 13 -126 q 16 -126 -12 -123 l -36 -132 l -57 -132 q -72 -128 -76 -126 q -84 -110 -81 -96 q -67 -94 -61 -94 q -56 -94 -46 -96 q -37 -99 -32 -99 q -31 -99 19 -96 l 33 -108 l 43 -96 l 79 -96 q 90 -66 88 -57 l 98 -57 q 107 -42 111 -25 q 115 -8 119 8 q 120 13 132 34 q 145 55 149 59 l 159 83 l 168 93 l 173 114 l 179 118 l 179 128 l 183 128 l 183 138 l 189 138 l 193 158 l 198 158 q 206 165 234 212 l 228 272 l 252 317 l 250 330 l 252 338 l 262 333 l 262 338 l 273 338 q 277 344 287 375 q 296 407 308 423 l 308 433 l 313 433 q 330 442 338 452 l 338 463 l 348 487 l 348 497 l 354 502 q 355 527 368 548 l 383 557 l 383 563 l 389 563 l 389 603 q 396 615 412 658 q 428 701 429 712 l 433 712 l 438 722 l 447 728 l 458 742 l 458 752 l 453 758 l 443 758 l 438 752 l 429 752 l 423 758 l 368 752 l 358 747 l 328 747 l 313 733 l 303 730 l 292 733 l 283 752 l 283 768 l 313 772 l 338 788 l 389 788 q 394 788 404 785 q 414 783 417 782 q 417 782 443 782 q 455 782 483 788 q 508 793 523 792 l 529 788 l 529 772 z"},"U":{"x_min":0,"x_max":1000,"ha":1000,"o":"m 1100 646 l 1097 638 l 1072 625 l 1061 599 l 1033 585 l 1008 560 l 998 557 l 998 553 q 986 541 971 510 q 957 479 956 462 q 940 437 915 407 q 894 359 895 337 q 877 324 865 306 l 865 292 l 848 278 l 852 271 q 843 249 824 226 q 802 200 797 188 q 795 179 789 161 q 778 134 755 115 q 742 94 747 57 q 763 30 766 15 l 783 7 q 810 11 857 54 q 857 54 876 78 q 892 95 922 128 l 918 139 q 918 139 891 153 q 875 161 868 171 l 879 196 l 890 200 q 954 196 987 175 l 991 157 q 986 148 976 132 q 954 121 933 97 q 910 71 904 50 l 883 32 l 879 32 q 872 24 861 15 l 857 7 q 844 -8 821 -18 q 800 -27 779 -35 l 758 -35 q 751 -35 723 -21 q 695 -6 684 -6 q 681 -6 679 -7 l 679 -4 l 672 -4 l 668 7 l 655 15 l 647 28 l 651 57 l 655 57 q 664 75 666 96 l 679 116 l 679 128 q 655 119 644 122 q 631 109 583 100 q 558 75 519 50 l 512 39 l 508 39 l 494 21 l 458 0 l 437 0 q 428 0 404 8 q 380 15 371 15 q 368 15 365 15 l 358 25 l 326 43 q 314 61 312 78 l 293 104 l 287 128 l 291 139 l 288 153 l 293 167 q 292 175 301 246 l 312 260 l 312 275 q 320 279 333 308 q 340 328 349 347 q 359 361 373 396 q 386 408 391 417 l 395 417 l 412 438 q 415 439 458 488 l 458 499 l 469 510 l 473 528 l 483 539 q 523 551 534 564 l 534 575 l 526 578 q 494 557 476 557 l 465 546 q 338 484 267 484 q 260 484 254 485 l 241 478 q 213 480 166 492 l 155 503 l 133 503 l 126 510 l 105 517 q 97 525 91 544 l 98 560 l 133 575 l 141 575 l 148 582 l 191 599 q 197 598 206 600 q 217 603 219 603 q 219 603 251 603 q 257 603 269 599 l 287 603 l 291 614 l 312 614 l 323 625 q 324 625 330 626 q 336 627 337 627 q 339 627 362 625 q 378 601 384 588 q 377 573 362 542 l 380 542 l 397 553 q 418 554 462 575 l 462 592 l 479 599 q 510 597 530 603 l 537 610 q 560 613 594 621 l 597 625 q 619 625 636 635 q 641 635 646 635 q 655 635 678 639 q 699 644 711 642 q 724 631 726 618 l 729 618 l 729 607 l 708 596 l 686 599 l 662 592 l 644 575 l 633 575 q 618 559 589 528 l 583 525 l 583 514 l 579 514 q 577 502 569 492 l 569 481 q 551 470 521 444 l 520 436 l 505 417 l 483 405 q 479 395 468 375 l 468 367 l 464 367 l 464 354 q 453 335 439 328 q 433 306 421 289 l 423 256 q 419 245 412 221 q 408 214 401 200 q 401 177 389 136 l 390 110 q 400 89 429 68 l 454 61 q 479 76 530 96 q 552 123 615 150 q 630 147 672 165 q 684 198 742 256 q 756 297 776 314 q 778 328 800 358 q 801 375 806 389 l 812 393 l 831 425 l 827 438 q 836 447 846 463 q 860 486 861 488 l 854 510 q 862 519 865 532 l 891 544 l 900 557 l 907 557 q 928 576 929 599 l 926 603 l 937 610 l 937 618 l 951 642 l 961 649 l 976 649 l 979 638 l 990 638 l 1068 667 l 1083 664 z m 341 539 l 341 542 l 326 549 l 309 568 l 269 575 l 251 568 l 234 571 l 226 568 q 223 569 218 569 q 191 569 159 552 q 174 529 194 521 l 223 517 l 237 521 q 284 517 273 517 q 280 517 292 519 q 308 521 312 521 q 317 524 327 530 q 336 536 341 539 z"},"o":{"x_min":0,"x_max":330,"ha":330,"o":"m 311 156 l 306 129 l 303 129 l 303 123 l 296 115 l 296 112 l 286 104 l 275 86 l 264 79 l 268 73 q 262 62 256 56 l 254 46 q 246 41 233 24 q 218 7 210 1 q 199 2 186 -3 q 173 1 147 1 q 133 -2 129 -4 l 111 1 q 94 16 81 20 q 73 26 61 43 q 59 51 57 70 q 49 80 39 101 q 20 117 20 154 l 29 179 q 39 189 57 198 q 62 205 64 211 l 82 222 l 100 247 l 118 253 l 128 253 l 143 268 l 161 272 l 167 268 q 172 262 175 243 l 182 243 l 186 247 l 204 253 l 210 261 l 228 261 l 243 253 l 250 229 l 267 222 l 271 222 q 277 213 289 208 q 298 191 311 156 z m 282 165 l 275 183 l 275 186 l 267 193 l 264 201 l 250 208 l 239 201 q 235 190 228 183 q 229 180 225 168 l 217 165 l 217 162 l 207 154 l 189 165 l 186 168 l 186 197 l 178 214 l 178 218 l 171 222 l 171 225 l 165 229 l 150 225 l 145 216 l 128 208 l 125 208 q 123 199 107 186 l 107 179 l 111 175 l 111 168 l 113 164 l 104 143 l 104 129 q 107 126 111 119 q 111 117 110 113 q 110 110 110 108 q 110 106 110 103 q 111 99 111 98 q 115 91 118 75 l 132 64 l 139 51 l 157 36 l 182 32 q 193 40 215 50 l 214 58 q 223 64 240 76 l 243 86 q 252 94 260 108 l 275 115 q 284 136 282 165 z"},"N":{"x_min":0,"x_max":841,"ha":841,"o":"m 1214 753 l 1203 703 l 1192 699 l 1182 685 l 1164 678 l 1156 667 q 1139 663 1125 649 l 1106 646 l 1092 649 q 1083 646 1042 646 q 1035 646 1013 655 q 992 665 982 665 q 978 665 975 664 l 946 642 l 943 635 l 935 628 l 935 621 l 925 610 l 917 607 l 917 603 l 899 585 l 896 575 l 889 568 l 885 557 q 877 550 867 536 l 864 536 l 856 510 l 846 499 l 839 464 q 827 444 800 407 q 798 391 789 382 l 789 364 q 783 351 774 317 q 763 306 752 277 q 742 247 729 236 l 718 210 l 722 207 l 713 200 l 713 189 l 707 182 q 692 116 692 99 q 692 94 693 89 l 685 71 l 693 43 q 698 32 707 15 l 713 11 q 722 -2 732 -11 l 732 -24 l 718 -43 l 700 -46 l 667 -32 l 654 -32 q 648 -26 637 -3 q 625 21 614 32 l 611 32 l 603 39 l 599 50 q 599 73 603 118 q 600 124 600 150 q 600 155 604 167 q 608 179 607 186 q 600 198 593 204 q 584 248 584 267 q 584 278 587 305 q 590 329 589 343 l 593 347 q 586 354 575 360 q 573 379 568 389 l 564 389 q 553 375 546 350 l 540 343 l 540 317 l 525 278 l 507 257 l 503 257 l 500 239 l 479 221 q 476 209 464 189 q 449 164 446 159 l 427 147 q 417 115 386 93 l 386 89 l 368 71 l 368 64 l 357 50 l 325 28 l 318 4 q 300 -1 292 -11 l 275 -11 l 261 -18 l 257 -24 l 240 -24 l 208 -39 q 194 -38 172 -26 q 150 -15 143 -4 l 136 15 l 122 25 l 93 82 l 97 104 q 113 126 143 171 l 143 178 l 154 189 q 173 196 182 204 q 203 207 204 207 q 205 207 211 205 q 217 204 218 204 q 242 185 247 167 l 247 154 q 247 148 243 136 l 240 136 l 236 115 l 214 104 l 208 107 l 204 111 l 201 111 l 190 128 l 162 136 l 154 147 l 147 147 q 146 139 136 115 q 127 94 127 82 q 127 77 129 67 l 140 61 q 147 45 165 15 l 193 -7 q 228 2 257 25 l 268 25 q 276 35 290 57 l 300 64 l 318 97 l 338 108 q 352 135 396 182 q 407 190 429 210 q 436 221 453 239 q 464 273 475 286 l 479 286 l 482 296 l 496 303 q 503 365 533 410 q 531 437 546 457 l 546 464 l 564 507 l 561 539 l 557 542 l 526 532 q 486 533 432 552 q 367 575 343 579 l 336 585 l 296 585 q 268 569 222 571 q 208 567 179 539 l 162 532 l 136 492 q 134 472 125 464 l 129 457 l 143 471 l 162 478 q 179 467 204 457 l 214 438 l 214 425 l 208 425 l 211 382 q 242 373 272 357 l 282 360 l 292 371 l 292 375 l 303 382 l 292 407 l 292 418 q 300 420 322 433 q 340 442 354 442 l 354 446 l 368 442 q 375 431 386 418 l 386 407 q 364 388 361 368 q 327 357 312 339 l 292 336 l 279 339 l 264 336 l 240 347 l 222 347 l 208 357 q 177 358 144 394 q 105 436 94 440 l 86 460 l 90 475 l 104 488 l 112 529 l 140 549 l 143 549 l 151 564 q 161 570 179 579 l 182 585 l 204 596 l 214 596 l 232 603 q 244 603 306 607 q 369 611 379 614 q 391 597 430 582 q 467 567 494 567 q 499 567 503 568 l 514 575 l 536 575 l 572 588 l 583 603 l 596 599 l 611 610 l 639 610 l 643 599 l 646 599 l 639 557 l 643 539 l 664 532 q 670 519 667 496 l 650 481 l 646 460 l 654 432 l 664 425 l 664 414 l 667 410 l 667 386 l 671 386 q 667 374 667 368 q 667 384 674 257 l 678 253 l 674 247 l 678 232 l 696 250 l 707 275 l 718 286 l 725 314 l 729 314 q 736 330 739 339 l 743 339 l 743 357 l 754 375 l 754 389 l 768 421 l 774 425 q 788 463 800 475 l 807 499 l 814 507 q 818 525 846 560 q 875 595 878 610 l 896 621 l 899 639 l 903 642 l 910 657 l 925 670 l 925 674 l 906 692 l 860 692 q 857 692 849 690 q 822 688 768 681 q 771 675 771 653 l 761 618 l 754 610 l 732 614 l 725 639 l 718 646 l 685 653 l 667 670 l 667 681 l 671 689 l 678 689 l 689 696 q 712 699 713 699 q 715 699 785 696 l 793 703 q 855 725 921 721 l 932 713 l 935 703 q 948 697 964 699 q 981 720 1003 731 l 1010 746 q 1028 758 1064 778 q 1077 780 1099 792 q 1135 793 1175 807 q 1201 787 1210 771 z m 1132 735 l 1114 746 l 1117 757 q 1083 757 1045 731 l 1039 721 l 1025 718 l 1003 692 l 1017 681 l 1036 681 l 1045 674 q 1102 681 1099 681 l 1114 689 q 1122 703 1132 735 z"},"+":{"x_min":0,"x_max":489,"ha":489,"o":"m 457 205 l 453 198 l 453 187 l 449 183 l 442 183 l 439 180 q 418 185 396 183 l 371 169 l 364 169 l 360 172 l 360 180 l 347 180 l 339 172 q 324 169 321 169 q 316 169 302 171 q 289 173 282 172 l 275 180 l 264 180 l 257 176 l 257 172 l 247 172 l 243 169 l 243 166 l 239 166 l 239 133 l 232 123 l 232 98 l 236 91 q 234 70 228 59 l 221 59 l 221 55 l 214 48 l 210 30 l 197 20 l 186 -2 q 173 -9 150 -6 l 143 9 l 132 9 l 128 16 l 128 22 l 139 37 l 139 41 l 143 41 q 148 45 158 51 l 161 59 l 161 62 l 165 62 q 174 83 171 98 l 175 101 l 171 123 q 179 144 189 152 l 193 152 l 193 155 l 197 155 l 197 162 l 200 162 l 200 169 l 193 176 l 182 172 l 175 180 l 168 180 l 161 183 q 152 180 122 180 q 110 180 100 187 l 93 183 l 86 183 l 71 172 l 61 172 l 54 180 l 36 180 l 32 183 l 34 194 l 32 202 l 36 205 l 43 205 l 39 211 l 47 215 l 89 215 q 100 213 104 211 l 114 219 q 138 214 147 215 l 150 211 l 161 211 q 165 207 175 205 l 175 208 l 204 208 l 208 215 l 218 215 l 221 219 l 236 219 l 239 233 l 236 241 q 253 270 257 297 q 262 310 268 326 l 275 326 l 275 333 l 282 341 l 282 348 l 286 348 l 286 352 l 292 354 l 292 358 l 299 365 q 308 365 329 376 l 350 369 l 350 354 q 342 343 332 319 l 336 312 q 326 301 311 272 l 303 269 l 308 262 q 296 244 292 226 l 289 226 l 282 215 l 282 208 l 289 205 l 299 211 l 325 211 l 339 205 l 350 205 l 354 208 l 361 210 l 366 207 q 378 213 396 211 l 403 208 l 403 211 l 410 211 l 418 219 l 446 219 z"},"G":{"x_min":0,"x_max":821,"ha":821,"o":"m 846 333 l 835 322 l 835 315 l 824 300 l 828 279 l 817 268 l 813 240 l 803 226 l 778 222 l 774 268 l 750 254 q 744 254 734 255 q 722 256 718 256 q 709 256 696 254 q 691 252 646 211 l 642 198 l 635 194 l 628 179 l 625 176 q 619 164 621 151 q 629 141 631 133 l 618 119 l 618 108 l 610 108 l 599 94 l 599 72 q 590 58 575 26 l 575 16 l 568 5 l 568 1 l 564 1 l 564 -27 l 557 -34 l 549 -53 l 542 -56 l 539 -66 l 521 -70 l 514 -88 l 521 -103 q 562 -117 635 -117 q 635 -117 678 -106 l 685 -99 l 713 -88 l 718 -84 l 718 -70 l 709 -66 l 703 -56 q 692 -52 670 -42 l 664 -23 l 664 -17 l 674 -10 q 746 -3 739 -3 q 739 -3 774 -6 l 778 -31 l 760 -31 q 763 -31 739 -27 l 731 -38 q 748 -45 760 -66 l 764 -92 q 740 -105 692 -125 l 685 -138 l 646 -153 l 639 -149 q 582 -152 530 -142 q 521 -140 479 -125 l 438 -127 l 425 -134 l 425 -142 q 413 -144 383 -152 q 357 -160 339 -160 q 325 -160 300 -157 q 271 -153 260 -153 l 250 -145 l 232 -142 q 222 -137 204 -125 l 208 -114 q 195 -105 170 -100 q 143 -93 132 -88 l 107 -88 l 97 -81 l 89 -45 l 100 -23 l 122 -6 q 149 6 186 6 q 195 6 211 2 q 229 -2 236 -3 q 248 -2 271 -3 q 272 -3 292 -10 l 311 -6 q 350 -18 382 -21 l 389 -27 l 425 -42 q 432 -50 455 -68 l 479 -42 q 481 -24 481 -23 q 481 -20 480 -13 q 479 -6 479 -3 q 479 -1 481 22 l 499 37 l 503 51 l 499 62 l 507 87 l 499 97 l 492 97 l 479 83 l 468 79 q 433 80 386 87 l 382 90 q 301 105 282 119 q 271 130 245 150 l 236 172 q 226 174 210 179 l 197 205 l 197 218 l 206 226 q 199 233 191 283 l 197 297 l 193 315 l 204 344 l 204 354 q 207 362 239 408 l 250 415 q 263 433 271 456 l 288 471 q 301 489 321 529 q 329 535 342 549 q 354 564 362 570 q 348 579 317 593 l 299 593 l 286 600 l 236 600 q 229 600 217 597 q 204 593 197 593 q 180 597 171 600 q 147 584 118 586 l 115 580 l 115 569 l 122 561 l 139 561 l 157 569 l 167 569 l 193 554 l 193 550 l 200 547 l 217 529 l 217 519 l 225 504 l 225 479 l 210 472 l 187 475 q 183 477 176 482 q 168 487 165 489 l 157 504 l 143 508 l 139 515 l 122 522 l 118 529 l 86 550 q 81 579 82 589 l 97 611 q 103 612 130 619 q 156 625 161 625 q 171 625 188 624 q 208 622 214 622 l 221 625 q 260 629 253 629 q 294 629 393 593 q 438 608 452 608 q 457 608 460 608 l 471 625 q 494 629 524 639 q 560 651 571 654 l 603 654 q 606 654 614 652 q 621 650 625 650 q 622 650 649 654 l 657 661 l 709 650 l 709 647 l 718 639 l 721 622 l 713 615 l 689 615 l 681 619 l 681 625 q 657 634 625 635 l 618 632 l 618 629 q 575 629 557 619 q 553 620 499 604 q 490 597 475 583 l 479 580 q 479 580 536 580 q 542 580 555 576 q 569 572 575 572 q 575 572 614 572 q 657 572 699 583 l 699 586 l 707 586 l 709 600 l 718 608 l 735 604 l 742 589 l 746 589 l 750 586 l 718 561 q 702 554 672 550 q 635 546 625 543 l 618 547 l 599 547 q 597 547 592 546 q 587 544 585 544 q 577 544 559 547 q 541 550 536 550 q 475 550 486 550 q 456 551 438 561 q 426 549 420 543 q 410 532 408 522 l 390 511 l 391 500 q 384 489 368 478 l 363 462 l 347 448 l 346 431 l 331 410 l 331 394 l 321 375 l 320 350 l 302 339 l 298 314 l 290 301 l 292 287 q 292 284 292 278 l 295 278 l 295 271 l 298 271 l 305 256 q 301 242 303 221 l 312 210 l 308 200 l 309 188 l 325 183 l 338 157 q 369 141 386 134 q 418 120 436 119 l 457 123 l 471 119 l 503 126 l 510 137 q 529 141 539 151 l 542 172 l 560 179 l 564 194 l 571 198 l 579 215 l 575 244 l 588 279 l 585 290 l 579 297 q 571 297 540 291 q 513 286 507 287 l 481 276 l 442 276 l 428 268 l 425 276 q 430 292 446 304 q 471 304 488 318 l 553 318 q 554 318 559 320 q 563 322 564 322 q 570 322 582 322 q 625 329 625 329 q 636 329 660 320 q 685 311 698 311 q 702 311 707 312 q 716 306 735 293 l 764 293 l 774 309 l 789 315 l 796 326 l 807 329 l 813 348 l 835 354 l 842 351 z m 410 -106 l 410 -92 q 397 -85 382 -73 l 354 -66 l 347 -56 l 328 -53 l 325 -42 q 307 -34 256 -31 q 221 -29 186 -27 l 171 -34 l 154 -31 l 143 -34 l 139 -60 l 143 -70 q 154 -77 197 -81 q 242 -85 257 -92 l 271 -103 l 271 -106 l 286 -119 l 311 -127 q 337 -125 339 -125 q 340 -125 360 -127 q 394 -121 410 -106 z"},"q":{"x_min":0,"x_max":351,"ha":351,"o":"m 342 271 q 334 265 331 257 l 331 239 l 328 236 l 324 214 l 321 214 l 317 204 l 313 204 q 310 189 300 161 q 290 132 287 118 q 286 108 281 89 q 281 87 281 84 q 282 81 282 79 q 282 78 281 75 q 281 73 281 71 q 265 61 255 50 l 255 39 l 249 35 l 245 15 l 231 -4 q 229 -31 220 -46 l 212 -50 l 205 -107 l 198 -118 l 198 -122 l 195 -122 l 191 -132 l 184 -132 l 184 -139 q 181 -146 170 -154 q 165 -166 167 -182 l 163 -186 l 163 -217 l 149 -236 l 149 -239 l 156 -243 l 163 -239 l 170 -246 l 173 -243 l 173 -236 q 188 -233 216 -232 l 220 -236 l 220 -239 l 227 -232 l 231 -232 l 238 -236 q 237 -240 216 -260 l 209 -260 l 199 -267 l 192 -267 l 188 -275 l 184 -275 l 181 -278 l 163 -278 l 145 -286 l 134 -299 l 113 -299 l 110 -306 q 94 -312 73 -311 l 70 -317 l 60 -317 l 60 -311 l 66 -299 l 62 -299 q 69 -275 81 -267 l 84 -243 q 88 -234 92 -232 l 92 -221 q 100 -217 110 -193 l 106 -167 q 116 -141 113 -115 l 117 -115 q 122 -102 121 -96 l 129 -92 q 144 -69 160 -26 l 167 -19 l 162 -9 l 163 0 l 110 0 l 92 7 l 77 7 q 65 19 52 21 l 52 25 q 51 26 39 34 q 26 48 21 64 l 21 75 l 17 75 l 21 104 l 27 109 l 31 115 q 32 119 32 127 l 43 130 l 51 147 l 55 150 l 62 175 l 69 178 q 91 211 103 214 l 103 217 l 110 217 l 118 232 l 131 236 l 131 239 q 133 238 161 244 q 190 250 200 250 q 239 250 252 243 l 256 250 l 256 264 q 268 260 292 260 q 309 264 317 267 l 317 271 l 342 275 z m 239 221 l 235 225 q 226 224 210 229 q 194 233 189 232 l 181 225 l 174 225 l 174 221 l 167 221 l 167 210 l 164 208 l 161 200 l 157 200 q 151 191 128 141 l 125 137 l 122 130 q 111 122 102 104 l 98 76 l 106 46 l 121 32 l 138 32 l 167 43 l 173 50 l 177 50 q 183 90 209 118 l 209 139 l 212 139 q 222 167 239 221 z"},"d":{"x_min":0,"x_max":401,"ha":401,"o":"m 595 501 l 584 479 l 574 472 l 567 461 l 552 451 l 536 462 l 536 476 q 517 484 477 496 q 447 493 421 474 q 411 457 412 450 l 406 447 q 402 434 402 433 l 396 433 l 392 411 l 378 394 l 382 391 q 372 378 367 348 l 371 341 l 367 333 l 367 330 q 364 328 350 300 q 336 272 335 265 l 328 258 l 320 238 l 321 222 l 313 215 l 311 205 l 306 205 l 289 183 q 283 138 270 120 l 270 116 l 260 109 l 260 83 q 250 70 234 42 l 239 29 l 252 20 l 278 26 l 278 29 q 289 35 299 47 q 312 62 317 65 l 321 76 q 332 88 356 112 q 359 117 363 126 l 371 133 l 389 133 q 393 120 392 112 l 378 101 q 369 87 355 60 l 342 55 l 339 40 l 328 37 q 320 29 317 22 q 309 16 292 5 q 282 2 264 -9 q 250 -12 248 -12 q 245 -12 237 -10 q 229 -9 224 -10 l 207 0 l 197 12 l 194 32 q 168 15 153 1 l 135 1 l 118 -6 q 88 10 60 5 l 57 12 l 35 22 l 35 37 l 24 51 l 24 55 q 26 88 32 130 l 29 140 l 37 148 l 37 155 l 45 159 l 48 172 l 62 183 q 72 206 85 224 q 95 232 115 246 l 122 258 l 139 258 l 150 265 q 168 270 208 272 l 209 260 l 221 258 l 221 254 l 225 254 l 228 248 l 232 248 l 232 244 q 224 238 206 239 q 178 241 178 241 q 166 222 141 201 l 141 190 l 137 180 l 126 176 l 129 172 l 129 169 q 126 158 126 159 l 123 159 q 123 157 119 140 l 112 137 l 116 121 l 113 106 l 105 97 q 97 76 97 53 l 103 33 l 107 29 l 118 26 l 125 29 q 133 29 138 30 l 147 35 q 154 35 172 47 q 195 64 197 64 q 208 86 213 116 l 220 126 q 221 141 227 170 l 239 183 l 235 194 q 235 222 246 237 l 246 244 l 250 244 q 259 266 256 276 q 266 287 269 302 l 283 314 l 287 335 l 297 350 q 295 365 295 372 q 295 383 301 400 q 312 413 323 437 q 336 463 343 473 q 354 479 372 497 l 387 500 l 399 512 l 412 511 l 423 520 q 431 519 448 523 q 464 527 471 527 q 508 527 535 515 q 566 519 582 522 l 592 511 z"},"1":{"x_min":0,"x_max":250,"ha":250,"o":"m 215 339 q 214 325 205 311 l 206 301 l 194 288 q 189 264 179 248 l 182 235 q 182 229 176 210 q 172 195 172 186 q 172 183 172 180 l 158 167 l 151 148 l 154 141 l 151 130 l 154 122 l 151 106 l 140 98 q 137 89 129 71 q 121 64 104 48 q 129 54 180 62 l 182 55 l 176 45 q 168 38 115 20 q 105 15 86 6 l 86 2 l 81 0 q 71 1 47 -9 l 29 -9 l 25 -5 l 12 -2 l 8 6 l 12 17 l 22 20 l 25 30 q 36 36 51 37 q 69 79 69 79 q 74 95 74 127 q 74 149 80 172 l 86 180 l 97 187 l 97 195 l 101 195 l 101 223 q 105 228 108 237 l 116 243 q 118 251 123 267 q 127 272 128 275 l 128 281 q 131 284 141 298 l 140 306 q 137 305 119 292 l 108 289 l 94 278 q 81 272 62 274 l 58 289 l 62 295 l 68 295 l 72 302 l 94 306 l 97 311 q 107 318 129 328 q 135 328 146 330 q 152 333 164 339 q 175 343 201 343 q 212 340 215 339 z"},"5":{"x_min":0,"x_max":360,"ha":360,"o":"m 420 298 l 409 281 l 409 274 l 405 274 l 396 261 q 387 261 369 259 q 285 250 271 250 q 237 250 217 254 q 173 265 170 265 q 165 265 153 261 q 160 226 161 229 l 157 229 l 155 208 l 145 200 l 138 185 q 126 173 118 169 q 113 163 113 149 q 112 134 110 127 l 103 120 l 103 117 l 118 120 l 128 127 l 135 127 q 165 144 217 144 q 242 144 263 134 l 272 122 l 286 115 q 291 104 299 83 q 311 42 308 16 l 290 -27 l 290 -38 q 284 -45 268 -52 l 257 -70 l 257 -73 l 229 -92 l 214 -95 l 204 -110 l 193 -113 l 190 -117 q 181 -120 163 -120 q 145 -121 136 -124 l 122 -121 l 115 -127 l 111 -124 l 86 -121 q 83 -119 79 -113 l 71 -110 l 68 -84 l 64 -84 l 64 -81 l 61 -73 l 61 -52 l 68 -42 l 72 -28 l 84 -19 l 97 -21 l 107 -35 l 108 -56 l 104 -66 q 96 -70 93 -73 l 106 -93 l 115 -99 l 132 -99 q 145 -99 175 -81 q 189 -65 197 -52 l 208 -52 l 218 -42 q 218 -39 218 -33 q 217 -26 217 -23 q 217 -20 219 -13 q 220 -5 220 -2 q 220 3 218 9 l 208 16 l 204 16 l 201 26 l 204 33 q 202 49 202 59 q 202 65 205 71 q 202 89 190 107 q 167 113 162 113 q 156 113 146 111 l 138 102 l 121 102 l 110 95 l 110 91 l 92 88 l 84 75 l 70 66 l 70 62 l 39 41 l 24 52 l 24 66 l 31 80 q 30 86 32 92 q 35 100 35 102 q 35 109 35 124 q 37 134 46 152 q 55 169 57 177 q 72 188 80 218 q 86 241 92 265 q 101 269 118 279 l 114 293 l 125 304 q 131 303 157 312 q 182 301 185 297 q 208 292 235 283 q 280 283 355 274 q 366 276 370 281 l 372 312 l 381 313 l 392 303 l 405 320 q 408 312 420 302 z"}}}
